<svg width="599" height="339" viewBox="0 0 599 339" fill="none" xmlns="http://www.w3.org/2000/svg">
<g filter="url(#filter0_d_1114_5847)">
<path d="M45.0375 59.6471H61.0069L74.5536 92.68H75.1788L88.7255 59.6471H104.695V113H92.1382V80.2276H91.6953L78.8781 112.661H70.8543L58.0371 80.0452H57.5942V113H45.0375V59.6471Z" fill="white"/>
<path d="M112.738 113V72.9853H125.477V113H112.738ZM119.121 68.3221C117.332 68.3221 115.795 67.7317 114.51 66.5507C113.224 65.3523 112.582 63.9108 112.582 62.2262C112.582 60.5589 113.224 59.1347 114.51 57.9538C115.795 56.7554 117.332 56.1562 119.121 56.1562C120.927 56.1562 122.464 56.7554 123.732 57.9538C125.017 59.1347 125.66 60.5589 125.66 62.2262C125.66 63.9108 125.017 65.3523 123.732 66.5507C122.464 67.7317 120.927 68.3221 119.121 68.3221Z" fill="white"/>
<path d="M146.325 90.1791V113H133.586V72.9853H145.699V80.3318H146.142C147.028 77.8829 148.539 75.9638 150.675 74.5744C152.811 73.1677 155.356 72.4643 158.308 72.4643C161.122 72.4643 163.562 73.0982 165.629 74.366C167.713 75.6165 169.328 77.3706 170.474 79.6284C171.638 81.8688 172.211 84.4913 172.194 87.4958V113H159.455V89.9968C159.472 87.7737 158.907 86.037 157.761 84.7865C156.632 83.5361 155.061 82.9108 153.046 82.9108C151.709 82.9108 150.528 83.2061 149.503 83.7966C148.496 84.3697 147.714 85.1947 147.158 86.2714C146.62 87.3482 146.342 88.6508 146.325 90.1791Z" fill="white"/>
<path d="M202.667 72.9853V82.3638H177.423V72.9853H202.667ZM182.712 63.3985H195.451V100.417C195.451 101.199 195.572 101.833 195.816 102.319C196.076 102.788 196.449 103.127 196.936 103.335C197.422 103.526 198.004 103.622 198.681 103.622C199.167 103.622 199.68 103.578 200.218 103.491C200.774 103.387 201.191 103.3 201.469 103.231L203.396 112.427C202.789 112.601 201.929 112.818 200.817 113.078C199.723 113.339 198.412 113.504 196.884 113.573C193.896 113.712 191.335 113.365 189.199 112.531C187.08 111.68 185.456 110.36 184.327 108.571C183.215 106.782 182.677 104.533 182.712 101.824V63.3985Z" fill="white"/>
<path d="M236.208 113.677C233.655 113.677 231.388 113.252 229.409 112.401C227.446 111.532 225.892 110.23 224.745 108.493C223.617 106.739 223.052 104.542 223.052 101.902C223.052 99.6791 223.443 97.8035 224.224 96.2751C225.006 94.7468 226.083 93.505 227.455 92.5498C228.827 91.5946 230.407 90.8738 232.196 90.3875C233.985 89.8839 235.895 89.5452 237.927 89.3715C240.202 89.1631 242.035 88.946 243.424 88.7203C244.814 88.4771 245.821 88.1384 246.446 87.7043C247.089 87.2527 247.41 86.6188 247.41 85.8025V85.6723C247.41 84.335 246.95 83.3016 246.029 82.5722C245.109 81.8427 243.867 81.478 242.304 81.478C240.619 81.478 239.265 81.8427 238.24 82.5722C237.215 83.3016 236.564 84.3089 236.286 85.5941L224.537 85.1773C224.884 82.7458 225.779 80.5749 227.22 78.6645C228.679 76.7367 230.676 75.2257 233.212 74.1316C235.765 73.0201 238.83 72.4643 242.408 72.4643C244.961 72.4643 247.314 72.7682 249.468 73.3761C251.622 73.9666 253.497 74.835 255.095 75.9812C256.693 77.1101 257.926 78.4995 258.794 80.1494C259.68 81.7993 260.123 83.6837 260.123 85.8025V113H248.139V107.425H247.827C247.115 108.78 246.203 109.926 245.091 110.864C243.997 111.802 242.703 112.505 241.21 112.974C239.734 113.443 238.066 113.677 236.208 113.677ZM240.142 105.341C241.514 105.341 242.747 105.063 243.841 104.507C244.952 103.952 245.838 103.187 246.498 102.215C247.158 101.225 247.488 100.079 247.488 98.776V94.9726C247.123 95.1636 246.681 95.3373 246.16 95.4936C245.656 95.6499 245.1 95.7975 244.492 95.9364C243.884 96.0754 243.259 96.197 242.617 96.3012C241.974 96.4054 241.357 96.5009 240.767 96.5877C239.569 96.7788 238.544 97.074 237.693 97.4735C236.859 97.8729 236.217 98.3939 235.765 99.0365C235.331 99.6618 235.114 100.409 235.114 101.277C235.114 102.597 235.583 103.604 236.521 104.299C237.476 104.994 238.683 105.341 240.142 105.341Z" fill="white"/>
<path d="M280.651 90.1791V113H267.912V72.9853H280.026V80.3318H280.469C281.355 77.8829 282.866 75.9638 285.002 74.5744C287.138 73.1677 289.682 72.4643 292.635 72.4643C295.448 72.4643 297.889 73.0982 299.955 74.366C302.039 75.6165 303.655 77.3706 304.801 79.6284C305.964 81.8688 306.538 84.4913 306.52 87.4958V113H293.781V89.9968C293.799 87.7737 293.234 86.037 292.088 84.7865C290.959 83.5361 289.387 82.9108 287.373 82.9108C286.035 82.9108 284.854 83.2061 283.83 83.7966C282.822 84.3697 282.041 85.1947 281.485 86.2714C280.947 87.3482 280.669 88.6508 280.651 90.1791Z" fill="white"/>
<path d="M329.022 113.573C326.069 113.573 323.386 112.809 320.972 111.281C318.558 109.752 316.63 107.46 315.189 104.403C313.747 101.346 313.027 97.5516 313.027 93.0187C313.027 88.3121 313.773 84.4392 315.267 81.3999C316.761 78.3606 318.714 76.1115 321.128 74.6526C323.56 73.1937 326.174 72.4643 328.97 72.4643C331.071 72.4643 332.869 72.829 334.362 73.5584C335.856 74.2705 337.089 75.191 338.062 76.3199C339.034 77.4488 339.772 78.6211 340.276 79.8368H340.537V59.6471H353.276V113H340.667V106.513H340.276C339.738 107.746 338.974 108.901 337.984 109.978C336.994 111.055 335.752 111.923 334.258 112.583C332.782 113.243 331.037 113.573 329.022 113.573ZM333.451 103.648C334.996 103.648 336.316 103.213 337.41 102.345C338.505 101.459 339.347 100.218 339.937 98.6197C340.528 97.0219 340.823 95.1462 340.823 92.9927C340.823 90.8044 340.528 88.92 339.937 87.3395C339.364 85.7591 338.522 84.5434 337.41 83.6924C336.316 82.8414 334.996 82.4159 333.451 82.4159C331.87 82.4159 330.533 82.85 329.439 83.7184C328.345 84.5868 327.511 85.8112 326.938 87.3916C326.382 88.9721 326.104 90.8391 326.104 92.9927C326.104 95.1462 326.391 97.0219 326.964 98.6197C327.537 100.218 328.362 101.459 329.439 102.345C330.533 103.213 331.87 103.648 333.451 103.648Z" fill="white"/>
<path d="M395.746 128.839C391.942 128.839 388.686 128.309 385.977 127.25C383.267 126.191 381.14 124.74 379.594 122.899C378.048 121.059 377.119 118.974 376.806 116.647L388.868 115.97C389.094 116.786 389.511 117.498 390.119 118.106C390.744 118.714 391.551 119.183 392.541 119.513C393.549 119.843 394.73 120.008 396.084 120.008C398.221 120.008 399.983 119.487 401.373 118.445C402.78 117.42 403.483 115.622 403.483 113.052V106.018H403.04C402.536 107.251 401.772 108.354 400.748 109.327C399.723 110.299 398.446 111.064 396.918 111.619C395.407 112.175 393.67 112.453 391.708 112.453C388.79 112.453 386.115 111.776 383.684 110.421C381.27 109.049 379.333 106.93 377.875 104.064C376.433 101.181 375.712 97.4735 375.712 92.9406C375.712 88.2687 376.459 84.4218 377.953 81.3999C379.446 78.3606 381.4 76.1115 383.814 74.6526C386.246 73.1937 388.859 72.4643 391.656 72.4643C393.757 72.4643 395.555 72.829 397.048 73.5584C398.559 74.2705 399.801 75.191 400.774 76.3199C401.746 77.4488 402.484 78.6211 402.988 79.8368H403.353V72.9853H416.04V113.156C416.04 116.543 415.189 119.4 413.487 121.727C411.785 124.054 409.405 125.817 406.349 127.016C403.292 128.231 399.758 128.839 395.746 128.839ZM396.136 103.179C397.682 103.179 399.002 102.771 400.096 101.954C401.19 101.138 402.033 99.9657 402.623 98.4374C403.214 96.909 403.509 95.0768 403.509 92.9406C403.509 90.7696 403.214 88.9026 402.623 87.3395C402.05 85.7591 401.208 84.5434 400.096 83.6924C399.002 82.8414 397.682 82.4159 396.136 82.4159C394.556 82.4159 393.219 82.85 392.125 83.7184C391.03 84.5868 390.197 85.8112 389.624 87.3916C389.068 88.9547 388.79 90.8044 388.79 92.9406C388.79 95.0768 389.077 96.909 389.65 98.4374C390.223 99.9657 391.048 101.138 392.125 101.954C393.219 102.771 394.556 103.179 396.136 103.179Z" fill="white"/>
<path d="M424.161 113V72.9853H436.9V113H424.161ZM430.544 68.3221C428.755 68.3221 427.218 67.7317 425.933 66.5507C424.647 65.3523 424.005 63.9108 424.005 62.2262C424.005 60.5589 424.647 59.1347 425.933 57.9538C427.218 56.7554 428.755 56.1562 430.544 56.1562C432.35 56.1562 433.887 56.7554 435.155 57.9538C436.44 59.1347 437.082 60.5589 437.082 62.2262C437.082 63.9108 436.44 65.3523 435.155 66.5507C433.887 67.7317 432.35 68.3221 430.544 68.3221Z" fill="white"/>
<path d="M467.751 72.9853V82.3638H442.013V72.9853H467.751ZM447.379 113V70.9533C447.379 67.8619 447.961 65.3002 449.125 63.2682C450.288 61.2188 451.903 59.6905 453.97 58.6832C456.037 57.6585 458.425 57.1462 461.134 57.1462C462.906 57.1462 464.573 57.2851 466.136 57.563C467.717 57.8235 468.889 58.058 469.653 58.2664L467.621 67.5927C467.152 67.4364 466.579 67.3061 465.902 67.2019C465.242 67.0977 464.616 67.0456 464.026 67.0456C462.532 67.0456 461.508 67.3756 460.952 68.0356C460.396 68.6955 460.118 69.5987 460.118 70.7449V113H447.379Z" fill="white"/>
<path d="M496.466 72.9853V82.3638H471.223V72.9853H496.466ZM476.511 63.3985H489.25V100.417C489.25 101.199 489.372 101.833 489.615 102.319C489.875 102.788 490.249 103.127 490.735 103.335C491.221 103.526 491.803 103.622 492.48 103.622C492.967 103.622 493.479 103.578 494.017 103.491C494.573 103.387 494.99 103.3 495.268 103.231L497.196 112.427C496.588 112.601 495.728 112.818 494.617 113.078C493.522 113.339 492.211 113.504 490.683 113.573C487.696 113.712 485.134 113.365 482.998 112.531C480.879 111.68 479.255 110.36 478.126 108.571C477.015 106.782 476.476 104.533 476.511 101.824V63.3985Z" fill="white"/>
<path d="M45.0375 217.006V161.985H57.6463V168.837H58.0371C58.5581 167.621 59.2962 166.449 60.2515 165.32C61.224 164.191 62.4571 163.271 63.9507 162.558C65.4617 161.829 67.2679 161.464 69.3694 161.464C72.1482 161.464 74.7446 162.194 77.1587 163.653C79.5902 165.111 81.5527 167.361 83.0463 170.4C84.5399 173.439 85.2867 177.312 85.2867 182.019C85.2867 186.552 84.5659 190.346 83.1244 193.403C81.7003 196.46 79.7725 198.752 77.3411 200.281C74.927 201.809 72.2437 202.573 69.2912 202.573C67.2766 202.573 65.5312 202.243 64.0549 201.583C62.5787 200.923 61.3369 200.055 60.3296 198.978C59.3397 197.901 58.5755 196.746 58.0371 195.513H57.7766V217.006H45.0375ZM57.5161 181.993C57.5161 184.146 57.8026 186.022 58.3758 187.62C58.9663 189.218 59.8086 190.459 60.9027 191.345C62.0143 192.213 63.3429 192.648 64.8886 192.648C66.4516 192.648 67.7803 192.213 68.8744 191.345C69.9686 190.459 70.7935 189.218 71.3493 187.62C71.9224 186.022 72.209 184.146 72.209 181.993C72.209 179.839 71.9224 177.972 71.3493 176.392C70.7935 174.811 69.9686 173.587 68.8744 172.718C67.7976 171.85 66.469 171.416 64.8886 171.416C63.3255 171.416 61.9969 171.841 60.9027 172.692C59.8086 173.543 58.9663 174.759 58.3758 176.34C57.8026 177.92 57.5161 179.804 57.5161 181.993Z" fill="white"/>
<path d="M104.701 179.179V202H91.9623V148.647H104.285V169.332H104.727C105.631 166.866 107.107 164.938 109.156 163.548C111.223 162.159 113.75 161.464 116.737 161.464C119.551 161.464 121.999 162.09 124.083 163.34C126.168 164.573 127.783 166.319 128.929 168.576C130.093 170.834 130.666 173.474 130.648 176.496V202H117.909V178.997C117.927 176.774 117.371 175.037 116.242 173.787C115.113 172.536 113.524 171.911 111.475 171.911C110.137 171.911 108.956 172.206 107.932 172.797C106.924 173.37 106.134 174.195 105.561 175.271C105.005 176.348 104.719 177.651 104.701 179.179Z" fill="white"/>
<path d="M157.279 202.755C153.076 202.755 149.464 201.896 146.442 200.176C143.437 198.44 141.119 196.026 139.486 192.934C137.871 189.825 137.063 186.222 137.063 182.123C137.063 178.007 137.871 174.403 139.486 171.312C141.119 168.203 143.437 165.789 146.442 164.069C149.464 162.333 153.076 161.464 157.279 161.464C161.482 161.464 165.086 162.333 168.091 164.069C171.112 165.789 173.431 168.203 175.046 171.312C176.679 174.403 177.495 178.007 177.495 182.123C177.495 186.222 176.679 189.825 175.046 192.934C173.431 196.026 171.112 198.44 168.091 200.176C165.086 201.896 161.482 202.755 157.279 202.755ZM157.357 193.143C158.886 193.143 160.18 192.674 161.239 191.736C162.298 190.798 163.106 189.495 163.662 187.828C164.235 186.161 164.521 184.233 164.521 182.045C164.521 179.822 164.235 177.877 163.662 176.209C163.106 174.542 162.298 173.239 161.239 172.302C160.18 171.364 158.886 170.895 157.357 170.895C155.777 170.895 154.44 171.364 153.346 172.302C152.269 173.239 151.444 174.542 150.871 176.209C150.315 177.877 150.037 179.822 150.037 182.045C150.037 184.233 150.315 186.161 150.871 187.828C151.444 189.495 152.269 190.798 153.346 191.736C154.44 192.674 155.777 193.143 157.357 193.143Z" fill="white"/>
<path d="M206.607 161.985V171.364H181.364V161.985H206.607ZM186.652 152.398H199.391V189.417C199.391 190.199 199.513 190.833 199.756 191.319C200.016 191.788 200.39 192.127 200.876 192.335C201.362 192.526 201.944 192.622 202.621 192.622C203.108 192.622 203.62 192.578 204.158 192.491C204.714 192.387 205.131 192.3 205.409 192.231L207.337 201.427C206.729 201.601 205.869 201.818 204.758 202.078C203.663 202.339 202.352 202.504 200.824 202.573C197.837 202.712 195.275 202.365 193.139 201.531C191.02 200.68 189.396 199.36 188.267 197.571C187.156 195.782 186.617 193.533 186.652 190.824V152.398Z" fill="white"/>
<path d="M231.356 202.755C227.153 202.755 223.541 201.896 220.519 200.176C217.514 198.44 215.195 196.026 213.563 192.934C211.948 189.825 211.14 186.222 211.14 182.123C211.14 178.007 211.948 174.403 213.563 171.312C215.195 168.203 217.514 165.789 220.519 164.069C223.541 162.333 227.153 161.464 231.356 161.464C235.559 161.464 239.163 162.333 242.167 164.069C245.189 165.789 247.508 168.203 249.123 171.312C250.755 174.403 251.572 178.007 251.572 182.123C251.572 186.222 250.755 189.825 249.123 192.934C247.508 196.026 245.189 198.44 242.167 200.176C239.163 201.896 235.559 202.755 231.356 202.755ZM231.434 193.143C232.962 193.143 234.256 192.674 235.316 191.736C236.375 190.798 237.183 189.495 237.738 187.828C238.312 186.161 238.598 184.233 238.598 182.045C238.598 179.822 238.312 177.877 237.738 176.209C237.183 174.542 236.375 173.239 235.316 172.302C234.256 171.364 232.962 170.895 231.434 170.895C229.854 170.895 228.516 171.364 227.422 172.302C226.345 173.239 225.52 174.542 224.947 176.209C224.392 177.877 224.114 179.822 224.114 182.045C224.114 184.233 224.392 186.161 224.947 187.828C225.52 189.495 226.345 190.798 227.422 191.736C228.516 192.674 229.854 193.143 231.434 193.143Z" fill="white"/>
<path d="M319.266 148.647V202H308.324L287.093 171.207H286.754V202H273.859V148.647H284.956L305.954 179.388H306.396V148.647H319.266Z" fill="white"/>
<path d="M327.374 202V148.647H363.794V159.12H340.27V170.061H361.475V180.56H340.27V202H327.374Z" fill="white"/>
<path d="M368.542 159.12V148.647H413.636V159.12H397.459V202H384.746V159.12H368.542Z" fill="white"/>
<path d="M449.424 174.203L437.727 174.516C437.606 173.682 437.276 172.944 436.737 172.302C436.199 171.642 435.496 171.129 434.627 170.765C433.776 170.382 432.786 170.191 431.657 170.191C430.181 170.191 428.922 170.487 427.88 171.077C426.855 171.668 426.352 172.467 426.369 173.474C426.352 174.255 426.664 174.933 427.307 175.506C427.967 176.079 429.139 176.539 430.824 176.887L438.535 178.345C442.529 179.11 445.499 180.377 447.444 182.149C449.407 183.92 450.397 186.265 450.414 189.183C450.397 191.927 449.581 194.315 447.965 196.347C446.368 198.379 444.179 199.959 441.4 201.088C438.622 202.2 435.443 202.755 431.866 202.755C426.152 202.755 421.645 201.583 418.345 199.239C415.063 196.877 413.187 193.716 412.718 189.756L425.301 189.443C425.579 190.902 426.299 192.014 427.463 192.778C428.627 193.542 430.112 193.924 431.918 193.924C433.55 193.924 434.879 193.62 435.904 193.012C436.928 192.404 437.449 191.597 437.467 190.59C437.449 189.686 437.05 188.966 436.268 188.427C435.487 187.872 434.262 187.437 432.595 187.125L425.613 185.796C421.602 185.067 418.614 183.721 416.652 181.758C414.689 179.778 413.717 177.26 413.734 174.203C413.717 171.529 414.429 169.245 415.87 167.352C417.312 165.441 419.361 163.983 422.018 162.975C424.676 161.968 427.81 161.464 431.423 161.464C436.842 161.464 441.114 162.602 444.24 164.877C447.366 167.135 449.094 170.244 449.424 174.203Z" fill="white"/>
<path d="M52.5142 291L42.0938 250.985H54.8849L60.2775 276.62H60.6162L66.3995 250.985H78.8781L84.8178 276.437H85.1564L90.3927 250.985H103.184L92.7373 291H79.1125L72.8603 267.684H72.4174L66.1651 291H52.5142Z" fill="white"/>
<path d="M108.296 291V250.985H121.035V291H108.296ZM114.679 246.322C112.89 246.322 111.353 245.732 110.068 244.551C108.783 243.352 108.14 241.911 108.14 240.226C108.14 238.559 108.783 237.135 110.068 235.954C111.353 234.755 112.89 234.156 114.679 234.156C116.485 234.156 118.022 234.755 119.29 235.954C120.575 237.135 121.218 238.559 121.218 240.226C121.218 241.911 120.575 243.352 119.29 244.551C118.022 245.732 116.485 246.322 114.679 246.322Z" fill="white"/>
<path d="M151.73 250.985V260.364H126.487V250.985H151.73ZM131.775 241.398H144.514V278.417C144.514 279.199 144.636 279.833 144.879 280.319C145.139 280.788 145.513 281.127 145.999 281.335C146.485 281.526 147.067 281.622 147.745 281.622C148.231 281.622 148.743 281.578 149.282 281.491C149.837 281.387 150.254 281.3 150.532 281.231L152.46 290.427C151.852 290.601 150.992 290.818 149.881 291.078C148.787 291.339 147.475 291.504 145.947 291.573C142.96 291.712 140.398 291.365 138.262 290.531C136.143 289.68 134.519 288.36 133.39 286.571C132.279 284.782 131.74 282.533 131.775 279.824V241.398Z" fill="white"/>
<path d="M171.829 268.179V291H159.09V237.647H171.412V258.332H171.855C172.758 255.866 174.234 253.938 176.284 252.548C178.35 251.159 180.877 250.464 183.865 250.464C186.678 250.464 189.127 251.09 191.211 252.34C193.295 253.573 194.91 255.319 196.057 257.576C197.22 259.834 197.793 262.474 197.776 265.496V291H185.037V267.997C185.054 265.774 184.498 264.037 183.37 262.787C182.241 261.536 180.652 260.911 178.602 260.911C177.265 260.911 176.084 261.206 175.059 261.797C174.052 262.37 173.262 263.195 172.689 264.271C172.133 265.348 171.846 266.651 171.829 268.179Z" fill="white"/>
<path d="M240.168 291.755C235.965 291.755 232.352 290.896 229.33 289.176C226.326 287.44 224.007 285.026 222.375 281.934C220.76 278.825 219.952 275.222 219.952 271.123C219.952 267.007 220.76 263.403 222.375 260.312C224.007 257.203 226.326 254.789 229.33 253.069C232.352 251.333 235.965 250.464 240.168 250.464C244.371 250.464 247.974 251.333 250.979 253.069C254.001 254.789 256.32 257.203 257.935 260.312C259.567 263.403 260.384 267.007 260.384 271.123C260.384 275.222 259.567 278.825 257.935 281.934C256.32 285.026 254.001 287.44 250.979 289.176C247.974 290.896 244.371 291.755 240.168 291.755ZM240.246 282.143C241.774 282.143 243.068 281.674 244.128 280.736C245.187 279.798 245.995 278.495 246.55 276.828C247.123 275.161 247.41 273.233 247.41 271.045C247.41 268.822 247.123 266.877 246.55 265.209C245.995 263.542 245.187 262.239 244.128 261.302C243.068 260.364 241.774 259.895 240.246 259.895C238.665 259.895 237.328 260.364 236.234 261.302C235.157 262.239 234.332 263.542 233.759 265.209C233.203 266.877 232.926 268.822 232.926 271.045C232.926 273.233 233.203 275.161 233.759 276.828C234.332 278.495 235.157 279.798 236.234 280.736C237.328 281.674 238.665 282.143 240.246 282.143Z" fill="white"/>
<path d="M279.648 268.179V291H266.909V250.985H279.023V258.332H279.466C280.352 255.883 281.863 253.964 283.999 252.574C286.135 251.168 288.679 250.464 291.632 250.464C294.445 250.464 296.886 251.098 298.952 252.366C301.036 253.616 302.652 255.371 303.798 257.628C304.961 259.869 305.535 262.491 305.517 265.496V291H292.778V267.997C292.796 265.774 292.231 264.037 291.085 262.787C289.956 261.536 288.384 260.911 286.37 260.911C285.032 260.911 283.851 261.206 282.827 261.797C281.819 262.37 281.038 263.195 280.482 264.271C279.944 265.348 279.666 266.651 279.648 268.179Z" fill="white"/>
<path d="M332.109 291.755C327.923 291.755 324.311 290.931 321.272 289.281C318.25 287.613 315.923 285.243 314.29 282.169C312.675 279.077 311.867 275.404 311.867 271.149C311.867 267.015 312.684 263.403 314.316 260.312C315.949 257.203 318.25 254.789 321.22 253.069C324.189 251.333 327.689 250.464 331.718 250.464C334.567 250.464 337.172 250.907 339.534 251.793C341.896 252.679 343.936 253.99 345.656 255.727C347.375 257.463 348.712 259.608 349.668 262.161C350.623 264.697 351.1 267.606 351.1 270.888V274.067H316.322V266.668H339.247C339.23 265.313 338.908 264.106 338.283 263.047C337.658 261.988 336.798 261.163 335.704 260.572C334.627 259.964 333.386 259.66 331.979 259.66C330.555 259.66 329.278 259.982 328.149 260.624C327.02 261.249 326.126 262.109 325.466 263.203C324.806 264.28 324.459 265.505 324.424 266.877V274.405C324.424 276.038 324.745 277.471 325.388 278.704C326.03 279.92 326.942 280.866 328.123 281.543C329.304 282.221 330.711 282.559 332.344 282.559C333.472 282.559 334.497 282.403 335.418 282.09C336.338 281.778 337.128 281.318 337.788 280.71C338.448 280.102 338.943 279.355 339.273 278.469L350.97 278.808C350.484 281.431 349.416 283.714 347.766 285.66C346.133 287.587 343.988 289.09 341.331 290.166C338.674 291.226 335.6 291.755 332.109 291.755Z" fill="white"/>
<path d="M392.046 291.755C387.826 291.755 384.205 290.887 381.183 289.15C378.178 287.414 375.869 285 374.253 281.908C372.638 278.799 371.831 275.204 371.831 271.123C371.831 267.024 372.638 263.429 374.253 260.338C375.886 257.229 378.205 254.806 381.209 253.069C384.231 251.333 387.835 250.464 392.02 250.464C395.72 250.464 398.941 251.133 401.685 252.47C404.447 253.808 406.6 255.701 408.146 258.149C409.709 260.581 410.534 263.438 410.621 266.72H398.716C398.472 264.671 397.778 263.064 396.631 261.901C395.503 260.737 394.026 260.155 392.203 260.155C390.727 260.155 389.433 260.572 388.321 261.406C387.21 262.222 386.341 263.438 385.716 265.053C385.108 266.651 384.804 268.631 384.804 270.993C384.804 273.355 385.108 275.352 385.716 276.984C386.341 278.6 387.21 279.824 388.321 280.658C389.433 281.474 390.727 281.882 392.203 281.882C393.384 281.882 394.426 281.63 395.329 281.127C396.249 280.623 397.005 279.885 397.595 278.912C398.186 277.922 398.559 276.724 398.716 275.317H410.621C410.499 278.617 409.674 281.5 408.146 283.966C406.635 286.432 404.508 288.351 401.764 289.723C399.037 291.078 395.798 291.755 392.046 291.755Z" fill="white"/>
<path d="M429.879 237.647V291H417.14V237.647H429.879Z" fill="white"/>
<path d="M437.988 291V250.985H450.727V291H437.988ZM444.37 246.322C442.581 246.322 441.044 245.732 439.759 244.551C438.474 243.352 437.831 241.911 437.831 240.226C437.831 238.559 438.474 237.135 439.759 235.954C441.044 234.755 442.581 234.156 444.37 234.156C446.177 234.156 447.714 234.755 448.981 235.954C450.267 237.135 450.909 238.559 450.909 240.226C450.909 241.911 450.267 243.352 448.981 244.551C447.714 245.732 446.177 246.322 444.37 246.322Z" fill="white"/>
<path d="M477.514 291.755C473.294 291.755 469.673 290.887 466.651 289.15C463.646 287.414 461.336 285 459.721 281.908C458.106 278.799 457.298 275.204 457.298 271.123C457.298 267.024 458.106 263.429 459.721 260.338C461.354 257.229 463.672 254.806 466.677 253.069C469.699 251.333 473.302 250.464 477.488 250.464C481.187 250.464 484.409 251.133 487.153 252.47C489.914 253.808 492.068 255.701 493.614 258.149C495.177 260.581 496.002 263.438 496.089 266.72H484.183C483.94 264.671 483.245 263.064 482.099 261.901C480.97 260.737 479.494 260.155 477.67 260.155C476.194 260.155 474.9 260.572 473.789 261.406C472.677 262.222 471.809 263.438 471.184 265.053C470.576 266.651 470.272 268.631 470.272 270.993C470.272 273.355 470.576 275.352 471.184 276.984C471.809 278.6 472.677 279.824 473.789 280.658C474.9 281.474 476.194 281.882 477.67 281.882C478.851 281.882 479.893 281.63 480.796 281.127C481.717 280.623 482.472 279.885 483.063 278.912C483.653 277.922 484.027 276.724 484.183 275.317H496.089C495.967 278.617 495.142 281.5 493.614 283.966C492.103 286.432 489.975 288.351 487.231 289.723C484.504 291.078 481.265 291.755 477.514 291.755Z" fill="white"/>
<path d="M514.096 280.501L514.149 265.313H515.92L527.174 250.985H541.607L524.882 271.514H521.521L514.096 280.501ZM502.608 291V237.647H515.347V291H502.608ZM527.461 291L516.988 274.379L525.377 265.34L542.18 291H527.461Z" fill="white"/>
</g>
<defs>
<filter id="filter0_d_1114_5847" x="-4" y="0" width="607" height="347" filterUnits="userSpaceOnUse" color-interpolation-filters="sRGB">
<feFlood flood-opacity="0" result="BackgroundImageFix"/>
<feColorMatrix in="SourceAlpha" type="matrix" values="0 0 0 0 0 0 0 0 0 0 0 0 0 0 0 0 0 0 127 0" result="hardAlpha"/>
<feOffset dy="4"/>
<feGaussianBlur stdDeviation="2"/>
<feComposite in2="hardAlpha" operator="out"/>
<feColorMatrix type="matrix" values="0 0 0 0 0 0 0 0 0 0 0 0 0 0 0 0 0 0 0.25 0"/>
<feBlend mode="normal" in2="BackgroundImageFix" result="effect1_dropShadow_1114_5847"/>
<feBlend mode="normal" in="SourceGraphic" in2="effect1_dropShadow_1114_5847" result="shape"/>
</filter>
</defs>
</svg>
