<svg width="599" height="339" viewBox="0 0 599 339" fill="none" xmlns="http://www.w3.org/2000/svg">
<g filter="url(#filter0_d_1114_5844)">
<path d="M33.207 79.6673V71.7857H70.3411V79.6673H56.4986V117H47.0495V79.6673H33.207Z" fill="white"/>
<path d="M85.6848 97.3954V117H76.2799V71.7857H85.4199V89.0722H85.8173C86.5826 87.0705 87.8189 85.503 89.5263 84.3697C91.2336 83.2217 93.3751 82.6477 95.9508 82.6477C98.3057 82.6477 100.359 83.1628 102.11 84.1931C103.877 85.2087 105.245 86.6731 106.217 88.5865C107.203 90.4852 107.689 92.7591 107.674 95.4084V117H98.2689V97.0863C98.2836 94.9963 97.7537 93.3699 96.6793 92.2072C95.6196 91.0444 94.1331 90.4631 92.2197 90.4631C90.9392 90.4631 89.8059 90.7354 88.8198 91.2799C87.8484 91.8245 87.083 92.6193 86.5237 93.6643C85.9792 94.6946 85.6995 95.9382 85.6848 97.3954Z" fill="white"/>
<path d="M130.529 117.662C127.041 117.662 124.039 116.956 121.522 115.543C119.02 114.115 117.092 112.099 115.738 109.494C114.383 106.874 113.706 103.776 113.706 100.199C113.706 96.711 114.383 93.6496 115.738 91.015C117.092 88.3804 118.998 86.3273 121.456 84.8554C123.928 83.3836 126.828 82.6477 130.154 82.6477C132.391 82.6477 134.474 83.0083 136.402 83.7295C138.345 84.436 140.037 85.503 141.48 86.9307C142.937 88.3584 144.07 90.154 144.88 92.3176C145.689 94.4664 146.094 96.9832 146.094 99.868V102.451H117.46V96.6226H137.241C137.241 95.2686 136.946 94.069 136.358 93.024C135.769 91.979 134.952 91.1622 133.907 90.5735C132.877 89.97 131.677 89.6683 130.309 89.6683C128.881 89.6683 127.615 89.9995 126.511 90.6618C125.422 91.3094 124.568 92.1851 123.95 93.289C123.332 94.3781 123.016 95.5924 123.001 96.9317V102.473C123.001 104.151 123.31 105.601 123.928 106.822C124.561 108.044 125.452 108.986 126.6 109.648C127.748 110.311 129.109 110.642 130.684 110.642C131.729 110.642 132.686 110.495 133.554 110.2C134.422 109.906 135.166 109.464 135.784 108.876C136.402 108.287 136.873 107.566 137.197 106.712L145.895 107.286C145.454 109.376 144.548 111.201 143.18 112.761C141.826 114.307 140.074 115.513 137.925 116.382C135.791 117.235 133.326 117.662 130.529 117.662Z" fill="white"/>
<path d="M173.31 117L164.081 83.0893H173.597L178.851 105.873H179.16L184.635 83.0893H193.974L199.537 105.741H199.824L204.991 83.0893H214.484L205.278 117H195.321L189.492 95.6733H189.073L183.244 117H173.31Z" fill="white"/>
<path d="M233.973 117.662C230.543 117.662 227.578 116.934 225.075 115.477C222.588 114.005 220.667 111.959 219.313 109.339C217.959 106.705 217.282 103.651 217.282 100.177C217.282 96.6742 217.959 93.6128 219.313 90.9929C220.667 88.3584 222.588 86.3125 225.075 84.8554C227.578 83.3836 230.543 82.6477 233.973 82.6477C237.402 82.6477 240.36 83.3836 242.848 84.8554C245.35 86.3125 247.278 88.3584 248.632 90.9929C249.986 93.6128 250.663 96.6742 250.663 100.177C250.663 103.651 249.986 106.705 248.632 109.339C247.278 111.959 245.35 114.005 242.848 115.477C240.36 116.934 237.402 117.662 233.973 117.662ZM234.017 110.377C235.577 110.377 236.879 109.935 237.924 109.052C238.969 108.154 239.757 106.933 240.287 105.387C240.831 103.842 241.104 102.083 241.104 100.111C241.104 98.1386 240.831 96.3798 240.287 94.8344C239.757 93.289 238.969 92.0674 237.924 91.1695C236.879 90.2717 235.577 89.8228 234.017 89.8228C232.442 89.8228 231.117 90.2717 230.043 91.1695C228.983 92.0674 228.181 93.289 227.636 94.8344C227.107 96.3798 226.842 98.1386 226.842 100.111C226.842 102.083 227.107 103.842 227.636 105.387C228.181 106.933 228.983 108.154 230.043 109.052C231.117 109.935 232.442 110.377 234.017 110.377Z" fill="white"/>
<path d="M256.778 117V83.0893H265.896V89.006H266.25C266.868 86.9013 267.905 85.3117 269.363 84.2373C270.82 83.1481 272.497 82.6036 274.396 82.6036C274.867 82.6036 275.375 82.633 275.919 82.6919C276.464 82.7507 276.942 82.8317 277.354 82.9347V91.2799C276.913 91.1475 276.302 91.0297 275.522 90.9267C274.742 90.8237 274.028 90.7722 273.381 90.7722C271.997 90.7722 270.761 91.0739 269.672 91.6773C268.597 92.2661 267.744 93.0903 267.111 94.15C266.492 95.2097 266.183 96.4313 266.183 97.8148V117H256.778Z" fill="white"/>
<path d="M291.622 71.7857V117H282.217V71.7857H291.622Z" fill="white"/>
<path d="M311.652 117.552C309.076 117.552 306.743 116.89 304.653 115.565C302.578 114.226 300.929 112.261 299.708 109.67C298.501 107.065 297.897 103.871 297.897 100.089C297.897 96.2032 298.523 92.9725 299.774 90.3968C301.025 87.8064 302.688 85.871 304.763 84.5905C306.853 83.2953 309.142 82.6477 311.63 82.6477C313.528 82.6477 315.11 82.9715 316.376 83.6191C317.657 84.252 318.687 85.0468 319.467 86.0035C320.262 86.9454 320.865 87.8727 321.277 88.7852H321.564V71.7857H330.947V117H321.675V111.569H321.277C320.836 112.511 320.21 113.446 319.401 114.373C318.606 115.285 317.568 116.043 316.288 116.647C315.022 117.25 313.477 117.552 311.652 117.552ZM314.632 110.068C316.148 110.068 317.429 109.656 318.474 108.831C319.533 107.992 320.343 106.822 320.902 105.321C321.476 103.82 321.763 102.061 321.763 100.045C321.763 98.0282 321.483 96.2768 320.924 94.7902C320.365 93.3037 319.555 92.1557 318.496 91.3462C317.436 90.5367 316.148 90.1319 314.632 90.1319C313.087 90.1319 311.784 90.5514 310.724 91.3903C309.665 92.2293 308.863 93.392 308.318 94.8785C307.773 96.3651 307.501 98.0871 307.501 100.045C307.501 102.017 307.773 103.761 308.318 105.277C308.877 106.778 309.679 107.956 310.724 108.809C311.784 109.648 313.087 110.068 314.632 110.068Z" fill="white"/>
<path d="M344.729 71.7857V88.9618H338.017V71.7857H344.729Z" fill="white"/>
<path d="M379.887 92.7591L371.277 93.289C371.13 92.5531 370.813 91.8907 370.328 91.302C369.842 90.6986 369.202 90.2202 368.407 89.867C367.627 89.499 366.692 89.3151 365.603 89.3151C364.146 89.3151 362.917 89.6241 361.916 90.2423C360.915 90.8457 360.415 91.6553 360.415 92.6708C360.415 93.4803 360.739 94.1647 361.386 94.724C362.034 95.2833 363.145 95.7322 364.72 96.0707L370.857 97.307C374.154 97.9841 376.612 99.0732 378.231 100.574C379.85 102.076 380.66 104.048 380.66 106.491C380.66 108.714 380.005 110.664 378.695 112.342C377.4 114.02 375.619 115.329 373.352 116.271C371.1 117.199 368.503 117.662 365.559 117.662C361.07 117.662 357.493 116.728 354.829 114.859C352.18 112.975 350.627 110.414 350.171 107.176L359.421 106.69C359.701 108.059 360.378 109.104 361.452 109.825C362.527 110.531 363.903 110.885 365.581 110.885C367.229 110.885 368.554 110.568 369.555 109.935C370.57 109.288 371.086 108.456 371.1 107.441C371.086 106.587 370.725 105.888 370.018 105.343C369.312 104.784 368.223 104.357 366.751 104.063L360.878 102.893C357.567 102.23 355.102 101.082 353.483 99.4485C351.878 97.8148 351.076 95.7322 351.076 93.2007C351.076 91.0224 351.665 89.1458 352.842 87.5709C354.035 85.9961 355.705 84.7818 357.854 83.9282C360.017 83.0745 362.549 82.6477 365.448 82.6477C369.731 82.6477 373.102 83.5529 375.56 85.3632C378.033 87.1736 379.475 89.6389 379.887 92.7591Z" fill="white"/>
<path d="M419.207 83.0893V90.154H398.277V83.0893H419.207ZM403.068 117V80.6387C403.068 78.1807 403.547 76.1423 404.503 74.5233C405.475 72.9043 406.799 71.69 408.477 70.8805C410.155 70.071 412.061 69.6662 414.195 69.6662C415.638 69.6662 416.955 69.7766 418.147 69.9974C419.354 70.2182 420.252 70.4169 420.84 70.5935L419.163 77.6582C418.795 77.5405 418.338 77.4301 417.794 77.3271C417.264 77.224 416.719 77.1725 416.16 77.1725C414.777 77.1725 413.813 77.4963 413.268 78.1439C412.723 78.7768 412.451 79.6673 412.451 80.8153V117H403.068Z" fill="white"/>
<path d="M424.952 117V83.0893H434.357V117H424.952ZM429.677 78.7179C428.279 78.7179 427.079 78.2543 426.078 77.3271C425.092 76.3851 424.599 75.2592 424.599 73.9492C424.599 72.654 425.092 71.5428 426.078 70.6156C427.079 69.6736 428.279 69.2026 429.677 69.2026C431.075 69.2026 432.267 69.6736 433.253 70.6156C434.254 71.5428 434.755 72.654 434.755 73.9492C434.755 75.2592 434.254 76.3851 433.253 77.3271C432.267 78.2543 431.075 78.7179 429.677 78.7179Z" fill="white"/>
<path d="M441.891 117V83.0893H451.009V89.006H451.362C451.98 86.9013 453.018 85.3117 454.475 84.2373C455.932 83.1481 457.61 82.6036 459.509 82.6036C459.98 82.6036 460.488 82.633 461.032 82.6919C461.577 82.7507 462.055 82.8317 462.467 82.9347V91.2799C462.026 91.1475 461.415 91.0297 460.635 90.9267C459.855 90.8237 459.141 90.7722 458.493 90.7722C457.11 90.7722 455.873 91.0739 454.784 91.6773C453.71 92.2661 452.856 93.0903 452.223 94.15C451.605 95.2097 451.296 96.4313 451.296 97.8148V117H441.891Z" fill="white"/>
<path d="M495.545 92.7591L486.934 93.289C486.787 92.5531 486.471 91.8907 485.985 91.302C485.499 90.6986 484.859 90.2202 484.064 89.867C483.284 89.499 482.35 89.3151 481.261 89.3151C479.803 89.3151 478.574 89.6241 477.574 90.2423C476.573 90.8457 476.072 91.6553 476.072 92.6708C476.072 93.4803 476.396 94.1647 477.044 94.724C477.691 95.2833 478.803 95.7322 480.377 96.0707L486.515 97.307C489.812 97.9841 492.27 99.0732 493.889 100.574C495.508 102.076 496.317 104.048 496.317 106.491C496.317 108.714 495.662 110.664 494.352 112.342C493.057 114.02 491.276 115.329 489.01 116.271C486.758 117.199 484.16 117.662 481.216 117.662C476.727 117.662 473.151 116.728 470.487 114.859C467.838 112.975 466.285 110.414 465.829 107.176L475.079 106.69C475.359 108.059 476.036 109.104 477.11 109.825C478.184 110.531 479.561 110.885 481.238 110.885C482.887 110.885 484.212 110.568 485.212 109.935C486.228 109.288 486.743 108.456 486.758 107.441C486.743 106.587 486.383 105.888 485.676 105.343C484.97 104.784 483.88 104.357 482.409 104.063L476.536 102.893C473.224 102.23 470.759 101.082 469.14 99.4485C467.536 97.8148 466.734 95.7322 466.734 93.2007C466.734 91.0224 467.322 89.1458 468.5 87.5709C469.692 85.9961 471.363 84.7818 473.511 83.9282C475.675 83.0745 478.207 82.6477 481.106 82.6477C485.389 82.6477 488.759 83.5529 491.217 85.3632C493.69 87.1736 495.132 89.6389 495.545 92.7591Z" fill="white"/>
<path d="M520.277 83.0893V90.154H499.855V83.0893H520.277ZM504.491 74.9648H513.896V106.58C513.896 107.448 514.029 108.125 514.294 108.611C514.559 109.082 514.927 109.413 515.398 109.604C515.883 109.795 516.443 109.891 517.075 109.891C517.517 109.891 517.959 109.854 518.4 109.781C518.842 109.692 519.18 109.626 519.416 109.582L520.895 116.581C520.424 116.728 519.762 116.897 518.908 117.088C518.054 117.294 517.017 117.419 515.795 117.464C513.528 117.552 511.541 117.25 509.834 116.558C508.142 115.867 506.824 114.792 505.882 113.335C504.94 111.878 504.477 110.038 504.491 107.816V74.9648Z" fill="white"/>
<path d="M34.9291 192V146.786H44.334V163.785H44.621C45.0331 162.873 45.6292 161.945 46.4093 161.003C47.204 160.047 48.2343 159.252 49.5001 158.619C50.7806 157.972 52.3701 157.648 54.2688 157.648C56.7414 157.648 59.0228 158.295 61.1128 159.591C63.2027 160.871 64.8733 162.806 66.1243 165.397C67.3754 167.973 68.0009 171.203 68.0009 175.089C68.0009 178.871 67.3901 182.065 66.1685 184.67C64.9616 187.261 63.3131 189.226 61.2231 190.565C59.1479 191.89 56.8224 192.552 54.2467 192.552C52.4217 192.552 50.8689 192.25 49.5884 191.647C48.3226 191.043 47.285 190.285 46.4755 189.373C45.666 188.446 45.0478 187.511 44.621 186.569H44.2015V192H34.9291ZM44.1353 175.045C44.1353 177.061 44.4149 178.82 44.9742 180.321C45.5335 181.822 46.343 182.992 47.4027 183.831C48.4625 184.656 49.7503 185.068 51.2663 185.068C52.797 185.068 54.0922 184.648 55.1519 183.809C56.2116 182.956 57.0137 181.778 57.5583 180.277C58.1176 178.761 58.3972 177.017 58.3972 175.045C58.3972 173.087 58.125 171.365 57.5804 169.879C57.0358 168.392 56.2337 167.229 55.174 166.39C54.1142 165.551 52.8117 165.132 51.2663 165.132C49.7356 165.132 48.4404 165.537 47.3807 166.346C46.3357 167.156 45.5335 168.304 44.9742 169.79C44.4149 171.277 44.1353 173.028 44.1353 175.045Z" fill="white"/>
<path d="M83.6813 146.786V192H74.2764V146.786H83.6813Z" fill="white"/>
<path d="M106.537 192.662C103.107 192.662 100.142 191.934 97.6397 190.477C95.1523 189.005 93.2316 186.959 91.8775 184.339C90.5234 181.705 89.8464 178.651 89.8464 175.177C89.8464 171.674 90.5234 168.613 91.8775 165.993C93.2316 163.358 95.1523 161.313 97.6397 159.855C100.142 158.384 103.107 157.648 106.537 157.648C109.966 157.648 112.925 158.384 115.412 159.855C117.914 161.313 119.842 163.358 121.196 165.993C122.55 168.613 123.227 171.674 123.227 175.177C123.227 178.651 122.55 181.705 121.196 184.339C119.842 186.959 117.914 189.005 115.412 190.477C112.925 191.934 109.966 192.662 106.537 192.662ZM106.581 185.377C108.141 185.377 109.444 184.935 110.489 184.052C111.534 183.154 112.321 181.933 112.851 180.387C113.396 178.842 113.668 177.083 113.668 175.111C113.668 173.139 113.396 171.38 112.851 169.834C112.321 168.289 111.534 167.067 110.489 166.17C109.444 165.272 108.141 164.823 106.581 164.823C105.006 164.823 103.681 165.272 102.607 166.17C101.547 167.067 100.745 168.289 100.201 169.834C99.6708 171.38 99.4058 173.139 99.4058 175.111C99.4058 177.083 99.6708 178.842 100.201 180.387C100.745 181.933 101.547 183.154 102.607 184.052C103.681 184.935 105.006 185.377 106.581 185.377Z" fill="white"/>
<path d="M144.664 192.662C141.191 192.662 138.203 191.926 135.701 190.455C133.214 188.968 131.3 186.908 129.961 184.273C128.636 181.638 127.974 178.606 127.974 175.177C127.974 171.704 128.644 168.657 129.983 166.037C131.337 163.403 133.258 161.349 135.745 159.878C138.232 158.391 141.191 157.648 144.62 157.648C147.579 157.648 150.169 158.185 152.391 159.259C154.614 160.334 156.373 161.842 157.668 163.785C158.963 165.728 159.677 168.009 159.809 170.629H150.934C150.684 168.937 150.022 167.575 148.947 166.545C147.888 165.5 146.497 164.977 144.775 164.977C143.318 164.977 142.044 165.375 140.955 166.17C139.881 166.95 139.042 168.09 138.439 169.592C137.835 171.093 137.533 172.91 137.533 175.045C137.533 177.208 137.828 179.048 138.416 180.564C139.02 182.08 139.866 183.235 140.955 184.03C142.044 184.825 143.318 185.222 144.775 185.222C145.849 185.222 146.813 185.001 147.667 184.56C148.535 184.118 149.249 183.478 149.808 182.639C150.382 181.786 150.758 180.763 150.934 179.57H159.809C159.662 182.161 158.956 184.442 157.69 186.414C156.439 188.372 154.71 189.903 152.502 191.007C150.294 192.11 147.682 192.662 144.664 192.662Z" fill="white"/>
<path d="M174.353 182.242L174.375 170.96H175.744L186.606 158.089H197.402L182.808 175.133H180.579L174.353 182.242ZM165.831 192V146.786H175.236V192H165.831ZM187.025 192L177.046 177.23L183.316 170.585L198.042 192H187.025Z" fill="white"/>
<path d="M215.941 192.662C212.467 192.662 209.48 191.926 206.978 190.455C204.49 188.968 202.577 186.908 201.237 184.273C199.913 181.638 199.25 178.606 199.25 175.177C199.25 171.704 199.92 168.657 201.26 166.037C202.614 163.403 204.534 161.349 207.022 159.878C209.509 158.391 212.467 157.648 215.897 157.648C218.855 157.648 221.446 158.185 223.668 159.259C225.89 160.334 227.649 161.842 228.944 163.785C230.24 165.728 230.954 168.009 231.086 170.629H222.211C221.961 168.937 221.298 167.575 220.224 166.545C219.164 165.5 217.773 164.977 216.051 164.977C214.594 164.977 213.321 165.375 212.232 166.17C211.158 166.95 210.319 168.09 209.715 169.592C209.112 171.093 208.81 172.91 208.81 175.045C208.81 177.208 209.104 179.048 209.693 180.564C210.296 182.08 211.143 183.235 212.232 184.03C213.321 184.825 214.594 185.222 216.051 185.222C217.126 185.222 218.09 185.001 218.943 184.56C219.812 184.118 220.526 183.478 221.085 182.639C221.659 181.786 222.034 180.763 222.211 179.57H231.086C230.939 182.161 230.232 184.442 228.967 186.414C227.715 188.372 225.986 189.903 223.778 191.007C221.571 192.11 218.958 192.662 215.941 192.662Z" fill="white"/>
<path d="M246.512 172.395V192H237.108V146.786H246.248V164.072H246.645C247.41 162.071 248.647 160.503 250.354 159.37C252.061 158.222 254.203 157.648 256.778 157.648C259.133 157.648 261.187 158.163 262.938 159.193C264.704 160.209 266.073 161.673 267.044 163.587C268.031 165.485 268.516 167.759 268.501 170.408V192H259.097V172.086C259.111 169.996 258.581 168.37 257.507 167.207C256.447 166.044 254.961 165.463 253.047 165.463C251.767 165.463 250.634 165.735 249.647 166.28C248.676 166.825 247.911 167.619 247.351 168.664C246.807 169.695 246.527 170.938 246.512 172.395Z" fill="white"/>
<path d="M285.573 192.64C283.409 192.64 281.481 192.265 279.789 191.514C278.096 190.749 276.757 189.623 275.77 188.136C274.799 186.635 274.313 184.766 274.313 182.529C274.313 180.645 274.659 179.063 275.351 177.782C276.043 176.502 276.985 175.471 278.177 174.691C279.369 173.911 280.723 173.323 282.239 172.925C283.77 172.528 285.374 172.248 287.052 172.086C289.024 171.88 290.614 171.689 291.821 171.512C293.028 171.321 293.903 171.041 294.448 170.673C294.992 170.305 295.265 169.761 295.265 169.04V168.907C295.265 167.509 294.823 166.427 293.94 165.662C293.072 164.896 291.835 164.514 290.231 164.514C288.539 164.514 287.192 164.889 286.191 165.64C285.19 166.376 284.528 167.303 284.204 168.421L275.506 167.715C275.947 165.654 276.815 163.874 278.111 162.372C279.406 160.856 281.076 159.694 283.122 158.884C285.183 158.06 287.567 157.648 290.275 157.648C292.159 157.648 293.962 157.868 295.684 158.31C297.421 158.752 298.959 159.436 300.298 160.363C301.652 161.29 302.72 162.483 303.5 163.94C304.28 165.382 304.67 167.112 304.67 169.128V192H295.75V187.298H295.486C294.941 188.357 294.212 189.292 293.3 190.101C292.387 190.896 291.291 191.522 290.01 191.978C288.73 192.419 287.251 192.64 285.573 192.64ZM288.266 186.15C289.65 186.15 290.871 185.877 291.931 185.333C292.991 184.773 293.822 184.023 294.426 183.081C295.029 182.139 295.331 181.072 295.331 179.88V176.281C295.037 176.472 294.632 176.649 294.117 176.811C293.616 176.958 293.05 177.098 292.417 177.23C291.784 177.348 291.151 177.458 290.518 177.561C289.885 177.65 289.311 177.731 288.796 177.804C287.692 177.966 286.728 178.224 285.904 178.577C285.08 178.93 284.439 179.409 283.983 180.012C283.527 180.601 283.299 181.337 283.299 182.22C283.299 183.5 283.762 184.479 284.69 185.156C285.632 185.818 286.824 186.15 288.266 186.15Z" fill="white"/>
<path d="M311.966 192V158.089H321.371V192H311.966ZM316.691 153.718C315.293 153.718 314.093 153.254 313.092 152.327C312.106 151.385 311.613 150.259 311.613 148.949C311.613 147.654 312.106 146.543 313.092 145.616C314.093 144.674 315.293 144.203 316.691 144.203C318.089 144.203 319.281 144.674 320.267 145.616C321.268 146.543 321.769 147.654 321.769 148.949C321.769 150.259 321.268 151.385 320.267 152.327C319.281 153.254 318.089 153.718 316.691 153.718Z" fill="white"/>
<path d="M338.31 172.395V192H328.905V158.089H337.868V164.072H338.266C339.016 162.1 340.275 160.54 342.041 159.392C343.807 158.229 345.949 157.648 348.466 157.648C350.82 157.648 352.874 158.163 354.625 159.193C356.377 160.223 357.738 161.695 358.709 163.609C359.681 165.507 360.167 167.774 360.167 170.408V192H350.762V172.086C350.776 170.011 350.246 168.392 349.172 167.229C348.098 166.052 346.618 165.463 344.734 165.463C343.469 165.463 342.35 165.735 341.379 166.28C340.422 166.825 339.671 167.619 339.127 168.664C338.597 169.695 338.325 170.938 338.31 172.395Z" fill="white"/>
<path d="M50.0741 267.662C46.6006 267.662 43.6128 266.926 41.1107 265.455C38.6233 263.968 36.71 261.907 35.3706 259.273C34.046 256.638 33.3836 253.606 33.3836 250.177C33.3836 246.704 34.0533 243.657 35.3927 241.037C36.7468 238.403 38.6675 236.349 41.1549 234.878C43.6422 233.391 46.6006 232.648 50.0299 232.648C52.9883 232.648 55.5787 233.185 57.8012 234.259C60.0236 235.334 61.7824 236.842 63.0776 238.785C64.3728 240.728 65.0867 243.009 65.2191 245.629H56.3441C56.0938 243.937 55.4315 242.575 54.3571 241.545C53.2974 240.5 51.9065 239.977 50.1845 239.977C48.7274 239.977 47.4543 240.375 46.3651 241.17C45.2907 241.95 44.4517 243.09 43.8483 244.592C43.2448 246.093 42.9431 247.91 42.9431 250.045C42.9431 252.208 43.2375 254.048 43.8262 255.564C44.4297 257.08 45.276 258.235 46.3651 259.03C47.4543 259.825 48.7274 260.222 50.1845 260.222C51.2589 260.222 52.223 260.001 53.0766 259.56C53.945 259.118 54.6588 258.478 55.2181 257.639C55.7921 256.786 56.1674 255.763 56.3441 254.57H65.2191C65.072 257.161 64.3655 259.442 63.0997 261.414C61.8487 263.372 60.1193 264.903 57.9115 266.007C55.7038 267.11 53.0913 267.662 50.0741 267.662Z" fill="white"/>
<path d="M80.9106 267.64C78.747 267.64 76.8189 267.265 75.1263 266.514C73.4337 265.749 72.0944 264.623 71.1083 263.136C70.1369 261.635 69.6512 259.766 69.6512 257.529C69.6512 255.645 69.997 254.063 70.6888 252.782C71.3805 251.502 72.3225 250.471 73.5147 249.691C74.7069 248.911 76.0609 248.323 77.5769 247.925C79.1076 247.528 80.7119 247.248 82.3898 247.086C84.362 246.88 85.9516 246.689 87.1585 246.512C88.3654 246.321 89.2411 246.041 89.7857 245.673C90.3302 245.305 90.6025 244.761 90.6025 244.04V243.907C90.6025 242.509 90.161 241.427 89.2779 240.662C88.4095 239.896 87.1732 239.514 85.5689 239.514C83.8763 239.514 82.5296 239.889 81.5288 240.64C80.5279 241.376 79.8656 242.303 79.5418 243.421L70.8433 242.715C71.2849 240.654 72.1533 238.874 73.4485 237.372C74.7437 235.856 76.4142 234.694 78.46 233.884C80.5206 233.06 82.9049 232.648 85.6131 232.648C87.497 232.648 89.3 232.868 91.022 233.31C92.7587 233.752 94.2968 234.436 95.6362 235.363C96.9902 236.29 98.0573 237.483 98.8374 238.94C99.6174 240.382 100.007 242.112 100.007 244.128V267H91.0882V262.298H90.8233C90.2787 263.357 89.5502 264.292 88.6376 265.101C87.7251 265.896 86.6286 266.522 85.3481 266.978C84.0676 267.419 82.5885 267.64 80.9106 267.64ZM83.604 261.15C84.9875 261.15 86.2091 260.877 87.2688 260.333C88.3286 259.773 89.1601 259.023 89.7636 258.081C90.367 257.139 90.6688 256.072 90.6688 254.88V251.281C90.3744 251.472 89.9696 251.649 89.4545 251.811C88.9541 251.958 88.3874 252.098 87.7546 252.23C87.1217 252.348 86.4888 252.458 85.8559 252.561C85.223 252.65 84.649 252.731 84.1339 252.804C83.03 252.966 82.066 253.224 81.2417 253.577C80.4175 253.93 79.7773 254.409 79.321 255.012C78.8648 255.601 78.6366 256.337 78.6366 257.22C78.6366 258.5 79.1002 259.479 80.0275 260.156C80.9695 260.818 82.1616 261.15 83.604 261.15Z" fill="white"/>
<path d="M107.304 267V233.089H116.267V239.072H116.665C117.371 237.085 118.549 235.518 120.197 234.37C121.846 233.222 123.818 232.648 126.114 232.648C128.439 232.648 130.419 233.229 132.053 234.392C133.686 235.54 134.776 237.1 135.32 239.072H135.673C136.365 237.129 137.616 235.577 139.426 234.414C141.252 233.236 143.408 232.648 145.895 232.648C149.06 232.648 151.628 233.656 153.6 235.672C155.587 237.674 156.581 240.515 156.581 244.194V267H147.198V246.049C147.198 244.165 146.697 242.752 145.696 241.81C144.696 240.868 143.445 240.397 141.943 240.397C140.236 240.397 138.904 240.941 137.947 242.031C136.991 243.105 136.512 244.525 136.512 246.291V267H127.394V245.85C127.394 244.187 126.916 242.862 125.959 241.876C125.017 240.89 123.774 240.397 122.228 240.397C121.183 240.397 120.241 240.662 119.402 241.192C118.578 241.707 117.923 242.435 117.437 243.377C116.952 244.305 116.709 245.394 116.709 246.645V267H107.304Z" fill="white"/>
<path d="M179.464 267.662C175.975 267.662 172.973 266.956 170.456 265.543C167.954 264.115 166.026 262.099 164.672 259.494C163.318 256.874 162.641 253.776 162.641 250.199C162.641 246.711 163.318 243.65 164.672 241.015C166.026 238.38 167.932 236.327 170.39 234.855C172.863 233.384 175.762 232.648 179.088 232.648C181.326 232.648 183.408 233.008 185.336 233.729C187.279 234.436 188.972 235.503 190.414 236.931C191.871 238.358 193.004 240.154 193.814 242.318C194.623 244.466 195.028 246.983 195.028 249.868V252.451H166.394V246.623H186.175C186.175 245.269 185.881 244.069 185.292 243.024C184.703 241.979 183.887 241.162 182.842 240.573C181.811 239.97 180.612 239.668 179.243 239.668C177.815 239.668 176.549 239.999 175.446 240.662C174.356 241.309 173.503 242.185 172.885 243.289C172.266 244.378 171.95 245.592 171.935 246.932V252.473C171.935 254.151 172.244 255.601 172.863 256.822C173.495 258.044 174.386 258.986 175.534 259.648C176.682 260.311 178.043 260.642 179.618 260.642C180.663 260.642 181.62 260.495 182.488 260.2C183.357 259.906 184.1 259.464 184.718 258.876C185.336 258.287 185.807 257.566 186.131 256.712L194.83 257.286C194.388 259.376 193.483 261.201 192.114 262.761C190.76 264.307 189.008 265.513 186.86 266.382C184.725 267.235 182.26 267.662 179.464 267.662Z" fill="white"/>
<path d="M201.166 267V233.089H210.284V239.006H210.637C211.255 236.901 212.293 235.312 213.75 234.237C215.207 233.148 216.885 232.604 218.783 232.604C219.254 232.604 219.762 232.633 220.307 232.692C220.851 232.751 221.33 232.832 221.742 232.935V241.28C221.3 241.147 220.689 241.03 219.909 240.927C219.129 240.824 218.415 240.772 217.768 240.772C216.384 240.772 215.148 241.074 214.059 241.677C212.984 242.266 212.131 243.09 211.498 244.15C210.88 245.21 210.571 246.431 210.571 247.815V267H201.166Z" fill="white"/>
<path d="M235.303 267.64C233.139 267.64 231.211 267.265 229.518 266.514C227.826 265.749 226.487 264.623 225.5 263.136C224.529 261.635 224.043 259.766 224.043 257.529C224.043 255.645 224.389 254.063 225.081 252.782C225.773 251.502 226.715 250.471 227.907 249.691C229.099 248.911 230.453 248.323 231.969 247.925C233.5 247.528 235.104 247.248 236.782 247.086C238.754 246.88 240.344 246.689 241.551 246.512C242.758 246.321 243.633 246.041 244.178 245.673C244.722 245.305 244.995 244.761 244.995 244.04V243.907C244.995 242.509 244.553 241.427 243.67 240.662C242.802 239.896 241.565 239.514 239.961 239.514C238.268 239.514 236.922 239.889 235.921 240.64C234.92 241.376 234.258 242.303 233.934 243.421L225.235 242.715C225.677 240.654 226.545 238.874 227.841 237.372C229.136 235.856 230.806 234.694 232.852 233.884C234.913 233.06 237.297 232.648 240.005 232.648C241.889 232.648 243.692 232.868 245.414 233.31C247.151 233.752 248.689 234.436 250.028 235.363C251.382 236.29 252.449 237.483 253.23 238.94C254.01 240.382 254.4 242.112 254.4 244.128V267H245.48V262.298H245.215C244.671 263.357 243.942 264.292 243.03 265.101C242.117 265.896 241.021 266.522 239.74 266.978C238.46 267.419 236.981 267.64 235.303 267.64ZM237.996 261.15C239.38 261.15 240.601 260.877 241.661 260.333C242.721 259.773 243.552 259.023 244.156 258.081C244.759 257.139 245.061 256.072 245.061 254.88V251.281C244.767 251.472 244.362 251.649 243.847 251.811C243.346 251.958 242.78 252.098 242.147 252.23C241.514 252.348 240.881 252.458 240.248 252.561C239.615 252.65 239.041 252.731 238.526 252.804C237.422 252.966 236.458 253.224 235.634 253.577C234.81 253.93 234.169 254.409 233.713 255.012C233.257 255.601 233.029 256.337 233.029 257.22C233.029 258.5 233.492 259.479 234.42 260.156C235.362 260.818 236.554 261.15 237.996 261.15Z" fill="white"/>
</g>
<defs>
<filter id="filter0_d_1114_5844" x="-4" y="0" width="607" height="347" filterUnits="userSpaceOnUse" color-interpolation-filters="sRGB">
<feFlood flood-opacity="0" result="BackgroundImageFix"/>
<feColorMatrix in="SourceAlpha" type="matrix" values="0 0 0 0 0 0 0 0 0 0 0 0 0 0 0 0 0 0 127 0" result="hardAlpha"/>
<feOffset dy="4"/>
<feGaussianBlur stdDeviation="2"/>
<feComposite in2="hardAlpha" operator="out"/>
<feColorMatrix type="matrix" values="0 0 0 0 0 0 0 0 0 0 0 0 0 0 0 0 0 0 0.25 0"/>
<feBlend mode="normal" in2="BackgroundImageFix" result="effect1_dropShadow_1114_5844"/>
<feBlend mode="normal" in="SourceGraphic" in2="effect1_dropShadow_1114_5844" result="shape"/>
</filter>
</defs>
</svg>
