<svg width="599" height="339" viewBox="0 0 599 339" fill="none" xmlns="http://www.w3.org/2000/svg">
<g filter="url(#filter0_d_1114_5840)">
<path d="M62.7275 54.7857V100H53.168V63.8594H52.9031L42.5488 70.3502V61.8725L53.742 54.7857H62.7275Z" fill="white"/>
<path d="M91.2017 100.993C87.4044 100.979 84.137 100.044 81.3994 98.1897C78.6765 96.3352 76.5792 93.6491 75.1073 90.1314C73.6502 86.6138 72.929 82.3823 72.9438 77.437C72.9438 72.5064 73.6723 68.3043 75.1294 64.8308C76.6012 61.3573 78.6986 58.7154 81.4215 56.9051C84.159 55.08 87.4191 54.1675 91.2017 54.1675C94.9843 54.1675 98.237 55.08 100.96 56.9051C103.697 58.7301 105.802 61.3794 107.274 64.8529C108.746 68.3117 109.474 72.5064 109.46 77.437C109.46 82.397 108.724 86.6359 107.252 90.1535C105.795 93.6712 103.705 96.3572 100.982 98.2117C98.2591 100.066 94.999 100.993 91.2017 100.993ZM91.2017 93.0677C93.7921 93.0677 95.86 91.7652 97.4054 89.16C98.9508 86.5549 99.7162 82.6472 99.7015 77.437C99.7015 74.0076 99.3482 71.1523 98.6418 68.871C97.95 66.5897 96.9639 64.875 95.6834 63.727C94.4176 62.579 92.9237 62.005 91.2017 62.005C88.626 62.005 86.5655 63.2928 85.0201 65.8685C83.4746 68.4442 82.6946 72.3003 82.6799 77.437C82.6799 80.9105 83.0257 83.81 83.7175 86.1355C84.424 88.4462 85.4174 90.183 86.6979 91.3457C87.9784 92.4937 89.4797 93.0677 91.2017 93.0677Z" fill="white"/>
<path d="M134.004 100.993C130.207 100.979 126.939 100.044 124.202 98.1897C121.479 96.3352 119.382 93.6491 117.91 90.1314C116.453 86.6138 115.731 82.3823 115.746 77.437C115.746 72.5064 116.475 68.3043 117.932 64.8308C119.404 61.3573 121.501 58.7154 124.224 56.9051C126.961 55.08 130.222 54.1675 134.004 54.1675C137.787 54.1675 141.039 55.08 143.762 56.9051C146.5 58.7301 148.605 61.3794 150.076 64.8529C151.548 68.3117 152.277 72.5064 152.262 77.437C152.262 82.397 151.526 86.6359 150.054 90.1535C148.597 93.6712 146.507 96.3572 143.784 98.2117C141.061 100.066 137.801 100.993 134.004 100.993ZM134.004 93.0677C136.594 93.0677 138.662 91.7652 140.208 89.16C141.753 86.5549 142.519 82.6472 142.504 77.437C142.504 74.0076 142.151 71.1523 141.444 68.871C140.752 66.5897 139.766 64.875 138.486 63.727C137.22 62.579 135.726 62.005 134.004 62.005C131.428 62.005 129.368 63.2928 127.822 65.8685C126.277 68.4442 125.497 72.3003 125.482 77.437C125.482 80.9105 125.828 83.81 126.52 86.1355C127.226 88.4462 128.22 90.183 129.5 91.3457C130.781 92.4937 132.282 93.0677 134.004 93.0677Z" fill="white"/>
<path d="M183.827 91.5223V89.138C183.827 87.3276 184.21 85.6645 184.975 84.1485C185.755 82.6178 186.881 81.3962 188.353 80.4837C189.839 79.5564 191.65 79.0928 193.784 79.0928C195.947 79.0928 197.765 79.5491 199.237 80.4616C200.724 81.3741 201.842 82.5957 202.593 84.1264C203.358 85.6424 203.741 87.3129 203.741 89.138V91.5223C203.741 93.3327 203.358 95.0032 202.593 96.5339C201.827 98.0498 200.701 99.2641 199.215 100.177C197.728 101.104 195.918 101.567 193.784 101.567C191.62 101.567 189.803 101.104 188.331 100.177C186.859 99.2641 185.74 98.0498 184.975 96.5339C184.21 95.0032 183.827 93.3327 183.827 91.5223ZM190.252 89.138V91.5223C190.252 92.5673 190.502 93.5534 191.002 94.4807C191.517 95.4079 192.445 95.8715 193.784 95.8715C195.123 95.8715 196.036 95.4153 196.522 94.5028C197.022 93.5902 197.272 92.5967 197.272 91.5223V89.138C197.272 88.0635 197.037 87.0627 196.566 86.1355C196.095 85.2082 195.167 84.7446 193.784 84.7446C192.459 84.7446 191.539 85.2082 191.024 86.1355C190.509 87.0627 190.252 88.0635 190.252 89.138ZM160.624 65.6477V63.2634C160.624 61.4383 161.014 59.7678 161.794 58.2518C162.574 56.7211 163.7 55.4995 165.172 54.587C166.658 53.6744 168.454 53.2182 170.559 53.2182C172.737 53.2182 174.562 53.6744 176.034 54.587C177.506 55.4995 178.624 56.7211 179.39 58.2518C180.155 59.7678 180.538 61.4383 180.538 63.2634V65.6477C180.538 67.4728 180.148 69.1433 179.367 70.6593C178.602 72.1752 177.476 73.3895 175.99 74.302C174.518 75.1998 172.707 75.6487 170.559 75.6487C168.41 75.6487 166.592 75.1925 165.105 74.2799C163.634 73.3527 162.515 72.1384 161.75 70.6372C160.999 69.1212 160.624 67.458 160.624 65.6477ZM167.092 63.2634V65.6477C167.092 66.7221 167.343 67.7156 167.843 68.6281C168.358 69.5407 169.263 69.9969 170.559 69.9969C171.913 69.9969 172.833 69.5407 173.318 68.6281C173.819 67.7156 174.069 66.7221 174.069 65.6477V63.2634C174.069 62.1889 173.833 61.1881 173.362 60.2608C172.891 59.3336 171.957 58.87 170.559 58.87C169.249 58.87 168.343 59.341 167.843 60.2829C167.343 61.2249 167.092 62.2184 167.092 63.2634ZM163.538 100L194.623 54.7857H200.407L169.322 100H163.538Z" fill="white"/>
<path d="M226.983 100V66.0893H236.101V72.006H236.454C237.072 69.9013 238.11 68.3117 239.567 67.2373C241.024 66.1481 242.702 65.6036 244.6 65.6036C245.071 65.6036 245.579 65.633 246.124 65.6919C246.668 65.7507 247.147 65.8317 247.559 65.9347V74.2799C247.117 74.1475 246.506 74.0297 245.726 73.9267C244.946 73.8237 244.232 73.7722 243.585 73.7722C242.201 73.7722 240.965 74.0739 239.876 74.6773C238.801 75.2661 237.948 76.0903 237.315 77.15C236.697 78.2097 236.388 79.4313 236.388 80.8148V100H226.983Z" fill="white"/>
<path d="M266.297 100.662C262.809 100.662 259.806 99.9558 257.289 98.5429C254.787 97.1152 252.859 95.0988 251.505 92.4937C250.151 89.8739 249.474 86.7757 249.474 83.1992C249.474 79.711 250.151 76.6496 251.505 74.015C252.859 71.3804 254.765 69.3273 257.223 67.8554C259.696 66.3836 262.595 65.6477 265.922 65.6477C268.159 65.6477 270.241 66.0083 272.169 66.7295C274.112 67.436 275.805 68.503 277.247 69.9307C278.704 71.3584 279.838 73.154 280.647 75.3176C281.457 77.4664 281.861 79.9832 281.861 82.868V85.4511H253.227V79.6226H273.008C273.008 78.2686 272.714 77.069 272.125 76.024C271.537 74.979 270.72 74.1622 269.675 73.5735C268.644 72.97 267.445 72.6683 266.076 72.6683C264.648 72.6683 263.383 72.9995 262.279 73.6618C261.19 74.3094 260.336 75.1851 259.718 76.289C259.1 77.3781 258.783 78.5924 258.768 79.9317V85.4731C258.768 87.151 259.078 88.6008 259.696 89.8224C260.329 91.044 261.219 91.9859 262.367 92.6483C263.515 93.3106 264.877 93.6417 266.451 93.6417C267.496 93.6417 268.453 93.4946 269.321 93.2002C270.19 92.9058 270.933 92.4643 271.551 91.8756C272.169 91.2868 272.64 90.5656 272.964 89.712L281.663 90.286C281.221 92.376 280.316 94.201 278.947 95.7612C277.593 97.3066 275.842 98.5135 273.693 99.3818C271.559 100.235 269.093 100.662 266.297 100.662Z" fill="white"/>
<path d="M294.445 100L285.217 66.0893H294.732L299.987 88.873H300.296L305.771 66.0893H315.11L320.673 88.7406H320.96L326.126 66.0893H335.62L326.413 100H316.457L310.628 78.6733H310.209L304.38 100H294.445Z" fill="white"/>
<path d="M350.307 100.64C348.143 100.64 346.215 100.265 344.522 99.5143C342.83 98.749 341.49 97.623 340.504 96.1365C339.533 94.6352 339.047 92.766 339.047 90.5288C339.047 88.6449 339.393 87.0627 340.085 85.7822C340.776 84.5017 341.718 83.4715 342.911 82.6914C344.103 81.9113 345.457 81.3226 346.973 80.9252C348.504 80.5278 350.108 80.2482 351.786 80.0863C353.758 79.8802 355.348 79.6889 356.554 79.5123C357.761 79.3209 358.637 79.0413 359.182 78.6733C359.726 78.3054 359.999 77.7608 359.999 77.0396V76.9071C359.999 75.5089 359.557 74.4271 358.674 73.6618C357.805 72.8964 356.569 72.5137 354.965 72.5137C353.272 72.5137 351.926 72.8891 350.925 73.6397C349.924 74.3756 349.262 75.3029 348.938 76.4214L340.239 75.715C340.681 73.6544 341.549 71.8735 342.844 70.3722C344.14 68.8563 345.81 67.6935 347.856 66.884C349.917 66.0598 352.301 65.6477 355.009 65.6477C356.893 65.6477 358.696 65.8685 360.418 66.31C362.155 66.7516 363.693 67.436 365.032 68.3632C366.386 69.2905 367.453 70.4826 368.233 71.9397C369.013 73.3821 369.403 75.1115 369.403 77.1279V100H360.484V95.2975H360.219C359.675 96.3572 358.946 97.2919 358.034 98.1014C357.121 98.8961 356.025 99.5217 354.744 99.9779C353.464 100.419 351.984 100.64 350.307 100.64ZM353 94.1495C354.383 94.1495 355.605 93.8772 356.665 93.3327C357.725 92.7734 358.556 92.0227 359.16 91.0808C359.763 90.1388 360.065 89.0717 360.065 87.8796V84.281C359.77 84.4723 359.366 84.6489 358.85 84.8108C358.35 84.958 357.783 85.0978 357.151 85.2303C356.518 85.348 355.885 85.4584 355.252 85.5614C354.619 85.6498 354.045 85.7307 353.53 85.8043C352.426 85.9662 351.462 86.2238 350.638 86.577C349.813 86.9302 349.173 87.4086 348.717 88.012C348.261 88.6007 348.033 89.3367 348.033 90.2198C348.033 91.5002 348.496 92.479 349.423 93.156C350.365 93.8184 351.558 94.1495 353 94.1495Z" fill="white"/>
<path d="M376.7 100V66.0893H385.818V72.006H386.171C386.789 69.9013 387.827 68.3117 389.284 67.2373C390.741 66.1481 392.419 65.6036 394.318 65.6036C394.789 65.6036 395.296 65.633 395.841 65.6919C396.386 65.7507 396.864 65.8317 397.276 65.9347V74.2799C396.834 74.1475 396.224 74.0297 395.444 73.9267C394.664 73.8237 393.95 73.7722 393.302 73.7722C391.919 73.7722 390.682 74.0739 389.593 74.6773C388.519 75.2661 387.665 76.0903 387.032 77.15C386.414 78.2097 386.105 79.4313 386.105 80.8148V100H376.7Z" fill="white"/>
<path d="M413.056 100.552C410.48 100.552 408.147 99.8896 406.057 98.565C403.982 97.2256 402.334 95.2607 401.112 92.6703C399.905 90.0652 399.302 86.8714 399.302 83.0888C399.302 79.2032 399.927 75.9725 401.178 73.3968C402.429 70.8064 404.092 68.871 406.168 67.5905C408.258 66.2953 410.546 65.6477 413.034 65.6477C414.932 65.6477 416.515 65.9715 417.78 66.6191C419.061 67.252 420.091 68.0468 420.871 69.0035C421.666 69.9454 422.269 70.8727 422.681 71.7852H422.969V54.7857H432.351V100H423.079V94.569H422.681C422.24 95.511 421.614 96.4456 420.805 97.3728C420.01 98.2853 418.973 99.0433 417.692 99.6468C416.426 100.25 414.881 100.552 413.056 100.552ZM416.036 93.0677C417.552 93.0677 418.833 92.6556 419.878 91.8314C420.937 90.9925 421.747 89.8224 422.306 88.3211C422.88 86.8198 423.167 85.061 423.167 83.0446C423.167 81.0282 422.888 79.2768 422.328 77.7902C421.769 76.3037 420.959 75.1557 419.9 74.3462C418.84 73.5367 417.552 73.1319 416.036 73.1319C414.491 73.1319 413.188 73.5514 412.129 74.3903C411.069 75.2293 410.267 76.392 409.722 77.8785C409.178 79.3651 408.905 81.0871 408.905 83.0446C408.905 85.0169 409.178 86.761 409.722 88.277C410.281 89.7782 411.084 90.9557 412.129 91.8093C413.188 92.6483 414.491 93.0677 416.036 93.0677Z" fill="white"/>
<path d="M468.299 75.7591L459.689 76.289C459.541 75.5531 459.225 74.8907 458.739 74.302C458.254 73.6986 457.613 73.2202 456.819 72.867C456.038 72.499 455.104 72.3151 454.015 72.3151C452.558 72.3151 451.329 72.6241 450.328 73.2423C449.327 73.8457 448.827 74.6553 448.827 75.6708C448.827 76.4803 449.15 77.1647 449.798 77.724C450.446 78.2833 451.557 78.7322 453.132 79.0707L459.269 80.307C462.566 80.9841 465.024 82.0732 466.643 83.5745C468.262 85.0757 469.071 87.048 469.071 89.4912C469.071 91.7137 468.417 93.6638 467.107 95.3417C465.811 97.0196 464.03 98.3295 461.764 99.2715C459.512 100.199 456.914 100.662 453.971 100.662C449.482 100.662 445.905 99.7277 443.241 97.8585C440.592 95.9746 439.039 93.4136 438.583 90.1756L447.833 89.6899C448.113 91.0587 448.79 92.1037 449.864 92.8249C450.939 93.5314 452.315 93.8846 453.993 93.8846C455.641 93.8846 456.966 93.5681 457.967 92.9353C458.982 92.2877 459.497 91.4561 459.512 90.4405C459.497 89.5869 459.137 88.8878 458.43 88.3432C457.724 87.7839 456.635 87.3571 455.163 87.0627L449.29 85.8926C445.979 85.2303 443.513 84.0823 441.894 82.4485C440.29 80.8148 439.488 78.7322 439.488 76.2007C439.488 74.0224 440.077 72.1458 441.254 70.5709C442.446 68.9961 444.117 67.7818 446.266 66.9282C448.429 66.0745 450.961 65.6477 453.86 65.6477C458.143 65.6477 461.514 66.5529 463.972 68.3632C466.444 70.1736 467.887 72.6389 468.299 75.7591Z" fill="white"/>
<path d="M507.42 66.0893V73.154H486.998V66.0893H507.42ZM491.634 57.9648H501.039V89.5795C501.039 90.4479 501.172 91.1249 501.437 91.6106C501.702 92.0816 502.07 92.4128 502.541 92.6041C503.026 92.7954 503.586 92.8911 504.219 92.8911C504.66 92.8911 505.102 92.8543 505.543 92.7807C505.985 92.6924 506.323 92.6262 506.559 92.582L508.038 99.5805C507.567 99.7277 506.905 99.897 506.051 100.088C505.197 100.294 504.16 100.419 502.938 100.464C500.671 100.552 498.685 100.25 496.977 99.5585C495.285 98.8667 493.967 97.7923 493.025 96.3352C492.083 94.8781 491.62 93.0383 491.634 90.8158V57.9648Z" fill="white"/>
<path d="M513.546 100V66.0893H522.951V100H513.546ZM518.271 61.7179C516.873 61.7179 515.673 61.2543 514.672 60.3271C513.686 59.3851 513.193 58.2592 513.193 56.9492C513.193 55.654 513.686 54.5428 514.672 53.6156C515.673 52.6736 516.873 52.2026 518.271 52.2026C519.669 52.2026 520.861 52.6736 521.847 53.6156C522.848 54.5428 523.349 55.654 523.349 56.9492C523.349 58.2592 522.848 59.3851 521.847 60.3271C520.861 61.2543 519.669 61.7179 518.271 61.7179Z" fill="white"/>
<path d="M539.89 54.7857V100H530.485V54.7857H539.89Z" fill="white"/>
<path d="M556.829 54.7857V100H547.424V54.7857H556.829Z" fill="white"/>
<path d="M70.833 274V258.045L108.111 223.528C111.282 220.46 113.941 217.699 116.089 215.244C118.271 212.79 119.924 210.386 121.049 208.034C122.174 205.648 122.736 203.074 122.736 200.312C122.736 197.244 122.038 194.602 120.64 192.386C119.242 190.136 117.333 188.415 114.913 187.222C112.492 185.994 109.748 185.381 106.68 185.381C103.475 185.381 100.68 186.028 98.2932 187.324C95.9069 188.619 94.066 190.477 92.7705 192.898C91.4751 195.318 90.8273 198.199 90.8273 201.54H69.8103C69.8103 194.688 71.3614 188.739 74.4637 183.693C77.566 178.648 81.9126 174.744 87.5035 171.983C93.0944 169.222 99.5376 167.841 106.833 167.841C114.333 167.841 120.861 169.17 126.418 171.83C132.009 174.455 136.356 178.102 139.458 182.773C142.56 187.443 144.111 192.795 144.111 198.83C144.111 202.784 143.327 206.687 141.759 210.54C140.225 214.392 137.481 218.67 133.526 223.375C129.572 228.045 123.998 233.653 116.805 240.199L101.515 255.182V255.898H145.492V274H70.833Z" fill="white"/>
<path d="M200.604 275.432C192.729 275.432 185.724 274.153 179.587 271.597C173.485 269.006 168.695 265.477 165.218 261.011C161.741 256.545 160.002 251.483 160.002 245.824C160.002 241.46 160.991 237.455 162.968 233.807C164.979 230.125 167.707 227.074 171.15 224.653C174.593 222.199 178.445 220.631 182.707 219.949V219.233C177.116 218.108 172.582 215.398 169.104 211.102C165.627 206.773 163.888 201.744 163.888 196.017C163.888 190.597 165.474 185.773 168.644 181.545C171.815 177.284 176.161 173.943 181.684 171.523C187.241 169.068 193.548 167.841 200.604 167.841C207.661 167.841 213.951 169.068 219.474 171.523C225.03 173.977 229.394 177.335 232.565 181.597C235.735 185.824 237.337 190.631 237.371 196.017C237.337 201.778 235.565 206.807 232.053 211.102C228.542 215.398 224.042 218.108 218.553 219.233V219.949C222.746 220.631 226.548 222.199 229.957 224.653C233.4 227.074 236.127 230.125 238.138 233.807C240.184 237.455 241.224 241.46 241.258 245.824C241.224 251.483 239.468 256.545 235.991 261.011C232.513 265.477 227.707 269.006 221.57 271.597C215.468 274.153 208.479 275.432 200.604 275.432ZM200.604 259.17C204.116 259.17 207.184 258.54 209.809 257.278C212.434 255.983 214.479 254.21 215.945 251.96C217.445 249.676 218.195 247.051 218.195 244.085C218.195 241.051 217.428 238.375 215.894 236.057C214.36 233.705 212.28 231.864 209.655 230.534C207.03 229.17 204.013 228.489 200.604 228.489C197.229 228.489 194.212 229.17 191.553 230.534C188.894 231.864 186.798 233.705 185.263 236.057C183.763 238.375 183.013 241.051 183.013 244.085C183.013 247.051 183.746 249.676 185.212 251.96C186.678 254.21 188.741 255.983 191.4 257.278C194.059 258.54 197.127 259.17 200.604 259.17ZM200.604 212.381C203.536 212.381 206.144 211.784 208.428 210.591C210.712 209.398 212.502 207.744 213.798 205.631C215.093 203.517 215.741 201.08 215.741 198.318C215.741 195.591 215.093 193.205 213.798 191.159C212.502 189.08 210.729 187.46 208.479 186.301C206.229 185.108 203.604 184.511 200.604 184.511C197.638 184.511 195.013 185.108 192.729 186.301C190.445 187.46 188.655 189.08 187.36 191.159C186.099 193.205 185.468 195.591 185.468 198.318C185.468 201.08 186.116 203.517 187.411 205.631C188.707 207.744 190.496 209.398 192.78 210.591C195.065 211.784 197.673 212.381 200.604 212.381Z" fill="white"/>
<path d="M290.681 274V169.273H360.022V187.528H312.823V212.483H355.42V230.739H312.823V274H290.681Z" fill="white"/>
<path d="M404.536 275.534C396.457 275.534 389.502 273.898 383.673 270.625C377.877 267.318 373.411 262.648 370.275 256.614C367.138 250.545 365.57 243.369 365.57 235.085C365.57 227.006 367.138 219.915 370.275 213.812C373.411 207.71 377.826 202.955 383.519 199.545C389.246 196.136 395.962 194.432 403.667 194.432C408.849 194.432 413.673 195.267 418.138 196.938C422.638 198.574 426.559 201.045 429.9 204.352C433.275 207.659 435.9 211.818 437.775 216.83C439.65 221.807 440.587 227.636 440.587 234.318V240.301H374.263V226.801H420.082C420.082 223.665 419.4 220.886 418.036 218.466C416.673 216.045 414.78 214.153 412.36 212.79C409.974 211.392 407.195 210.693 404.025 210.693C400.718 210.693 397.786 211.46 395.229 212.994C392.707 214.494 390.729 216.523 389.298 219.08C387.866 221.602 387.133 224.415 387.099 227.517V240.352C387.099 244.239 387.815 247.597 389.246 250.426C390.712 253.256 392.775 255.438 395.434 256.972C398.093 258.506 401.246 259.273 404.894 259.273C407.315 259.273 409.53 258.932 411.542 258.25C413.553 257.568 415.275 256.545 416.707 255.182C418.138 253.818 419.229 252.148 419.979 250.17L440.127 251.5C439.104 256.341 437.008 260.568 433.837 264.182C430.701 267.761 426.644 270.557 421.667 272.568C416.724 274.545 411.013 275.534 404.536 275.534Z" fill="white"/>
<path d="M455.212 274V169.273H476.996V208.648H477.661C478.616 206.534 479.996 204.386 481.803 202.205C483.644 199.989 486.03 198.148 488.962 196.682C491.928 195.182 495.61 194.432 500.008 194.432C505.735 194.432 511.019 195.932 515.86 198.932C520.701 201.898 524.57 206.381 527.468 212.381C530.366 218.347 531.815 225.83 531.815 234.83C531.815 243.591 530.4 250.989 527.57 257.023C524.775 263.023 520.957 267.574 516.116 270.676C511.309 273.744 505.923 275.278 499.957 275.278C495.729 275.278 492.133 274.58 489.167 273.182C486.235 271.784 483.832 270.028 481.957 267.915C480.082 265.767 478.65 263.602 477.661 261.42H476.69V274H455.212ZM476.536 234.727C476.536 239.398 477.184 243.472 478.479 246.949C479.775 250.426 481.65 253.136 484.104 255.08C486.559 256.989 489.542 257.943 493.053 257.943C496.599 257.943 499.599 256.972 502.053 255.028C504.508 253.051 506.366 250.324 507.627 246.847C508.923 243.335 509.57 239.295 509.57 234.727C509.57 230.193 508.94 226.205 507.678 222.761C506.417 219.318 504.559 216.625 502.104 214.682C499.65 212.739 496.633 211.767 493.053 211.767C489.508 211.767 486.508 212.705 484.053 214.58C481.633 216.455 479.775 219.114 478.479 222.557C477.184 226 476.536 230.057 476.536 234.727Z" fill="white"/>
</g>
<defs>
<filter id="filter0_d_1114_5840" x="38.5488" y="52.2026" width="522.279" height="231.331" filterUnits="userSpaceOnUse" color-interpolation-filters="sRGB">
<feFlood flood-opacity="0" result="BackgroundImageFix"/>
<feColorMatrix in="SourceAlpha" type="matrix" values="0 0 0 0 0 0 0 0 0 0 0 0 0 0 0 0 0 0 127 0" result="hardAlpha"/>
<feOffset dy="4"/>
<feGaussianBlur stdDeviation="2"/>
<feComposite in2="hardAlpha" operator="out"/>
<feColorMatrix type="matrix" values="0 0 0 0 0 0 0 0 0 0 0 0 0 0 0 0 0 0 0.25 0"/>
<feBlend mode="normal" in2="BackgroundImageFix" result="effect1_dropShadow_1114_5840"/>
<feBlend mode="normal" in="SourceGraphic" in2="effect1_dropShadow_1114_5840" result="shape"/>
</filter>
</defs>
</svg>
