<svg width="599" height="199" viewBox="0 0 599 199" fill="none" xmlns="http://www.w3.org/2000/svg">
<g filter="url(#filter0_d_1114_5778)">
<path d="M504.639 30.6113C503.974 29.9458 503.184 29.4179 502.315 29.0577C501.445 28.6974 500.513 28.512 499.572 28.512C498.631 28.512 497.699 28.6974 496.829 29.0577C495.959 29.4179 495.17 29.9458 494.504 30.6113C493.758 31.3512 493.184 32.2457 492.822 33.2315C492.46 34.2174 492.319 35.2707 492.409 36.3169C492.499 37.3632 492.818 38.3769 493.343 39.2866C493.869 40.1962 494.587 40.9796 495.449 41.5814C496.31 42.1832 497.293 42.5887 498.329 42.7693C499.365 42.95 500.427 42.9013 501.442 42.6267C502.456 42.3522 503.398 41.8585 504.201 41.1804C505.004 40.5024 505.648 39.6566 506.087 38.7027L513.459 42.11C514.394 40.0989 514.878 37.9084 514.878 35.6912C514.878 33.474 514.394 31.2834 513.459 29.2724L506.087 32.6796C505.731 31.91 505.241 31.2096 504.639 30.6113Z" fill="white"/>
<path d="M499.57 59.1606C504.052 59.1593 508.439 57.8752 512.213 55.4601C515.987 53.0451 518.989 49.6003 520.864 45.5337L513.461 42.11C511.996 45.2848 509.489 47.8643 506.356 49.4209C503.222 50.9775 499.65 51.4177 496.232 50.6686C492.814 49.9195 489.755 48.026 487.561 45.302C485.368 42.578 484.172 39.1871 484.172 35.6912C484.172 32.1952 485.368 28.8043 487.561 26.0803C489.755 23.3563 492.814 21.4628 496.232 20.7137C499.65 19.9646 503.222 20.4048 506.356 21.9614C509.489 23.518 511.996 26.0975 513.461 29.2724L520.864 25.8486C519.091 22.0406 516.326 18.7786 512.859 16.4038C509.392 14.0291 505.349 12.629 501.154 12.3499C496.96 12.0709 492.767 12.9232 489.015 14.8177C485.263 16.7122 482.09 19.5792 479.827 23.1188C477.565 26.6583 476.296 30.7403 476.154 34.9376C476.012 39.1348 477.002 43.2931 479.02 46.9772C481.038 50.6614 484.01 53.736 487.625 55.8793C491.241 58.0227 495.366 59.156 499.57 59.1606Z" fill="white"/>
<path d="M436.748 111.131C444.24 111.131 449.814 106.823 450.424 100.517H444.676C444.153 103.823 440.93 106.129 436.748 106.129C431.437 106.129 427.43 102.475 427.43 95.5576C427.43 88.6398 431.437 84.9412 436.748 84.9412C440.844 84.9412 444.066 87.2472 444.5 90.5966H450.511C449.684 84.2904 444.099 79.9822 436.748 79.9822C428.781 79.9822 421.639 85.2036 421.639 95.5576C421.639 105.912 428.65 111.131 436.748 111.131Z" fill="white"/>
<path d="M466.215 110.784H471.486V96.6879C471.486 91.7289 467.566 88.5096 461.992 88.5096C456.287 88.5096 452.585 91.9024 452.324 96.2519H457.115C457.201 94.2951 458.9 92.512 461.731 92.512C464.563 92.512 466.215 94.0348 466.215 96.1651C466.215 97.035 465.694 97.6445 464.604 97.6445H460.554C455.634 97.6445 452.324 100.298 452.324 104.562C452.324 108.348 455.284 111.131 459.64 111.131C462.776 111.131 465.301 109.695 466.215 107.519V110.784ZM460.904 107.172C458.9 107.172 457.506 106.04 457.506 104.345C457.506 102.43 459.03 101.167 461.295 101.167H466.215V101.517C466.215 104.823 464.257 107.172 460.904 107.172Z" fill="white"/>
<path d="M480.53 108.391C481.749 110.087 484.1 111.131 486.758 111.131C493.203 111.131 497.34 106.519 497.34 99.8203C497.34 93.1215 493.468 88.5096 487.149 88.5096C484.233 88.5096 481.837 89.7267 480.53 91.5966V88.8568H475.221V119.658H480.53V108.391ZM486.152 93.1215C489.681 93.1215 492.03 95.7766 492.03 99.8223C492.03 103.868 489.681 106.521 486.152 106.521C482.537 106.521 480.187 103.868 480.187 99.8223C480.187 95.7766 482.537 93.1215 486.152 93.1215Z" fill="white"/>
<path d="M510.096 110.784H513.612V105.955H510.704C508.702 105.955 507.527 104.823 507.527 102.606V93.3384H513.625V88.8567H507.527V82.2448H502.17V88.8567H497.859V93.3384H502.17V103.126C502.17 107.998 505.306 110.784 510.096 110.784Z" fill="white"/>
<path d="M515.73 88.8568V102.43C515.73 107.562 518.953 111.131 523.919 111.131C527.055 111.131 529.537 109.782 530.755 107.389V110.784H536.112V88.8568H530.755V100.82C530.755 104.04 528.666 106.389 525.661 106.389C522.916 106.389 521.088 104.302 521.088 101.3V88.8568H515.73Z" fill="white"/>
<path d="M553.469 88.8568H550.901C548.069 88.8568 546.371 89.9457 545.283 92.7289V88.8568H539.926V110.782H545.283V100.428C545.283 96.2518 546.634 93.3384 550.04 93.3384H553.48L553.469 88.8568Z" fill="white"/>
<path d="M565.04 111.131C570.44 111.131 574.533 108.129 575.361 103.473H570.134C569.569 105.562 567.784 106.695 565.04 106.695C561.643 106.695 559.378 104.422 558.987 100.909H575.187C575.23 100.475 575.274 99.8224 575.274 99.0826C575.274 93.8612 571.964 88.5117 564.605 88.5117C557.42 88.5117 553.85 93.9501 553.85 99.7356C553.848 105.476 557.854 111.131 565.04 111.131ZM564.605 92.512C567.784 92.512 569.7 94.601 569.917 97.3842H559.128C559.685 94.0782 561.61 92.512 564.605 92.512Z" fill="white"/>
<path d="M432.757 181.125L419.554 159.624H413.324V190.09H419.074V168.635L432.32 190.09H438.507V159.624H432.757V181.125Z" fill="white"/>
<path d="M457.134 180.125C457.134 183.344 455.045 185.704 452.038 185.704C449.293 185.704 447.463 183.615 447.463 180.611V168.155H442.104V181.735C442.104 186.871 445.328 190.44 450.294 190.44C453.432 190.44 455.916 189.09 457.134 186.696V190.09H462.496V168.155H457.134V180.125Z" fill="white"/>
<path d="M492.149 167.806C488.663 167.806 485.875 169.721 484.872 171.986C483.914 169.288 481.517 167.806 478.032 167.806C474.94 167.806 472.76 169.374 471.672 171.593V168.155H466.312V190.091H471.672V177.513C471.672 174.414 473.459 172.377 476.29 172.377C478.861 172.377 480.473 174.422 480.473 177.513V190.091H485.788V177.513C485.788 174.414 487.575 172.377 490.45 172.377C493.019 172.377 494.633 174.422 494.633 177.513V190.091H499.948V175.902C499.948 171.244 496.9 167.806 492.149 167.806Z" fill="white"/>
<path d="M515.675 167.808C512.8 167.808 510.49 169.025 509.228 170.81V158.754H503.912V190.093H509.228V187.342C510.49 189.258 512.93 190.442 515.588 190.442C522.168 190.442 526.046 185.828 526.046 179.125C526.046 172.422 522.168 167.808 515.675 167.808ZM514.804 185.826C511.232 185.826 508.878 183.171 508.878 179.123C508.878 175.075 511.232 172.42 514.804 172.42C518.376 172.42 520.73 175.075 520.73 179.123C520.73 183.171 518.38 185.826 514.804 185.826Z" fill="white"/>
<path d="M538.76 185.999C535.362 185.999 533.095 183.726 532.704 180.214H548.912C548.953 179.778 548.999 179.125 548.999 178.385C548.999 173.162 545.689 167.81 538.324 167.81C531.134 167.81 527.568 173.248 527.568 179.038C527.568 184.782 531.577 190.442 538.767 190.442C544.167 190.442 548.265 187.437 549.092 182.782H543.857C543.29 184.863 541.505 185.999 538.76 185.999ZM538.324 171.812C541.505 171.812 543.422 173.899 543.64 176.685H532.834C533.401 173.379 535.319 171.812 538.324 171.812Z" fill="white"/>
<path d="M557.119 172.029V168.155H551.76V190.09H557.119V179.732C557.119 175.554 558.47 172.639 561.876 172.639H565.318V168.155H562.741C559.907 168.155 558.209 169.244 557.119 172.029Z" fill="white"/>
<path d="M571.477 174.162C571.477 172.682 572.741 171.812 574.658 171.812C576.358 171.812 578.23 172.846 578.536 174.901H583.416C583.196 170.637 579.668 167.808 574.522 167.808C569.992 167.808 566.637 170.494 566.637 174.335C566.637 183.607 578.663 178.949 578.663 183.824C578.663 185.129 577.269 186.175 575.177 186.175C572.78 186.175 571.169 184.869 570.952 182.78H566.07C566.331 187.481 569.862 190.44 575.171 190.44C580.311 190.44 583.666 187.741 583.666 183.607C583.676 173.682 571.477 178.906 571.477 174.162Z" fill="white"/>
<path d="M480.637 136.085H480.451L479.892 133.752H477.023V147.621H480.811V140.563C480.811 139.445 481.148 138.577 481.824 137.957C482.5 137.337 483.441 137.027 484.647 137.027C485.024 137.02 485.4 137.062 485.766 137.151L486.05 133.603C485.629 133.521 485.2 133.484 484.772 133.492C483.925 133.49 483.097 133.738 482.391 134.205C481.658 134.675 481.055 135.322 480.637 136.085Z" fill="white"/>
<path d="M467.786 147.621H471.573V136.593H474.851V133.752H471.573V132.884C471.555 132.449 471.681 132.019 471.933 131.663C472.173 131.345 472.562 131.186 473.101 131.186C473.819 131.198 474.53 131.319 475.211 131.545L476.185 128.766C475.068 128.361 473.886 128.163 472.698 128.184C470.983 128.184 469.736 128.547 468.959 129.275C468.181 130.002 467.792 131.156 467.792 132.736V133.752L465.707 134.771V136.593H467.792L467.786 147.621Z" fill="white"/>
<path d="M497.773 134.362C496.694 133.766 495.478 133.466 494.246 133.492C492.103 133.492 490.439 134.121 489.255 135.378C488.07 136.636 487.479 138.397 487.48 140.662C487.453 141.982 487.737 143.291 488.308 144.482C488.819 145.536 489.637 146.411 490.655 146.993C491.731 147.595 492.949 147.9 494.182 147.877C496.308 147.877 497.967 147.24 499.158 145.966C500.35 144.692 500.946 142.926 500.947 140.67C500.976 139.353 500.692 138.048 500.12 136.862C499.608 135.811 498.789 134.94 497.773 134.362ZM496.401 143.78C495.959 144.48 495.23 144.829 494.223 144.829C493.216 144.829 492.469 144.478 492.018 143.776C491.567 143.073 491.342 142.034 491.342 140.662C491.342 139.29 491.565 138.248 492.012 137.562C492.459 136.876 493.187 136.529 494.198 136.529C495.21 136.529 495.948 136.872 496.395 137.562C496.842 138.252 497.065 139.279 497.065 140.662C497.065 142.044 496.844 143.083 496.401 143.78Z" fill="white"/>
<path d="M525.152 147.621V138.579C525.152 136.802 524.748 135.51 523.94 134.703C523.132 133.895 521.942 133.492 520.372 133.494C519.523 133.481 518.683 133.665 517.919 134.033C517.227 134.353 516.65 134.877 516.264 135.533H515.929C515.192 134.175 513.785 133.497 511.707 133.498C510.869 133.482 510.039 133.667 509.287 134.037C508.616 134.369 508.055 134.889 507.674 135.533H507.467L506.958 133.758H504.062V147.627H507.848V141.096C507.848 139.465 508.069 138.298 508.507 137.583C508.946 136.868 509.649 136.517 510.617 136.517C511.337 136.517 511.864 136.767 512.199 137.267C512.535 137.767 512.703 138.518 512.704 139.519V147.619H516.491V140.662C516.491 139.224 516.721 138.173 517.18 137.511C517.639 136.848 518.329 136.517 519.249 136.519C519.968 136.519 520.496 136.769 520.833 137.269C521.169 137.769 521.337 138.52 521.336 139.521V147.621H525.152Z" fill="white"/>
</g>
<defs>
<filter id="filter0_d_1114_5778" x="400" y="2" width="197" height="203" filterUnits="userSpaceOnUse" color-interpolation-filters="sRGB">
<feFlood flood-opacity="0" result="BackgroundImageFix"/>
<feColorMatrix in="SourceAlpha" type="matrix" values="0 0 0 0 0 0 0 0 0 0 0 0 0 0 0 0 0 0 127 0" result="hardAlpha"/>
<feOffset dy="4"/>
<feGaussianBlur stdDeviation="2"/>
<feComposite in2="hardAlpha" operator="out"/>
<feColorMatrix type="matrix" values="0 0 0 0 0 0 0 0 0 0 0 0 0 0 0 0 0 0 0.25 0"/>
<feBlend mode="normal" in2="BackgroundImageFix" result="effect1_dropShadow_1114_5778"/>
<feBlend mode="normal" in="SourceGraphic" in2="effect1_dropShadow_1114_5778" result="shape"/>
</filter>
</defs>
</svg>
