<?xml version="1.0" standalone="no"?>
<!DOCTYPE svg PUBLIC "-//W3C//DTD SVG 20010904//EN"
 "http://www.w3.org/TR/2001/REC-SVG-20010904/DTD/svg10.dtd">
<svg version="1.0" xmlns="http://www.w3.org/2000/svg"
 width="700.000000pt" height="700.000000pt" viewBox="0 0 700.000000 700.000000"
 preserveAspectRatio="xMidYMid meet">

<g transform="translate(0.000000,700.000000) scale(0.100000,-0.100000)" stroke="none">
<path d="M3375 6908 c-100 -59 -216 -126 -480 -278 -16 -10 -64 -37 -105 -60
-41 -24 -268 -155 -503 -291 -235 -137 -447 -259 -470 -273 -23 -13 -58 -32
-77 -44 -384 -222 -1115 -645 -1145 -662 -22 -12 -55 -31 -73 -42 l-32 -20 2
-1746 3 -1747 280 -163 c154 -90 287 -166 295 -170 8 -4 35 -19 60 -33 25 -15
261 -152 525 -304 264 -153 707 -409 985 -570 278 -160 575 -332 660 -380 85
-48 166 -96 180 -105 25 -18 25 -18 454 231 236 137 430 249 432 249 1 0 24
13 51 29 54 33 1096 636 1158 671 22 12 246 142 498 287 l457 266 -2 1746 -3
1746 -215 123 c-118 68 -348 201 -510 295 -244 141 -424 245 -705 407 -16 10
-73 42 -125 72 -52 30 -284 164 -515 297 -231 134 -536 310 -677 392 -141 82
-263 149 -270 148 -7 0 -67 -32 -133 -71z m469 -530 c182 -105 372 -215 421
-243 211 -123 1074 -621 1472 -851 l432 -249 -2 -1539 -2 -1540 -115 -66
c-236 -136 -1494 -864 -2008 -1162 l-533 -309 -232 134 c-128 74 -254 147
-282 162 -27 16 -270 156 -540 313 -269 156 -508 294 -530 307 -59 33 -285
163 -703 405 l-372 215 3 1540 2 1540 170 99 c191 111 482 279 535 309 36 20
848 490 1555 900 215 125 392 227 394 227 2 0 153 -86 335 -192z"/>
<path d="M3270 6054 c-135 -79 -334 -197 -442 -261 l-198 -118 0 -2185 0
-2185 174 -113 c96 -61 177 -112 180 -112 3 0 6 495 6 1100 l0 1100 670 0 670
0 0 220 0 220 -670 0 -670 0 0 869 0 869 88 50 c239 135 427 236 441 236 9 1
214 -118 455 -263 242 -146 441 -260 443 -255 2 5 48 77 103 161 55 84 100
156 100 161 0 5 -118 78 -262 162 -145 85 -391 230 -546 322 -156 92 -287 168
-290 168 -4 -1 -117 -66 -252 -146z"/>
<path d="M2113 5319 l-193 -112 0 -881 c0 -484 -4 -874 -9 -866 -5 8 -32 96
-61 195 -28 99 -64 223 -80 275 -15 52 -47 160 -70 240 -23 80 -55 188 -70
240 -15 52 -47 160 -70 240 -58 203 -66 225 -74 224 -4 0 -76 -40 -160 -89
l-153 -88 -6 -681 c-4 -374 -7 -949 -7 -1277 l0 -596 158 -91 157 -91 5 882 5
882 39 -145 c61 -232 168 -633 246 -930 40 -151 103 -390 140 -530 37 -140 80
-303 95 -361 15 -59 30 -111 34 -117 3 -5 65 -44 136 -85 l130 -76 3 990 c1
545 1 1434 0 1975 l-3 984 -192 -111z"/>
<path d="M4749 5363 c-104 -162 -127 -199 -137 -219 -11 -20 4 -31 228 -175
l240 -154 0 -1599 c0 -1274 3 -1597 13 -1593 6 3 93 52 192 110 l180 105 5
1377 5 1376 100 -68 c182 -125 380 -259 393 -267 9 -6 12 39 12 211 l-1 218
-421 265 c-232 146 -440 277 -462 291 -147 94 -298 189 -300 189 -2 0 -23 -30
-47 -67z"/>
</g>
</svg>
