<!DOCTYPE svg PUBLIC "-//W3C//DTD SVG 20010904//EN" "http://www.w3.org/TR/2001/REC-SVG-20010904/DTD/svg10.dtd">
<svg version="1.0" xmlns="http://www.w3.org/2000/svg" width="799px" height="249px" viewBox="0 0 7990 2490" preserveAspectRatio="xMidYMid meet">
<g id="layer101" fill="#141309" stroke="none">
 <path d="M2 1248 l3 -1243 3993 -3 3992 -2 0 1245 0 1245 -3995 0 -3995 0 2 -1242z"/>
 </g>
<g id="layer102" fill="#fefefe" stroke="none">
 <path d="M250 1255 l0 -1005 3765 0 3765 0 0 1005 0 1005 -3765 0 -3765 0 0 -1005z m850 204 l5 -226 30 -48 c43 -70 99 -98 187 -93 76 4 110 23 143 79 18 31 20 57 25 274 l5 240 75 0 75 0 3 -259 c3 -296 -4 -339 -64 -405 -53 -60 -114 -84 -209 -85 -107 0 -172 22 -230 81 l-45 45 0 -61 0 -61 -80 0 -80 0 0 375 0 376 78 -3 77 -3 5 -226z m1167 197 c29 -14 65 -42 80 -61 l28 -35 5 62 5 63 75 0 75 0 3 -372 2 -373 -80 0 -80 0 0 203 c0 212 -6 253 -43 307 -32 48 -65 69 -128 82 -52 11 -60 10 -105 -13 -88 -44 -88 -45 -94 -327 l-5 -247 -82 -3 -83 -3 0 259 c0 295 7 336 67 403 63 70 117 90 228 85 62 -3 93 -9 132 -30z m673 -191 c5 -200 7 -224 27 -260 43 -81 98 -115 186 -115 64 0 115 25 142 71 18 31 20 57 25 279 l5 245 77 3 c74 3 78 2 83 -20 2 -13 6 -118 7 -235 l3 -211 30 -44 c47 -66 95 -89 177 -86 78 4 111 23 142 84 19 35 21 61 26 274 l5 235 75 0 75 0 3 -250 c3 -288 -5 -345 -64 -413 -53 -63 -112 -86 -215 -86 -75 0 -93 3 -145 29 -39 20 -70 45 -93 75 -18 25 -36 46 -40 47 -3 1 -19 -19 -36 -45 -45 -71 -124 -107 -230 -106 -98 1 -168 28 -220 85 -19 22 -37 39 -40 39 -3 0 -5 -27 -5 -60 l0 -60 -80 0 -80 0 0 368 c0 203 3 372 7 376 4 4 39 5 78 4 l70 -3 5 -220z m1468 168 c2 -29 6 -53 11 -53 4 0 20 13 35 29 51 53 119 76 226 76 81 0 103 -4 150 -26 144 -68 220 -230 193 -411 -28 -193 -155 -309 -343 -312 -96 -1 -166 22 -219 75 -23 21 -43 39 -46 39 -2 0 -6 -91 -7 -202 l-3 -203 -75 0 -75 0 -3 510 c-1 281 0 516 3 523 3 9 25 12 77 10 l73 -3 3 -52z m1204 46 c81 -17 198 -84 198 -113 -1 -12 -66 -86 -77 -86 -3 0 -27 14 -53 30 -103 66 -228 63 -310 -7 -48 -42 -86 -113 -67 -125 7 -4 133 -8 280 -8 242 0 268 -2 274 -17 4 -9 1 -57 -5 -106 -14 -110 -46 -182 -108 -236 -63 -55 -128 -75 -239 -74 -143 1 -239 47 -313 151 -49 69 -65 136 -60 251 3 80 9 105 32 151 79 158 252 230 448 189z m568 -209 c5 -197 7 -219 27 -257 40 -74 120 -123 202 -123 l31 0 0 -81 0 -81 -42 7 c-70 11 -130 43 -175 92 l-43 46 0 -67 0 -66 -80 0 -80 0 0 368 c0 203 3 372 7 376 4 4 39 5 78 4 l70 -3 5 -215z m721 204 c104 -29 168 -107 169 -206 0 -60 -13 -95 -53 -136 -41 -43 -61 -53 -177 -91 -132 -43 -160 -62 -160 -106 0 -40 23 -59 81 -70 42 -8 138 14 199 45 l40 20 30 -60 30 -60 -32 -20 c-45 -28 -120 -49 -198 -56 -82 -8 -181 16 -230 54 -71 57 -99 158 -65 239 30 71 66 94 229 149 131 44 164 77 140 139 -26 66 -202 58 -317 -15 l-47 -30 -27 54 c-14 30 -23 60 -20 69 7 19 105 67 170 83 73 17 171 17 238 -2z"/>
 <path d="M4545 1532 c-84 -39 -129 -120 -129 -228 1 -176 164 -283 320 -210 117 54 161 207 98 334 -41 80 -91 113 -181 119 -52 3 -77 -1 -108 -15z"/>
 <path d="M5294 1223 c11 -45 59 -106 101 -130 31 -17 56 -23 108 -23 101 0 159 34 192 113 29 70 38 67 -196 67 l-211 0 6 -27z"/>
 </g>

</svg>