<svg width="42" height="45" viewBox="0 0 42 45" fill="none" xmlns="http://www.w3.org/2000/svg">
<path d="M35.7958 22.6725L19.5646 1.74637C19.3139 1.42548 19.5402 0.950302 19.9499 0.950302H24.6774C24.9771 0.950302 25.2645 1.09224 25.448 1.32674L41.0615 21.4568C41.3319 21.8045 41.4789 22.2337 41.4789 22.6756C41.4789 23.1176 41.3319 23.5467 41.0615 23.8944L25.448 44.0183C25.2645 44.259 24.9771 44.3947 24.6774 44.3947H19.9499C19.5402 44.3947 19.3139 43.9196 19.5646 43.5987L35.7958 22.6725ZM17.2039 22.6725L0.972729 1.74637C0.721985 1.42548 0.948265 0.950302 1.35802 0.950302H6.0855C6.38517 0.950302 6.67262 1.09224 6.85609 1.32674L22.4696 21.4568C22.74 21.8045 22.887 22.2337 22.887 22.6756C22.887 23.1176 22.74 23.5467 22.4696 23.8944L6.85609 44.0183C6.67262 44.259 6.38517 44.3947 6.0855 44.3947H1.35802C0.948265 44.3947 0.721985 43.9196 0.972729 43.5987L17.2039 22.6725Z" fill="black"/>
</svg>
