<svg width="80" height="80" viewBox="0 0 80 80" fill="none" xmlns="http://www.w3.org/2000/svg">
<path d="M26.7389 7.98487C29.2556 3.23696 34.2474 0 40 0C45.7526 0 50.7444 3.23696 53.2611 7.98486C58.398 6.40716 64.2166 7.648 68.2843 11.7157C72.352 15.7834 73.5928 21.602 72.0151 26.7389C76.763 29.2556 80 34.2474 80 40C80 45.7526 76.763 50.7444 72.0151 53.2611C73.5928 58.398 72.352 64.2166 68.2843 68.2843C64.2166 72.352 58.398 73.5928 53.2611 72.0151C50.7444 76.763 45.7526 80 40 80C34.2474 80 29.2556 76.763 26.7389 72.0151C21.602 73.5928 15.7834 72.352 11.7157 68.2843C7.64804 64.2166 6.40719 58.398 7.98488 53.2611C3.23696 50.7444 0 45.7526 0 40C0 34.2474 3.23696 29.2556 7.98487 26.7389C6.40716 21.602 7.64802 15.7834 11.7157 11.7157C15.7834 7.64801 21.602 6.40717 26.7389 7.98487Z" fill="#486CD9"/>
<path d="M48.9604 29.7396L39.2191 20H30.4034L19.9988 30.4046V49.625H29.4971C30.0771 49.6253 30.6334 49.8551 31.0444 50.2644L40.7792 60.0072H49.5966L60.0012 49.6026V30.3806H50.5077C50.2203 30.3807 49.9357 30.3241 49.6702 30.2142C49.4047 30.1042 49.1635 29.9429 48.9604 29.7396ZM47.3619 49.5466H32.6557C32.0753 49.5466 31.5187 49.3161 31.1083 48.9057C30.6979 48.4953 30.4673 47.9387 30.4673 47.3583V32.6521C30.4665 32.0726 30.6956 31.5163 31.1043 31.1055C31.5131 30.6946 32.0681 30.4627 32.6477 30.4606H47.3539C47.9343 30.4606 48.4909 30.6911 48.9013 31.1015C49.3117 31.5119 49.5422 32.0685 49.5422 32.6489V47.3551C49.5426 47.6425 49.4864 47.9271 49.3769 48.1928C49.2673 48.4584 49.1064 48.6999 48.9035 48.9034C48.7006 49.1069 48.4596 49.2685 48.1943 49.3788C47.9289 49.4892 47.6444 49.5462 47.3571 49.5466H47.3619Z" fill="white"/>
</svg>
