<!DOCTYPE svg PUBLIC "-//W3C//DTD SVG 20010904//EN" "http://www.w3.org/TR/2001/REC-SVG-20010904/DTD/svg10.dtd">
<svg version="1.0" xmlns="http://www.w3.org/2000/svg" width="360px" height="381px" viewBox="0 0 3600 3810" preserveAspectRatio="xMidYMid meet">
<g id="layer101" fill="#000000" stroke="none">
 <path d="M1673 3796 c-135 -33 -126 -26 -727 -629 -308 -309 -599 -607 -648 -662 -128 -143 -236 -330 -273 -471 -22 -84 -22 -1504 0 -1607 37 -175 167 -324 340 -390 l60 -22 1350 -3 c947 -2 1366 1 1403 9 136 28 289 143 350 265 65 129 63 93 60 940 l-3 769 -29 85 c-74 219 -129 293 -547 720 -780 797 -900 915 -965 948 -116 60 -251 77 -371 48z"/>
 </g>
<g id="layer102" fill="#fefefe" stroke="none">
 <path d="M1800 3168 c-48 -13 -273 -241 -362 -368 -131 -184 -241 -442 -288 -668 -27 -134 -41 -331 -29 -423 34 -271 207 -487 464 -575 103 -36 264 -44 370 -20 123 29 228 89 326 186 74 73 93 99 132 180 54 115 66 162 77 303 7 91 13 118 39 172 64 129 178 208 325 224 88 10 122 28 143 78 21 51 10 95 -33 132 -31 28 -42 31 -97 31 -143 0 -294 -62 -406 -166 -136 -126 -196 -256 -211 -456 -17 -219 -93 -338 -268 -421 -63 -30 -73 -32 -183 -32 -113 0 -117 1 -190 37 -93 46 -168 122 -212 215 l-32 68 0 165 c0 135 5 184 23 269 31 139 73 254 139 383 79 155 161 266 301 405 120 120 122 123 122 167 0 80 -72 134 -150 114z"/>
 <path d="M2330 2850 c-157 -82 -301 -204 -410 -348 -70 -92 -164 -286 -195 -402 -30 -113 -51 -281 -41 -332 19 -103 135 -139 206 -63 18 19 24 42 31 112 13 138 28 209 59 295 84 229 251 419 464 528 95 49 114 64 132 106 18 42 3 95 -37 128 -48 41 -95 35 -209 -24z"/>
 <path d="M685 2431 c-36 -16 -56 -49 -75 -123 -41 -163 -55 -286 -55 -498 1 -221 14 -304 72 -460 238 -633 934 -968 1569 -755 306 103 570 328 717 612 83 160 137 362 137 509 0 56 -3 67 -31 98 -38 44 -83 54 -132 31 -53 -25 -67 -55 -78 -161 -64 -622 -655 -1035 -1259 -880 -358 92 -637 371 -731 734 -41 159 -35 423 15 674 25 125 22 159 -18 197 -27 25 -97 37 -131 22z"/>
 </g>

</svg>