<svg width="291" height="256" viewBox="0 0 291 256" fill="none" xmlns="http://www.w3.org/2000/svg">
<path d="M257.333 169C257.334 143.5 257.334 23.9167 257.334 23.9167C257.334 10.7625 246.571 2.95767e-05 233.417 2.84267e-05C233.417 2.84267e-05 114.5 1.58014e-05 89 1.58014e-05C63.5 1.58014e-05 66.0002 23.9167 66.0002 23.9167L199.5 23.9167C199.5 23.9167 233.417 19.5 233.417 51.5C233.417 83.5 233.417 191.333 233.417 191.333C233.417 191.333 257.333 194.5 257.333 169Z" fill="white"/>
<path d="M224.167 197.417V53.9167C224.167 40.7625 213.404 30 200.25 30H56.75C43.5958 30 32.8333 40.7625 32.8333 53.9167V197.417C32.8333 210.571 43.5958 221.333 56.75 221.333H200.25C213.404 221.333 224.167 210.571 224.167 197.417ZM92.625 149.583L116.9 181.99L152.417 137.625L200.25 197.417H56.75L92.625 149.583ZM0 118.833V231.25C0 244.404 10.7625 255.167 23.9167 255.167H176.333V231.25H23.9167V118.833H0Z" fill="white"/>
<path d="M291 115V231.25C291 244.313 280.312 255 267.25 255H101V231.25H267.25V115H291Z" fill="white"/>
</svg>
