<svg width="24" height="24" viewBox="0 0 24 24" fill="none" xmlns="http://www.w3.org/2000/svg">
<path d="M17.14 13.6C16.13 13.6 15.19 14.01 14.48 14.72C14.38 14.82 14.31 14.93 14.23 15.03L9.37 12.56C9.47 12.22 9.54 11.87 9.54 11.5C9.54 11.17 9.49 10.86 9.41 10.55L14.23 8.1C14.92 8.96 15.97 9.53 17.17 9.54H17.18C18.18 9.54 19.12 9.15 19.83 8.45C20.54 7.74 20.94 6.8 20.94 5.8C20.95 3.72 19.27 2.02 17.19 2C16.16 2.03 15.23 2.38 14.51 3.09C13.79 3.8 13.39 4.74 13.39 5.75C13.39 6.11 13.45 6.45 13.54 6.78L8.75 9.22C8.07 8.32 7 7.73 5.79 7.72H5.77C3.7 7.71 2.01 9.38 2 11.46C2 12.47 2.38 13.42 3.09 14.13C3.8 14.85 4.74 15.25 5.77 15.25H5.78C6.78 15.25 7.72 14.86 8.43 14.16C8.52 14.07 8.58 13.97 8.66 13.88L13.54 16.37C13.45 16.7 13.39 17.04 13.39 17.4C13.4 19.47 15.09 21.15 17.16 21.15H17.18C19.26 21.14 20.94 19.43 20.93 17.35C20.93 16.35 20.53 15.4 19.82 14.69C19.11 13.98 18.21 13.6 17.13 13.6H17.14ZM15.57 4.16C16 3.74 16.56 3.51 17.16 3.51H17.18C18.43 3.51 19.45 4.55 19.44 5.8C19.44 7.05 18.42 8.06 17.16 8.06C15.91 8.06 14.89 7.02 14.9 5.77C14.9 5.16 15.14 4.59 15.58 4.17L15.57 4.16ZM5.76 13.75C5.15 13.75 4.58 13.51 4.16 13.07C3.74 12.63 3.5 12.07 3.51 11.46C3.51 10.21 4.54 9.2 5.78 9.2H5.79C7.04 9.2 8.06 10.24 8.05 11.49C8.05 12.1 7.81 12.66 7.38 13.09C6.95 13.51 6.39 13.75 5.77 13.75H5.76ZM19.44 17.35C19.44 18.6 18.44 19.63 17.18 19.64H17.17C15.92 19.64 14.91 18.63 14.9 17.38C14.9 17.01 14.99 16.66 15.16 16.34C15.26 16.13 15.39 15.94 15.56 15.77C15.99 15.34 16.55 15.1 17.18 15.09C17.78 15.09 18.35 15.32 18.77 15.75C19.2 16.18 19.44 16.74 19.44 17.35Z" fill="white"/>
</svg>
