<svg width="24" height="25" viewBox="0 0 24 25" fill="none" xmlns="http://www.w3.org/2000/svg">
<path d="M8.00633 18.4769L12.7784 23.2529H17.4469L23.25 17.4498V6.97801H18.3825C18.4433 7.17407 18.475 7.37985 18.475 7.58889V16.411V16.4121H17.725C17.7252 16.5845 17.6915 16.7553 17.6258 16.9146C17.56 17.074 17.4635 17.2189 17.3418 17.341C17.2201 17.4631 17.0755 17.56 16.9163 17.6262C16.758 17.6921 16.5883 17.7263 16.4169 17.7269L8.00633 18.4769ZM8.00633 18.4769H16.414H16.4151H8.00633ZM11.2209 0.75L15.9976 5.52596L5.53076 7.59081V7.59117V16.414C5.53076 16.6227 5.56238 16.8281 5.62298 17.0239H0.75V6.55306L6.55306 0.75H11.2209Z" stroke="white" stroke-width="1.5"/>
</svg>
