<svg width="37" height="36" viewBox="0 0 37 36" fill="none" xmlns="http://www.w3.org/2000/svg">
<path d="M17.5 24.125C18.65 24.125 19.625 23.725 20.425 22.925C21.225 22.125 21.625 21.15 21.625 20C21.625 18.85 21.225 17.875 20.425 17.075C19.625 16.275 18.65 15.875 17.5 15.875C16.35 15.875 15.375 16.275 14.575 17.075C13.775 17.875 13.375 18.85 13.375 20C13.375 21.15 13.775 22.125 14.575 22.925C15.375 23.725 16.35 24.125 17.5 24.125ZM9.8 27.5C9.3 27.5 8.875 27.325 8.525 26.975C8.175 26.625 8 26.2 8 25.7V14.3C8 13.8 8.175 13.375 8.525 13.025C8.875 12.675 9.3 12.5 9.8 12.5H12.85L14.175 11.075C14.3417 10.9083 14.5417 10.7707 14.775 10.662C15.0083 10.554 15.25 10.5 15.5 10.5H19.85C20.1 10.5 20.3127 10.5873 20.488 10.762C20.6627 10.9373 20.75 11.15 20.75 11.4V14L9.8 14.3H9.5V25.7C9.5 25.7833 9.52933 25.8543 9.588 25.913C9.646 25.971 9.71667 26 9.8 26H25.2C25.2833 26 25.3543 25.971 25.413 25.913C25.471 25.8543 25.5 25.7833 25.5 25.7V16.75H26.1C26.05 16.75 26.071 16.775 26.163 16.825C26.2543 16.875 26.3627 16.9417 26.488 17.025C26.6127 17.1083 26.729 17.2083 26.837 17.325C26.9457 17.4417 27 17.55 27 17.65V25.7C27 26.2 26.825 26.625 26.475 26.975C26.125 27.325 25.7 27.5 25.2 27.5H9.8ZM25.5 12H24.25C24.05 12 23.875 11.929 23.725 11.787C23.575 11.6457 23.5 11.4667 23.5 11.25C23.5 11.0333 23.575 10.8543 23.725 10.713C23.875 10.571 24.05 10.5 24.25 10.5H25.5V9.25C25.5 9.03333 25.575 8.854 25.725 8.712C25.875 8.57067 26.05 8.5 26.25 8.5C26.4667 8.5 26.646 8.57067 26.788 8.712C26.9293 8.854 27 9.03333 27 9.25V10.5H28.25C28.4667 10.5 28.646 10.571 28.788 10.713C28.9293 10.8543 29 11.0333 29 11.25C29 11.4667 28.9293 11.6457 28.788 11.787C28.646 11.929 28.4667 12 28.25 12H27V13.25C27 13.4667 26.9293 13.6457 26.788 13.787C26.646 13.929 26.4667 14 26.25 14C26.05 14 25.875 13.929 25.725 13.787C25.575 13.6457 25.5 13.4667 25.5 13.25V12ZM9.5 14.3V26V14.3Z" fill="white"/>
</svg>
