<?xml version="1.0" encoding="UTF-8"?><svg id="Layer_1" xmlns="http://www.w3.org/2000/svg" viewBox="0 0 2267.43 546.46"><defs><style>.cls-1{fill:#fff;}</style></defs><path class="cls-1" d="M372.97,402.66H173.53c-16.38,0-29.67-13.29-29.67-29.67V173.52c0-16.39,13.29-29.67,29.67-29.67h199.46c16.39,0,29.67,13.29,29.67,29.67v199.46c0,16.39-13.29,29.67-29.67,29.67l-.02,.02Zm21.74-268.57L262.64,2h-119.56L2,143.08V403.7H130.79c7.87,0,15.41,3.12,20.98,8.69l132.07,132.06h119.56l141.08-141.08V142.78h-128.79c-7.87,0-15.41-3.12-20.98-8.69Z"/><path class="cls-1" d="M1082.14,304.72v-12.03h-76.04c-32.27,0-49.78,12.03-49.78,34.46,0,19.7,12.57,38.3,49.78,38.3,47.06,0,76.04-25.71,76.04-60.73Zm0,30.08h-.54c-11.49,47.06-45.95,70.57-90.28,70.57-49.78,0-82.06-24.08-82.06-72.22,0-44.87,28.44-78.23,90.28-78.23h82.61v-13.68c0-39.92-15.32-61.82-55.79-61.82-36.65,0-56.9,16.95-64.01,59.08l-45.41-6.56c8.75-59.63,43.76-93.01,111.06-93.01,71.12,0,101.76,36.11,101.76,101.76v159.21h-47.59v-65.11h-.02Z"/><path class="cls-1" d="M1367.14,271.36c0-57.44-24.08-90.28-75.49-90.28-48.14,0-78.79,31.73-78.79,88.63v3.84c0,54.71,30.63,90.28,78.79,90.28s75.49-33.92,75.49-92.44v-.02Zm-57.44,135.12c-56.35,0-85.9-31.19-96.28-82.61h-.54v151.54h-47.6V144.43h47.6v74.95h1.08c10.95-50.87,41.03-81.52,95.19-81.52,68.93,0,105.04,51.44,105.04,133.5s-38.3,135.12-104.5,135.12"/><path class="cls-1" d="M1451.39,185.46h-37.76v-41.03h37.76V73.85h47.6v70.57h81.52v41.03h-81.52v131.85c0,28.44,10.94,43.22,39.38,43.22,13.68,0,25.16-2.73,38.84-6.57l6.03,43.76c-17.52,5.46-31.19,8.76-54.71,8.76-53.62,0-77.14-35.01-77.14-82.61V185.46Z"/><path class="cls-1" d="M1793.86,330.99h-.54c-10.94,51.98-44.3,75.49-89.17,75.49-66.2,0-89.17-43.76-89.17-98.47V144.43h47.6v151.53c0,35.01,15.32,66.74,61.27,66.74s70.04-24.08,70.04-66.74V144.43h47.59v255.49h-47.59v-68.93h-.02Z"/><path class="cls-1" d="M1880.84,399.91V144.43h47.6v78.79h1.08c10.4-59.63,34.46-78.79,75.49-78.79h15.87v52.52h-22.97c-48.14,0-69.47,18.6-69.47,67.84v135.12h-47.6Z"/><path class="cls-1" d="M2067.38,250.03h153.18c-3.27-45.41-26.81-71.12-73.85-71.12-43.76,0-72.76,23.52-79.33,71.12Zm-48.68,24.06c0-85.33,51.98-136.23,129.66-136.23s117.07,48.68,117.07,118.71c0,8.21,0,18.6-1.09,30.63h-198.04c4.92,49.78,33.92,77.14,82.6,77.14,45.96,0,64.01-23.51,72.76-53.62l42.11,12.59c-13.13,50.33-49.78,82.61-114.88,82.61-78.77,0-130.2-48.14-130.2-131.85v.02Z"/><path class="cls-1" d="M766.48,362.72c-50.87,0-83.14-33.38-83.14-90.28,0-60.73,33.38-90.82,81.52-90.82,41.27,0,63.53,21.31,74.09,56.23l47.32-4.66c-12.64-60.41-48.77-95.32-120.86-95.32-76.04,0-130.75,49.78-130.75,134.04s52.52,134.58,132.39,134.58c72.22,0,109.42-38.84,120.9-103.39l-45.41-9.3c-9.84,38.85-26.25,68.93-76.03,68.93h-.02Z"/></svg>