<svg width="25" height="24" viewBox="0 0 25 24" fill="none" xmlns="http://www.w3.org/2000/svg">
<path opacity="0.4" d="M17.3843 5.11485H14.4413C13.7081 5.11969 13.012 4.79355 12.5474 4.22751L11.5782 2.88762C11.1214 2.31661 10.4253 1.98894 9.69321 2.00028H7.61261C3.87819 2.00028 2.50001 4.19201 2.50001 7.91884V11.9474C2.49536 12.3904 22.4956 12.3898 22.4969 11.9474V10.7761C22.5147 7.04924 21.1721 5.11485 17.3843 5.11485Z" fill="white"/>
<path fill-rule="evenodd" clip-rule="evenodd" d="M21.3321 6.54346C21.6521 6.91754 21.8993 7.34785 22.0612 7.81236C22.3798 8.76704 22.5273 9.77029 22.4969 10.7761V16.0291C22.4956 16.4716 22.463 16.9134 22.3991 17.3513C22.2775 18.124 22.0057 18.8655 21.5989 19.5341C21.4119 19.8571 21.1849 20.1552 20.9231 20.4214C19.7383 21.5089 18.165 22.0749 16.5574 21.992H8.43061C6.82049 22.0743 5.24462 21.5085 4.05601 20.4214C3.7974 20.1547 3.57337 19.8566 3.38915 19.5341C2.98475 18.866 2.71869 18.1237 2.6067 17.3513C2.53549 16.9141 2.49981 16.472 2.5 16.0291V10.7761C2.49983 10.3374 2.52357 9.89895 2.57113 9.46281C2.58113 9.38629 2.59614 9.31101 2.61098 9.23652C2.63573 9.11233 2.66005 8.99031 2.66005 8.86829C2.75031 8.34196 2.91496 7.83109 3.14908 7.35094C3.84261 5.86908 5.26525 5.11484 7.59481 5.11484H17.3754C18.6802 5.01393 19.9753 5.40673 21.0032 6.21515C21.1215 6.31552 21.2316 6.42532 21.3321 6.54346ZM7.47033 15.5411H17.5355H17.5533C17.7741 15.5507 17.9896 15.4716 18.1517 15.3216C18.3137 15.1715 18.4088 14.963 18.4157 14.7425C18.4282 14.5487 18.3644 14.3576 18.2379 14.2101C18.0924 14.0118 17.8618 13.8934 17.6155 13.8906H7.47033C7.01365 13.8906 6.64343 14.2601 6.64343 14.7159C6.64343 15.1716 7.01365 15.5411 7.47033 15.5411Z" fill="white"/>
</svg>
