<svg width="40" height="40" viewBox="0 0 40 40" fill="none" xmlns="http://www.w3.org/2000/svg">
<path d="M14.9 22.85C15.0667 22.85 15.2083 22.7917 15.325 22.675C15.4417 22.5583 15.5 22.4167 15.5 22.25V20.85H17.8V22.25C17.8 22.4167 17.8583 22.5583 17.975 22.675C18.0917 22.7917 18.2333 22.85 18.4 22.85C18.5667 22.85 18.7083 22.7917 18.825 22.675C18.9417 22.5583 19 22.4167 19 22.25V17.75C19 17.5833 18.9417 17.4417 18.825 17.325C18.7083 17.2083 18.5667 17.15 18.4 17.15C18.2333 17.15 18.0917 17.2083 17.975 17.325C17.8583 17.4417 17.8 17.5833 17.8 17.75V19.65H15.5V17.75C15.5 17.5833 15.4417 17.4417 15.325 17.325C15.2083 17.2083 15.0667 17.15 14.9 17.15C14.7333 17.15 14.5917 17.2083 14.475 17.325C14.3583 17.4417 14.3 17.5833 14.3 17.75V22.25C14.3 22.4167 14.3583 22.5583 14.475 22.675C14.5917 22.7917 14.7333 22.85 14.9 22.85ZM21.45 22.85H24.65C24.95 22.85 25.2 22.75 25.4 22.55C25.6 22.35 25.7 22.1 25.7 21.8V18.2C25.7 17.9 25.6 17.65 25.4 17.45C25.2 17.25 24.95 17.15 24.65 17.15H21.45C21.3333 17.15 21.229 17.1957 21.137 17.287C21.0457 17.379 21 17.4917 21 17.625V22.375C21 22.5083 21.0457 22.6207 21.137 22.712C21.229 22.804 21.3333 22.85 21.45 22.85ZM22.2 21.65V18.35H24.35C24.3833 18.35 24.4167 18.3667 24.45 18.4C24.4833 18.4333 24.5 18.4667 24.5 18.5V21.5C24.5 21.5333 24.4833 21.5667 24.45 21.6C24.4167 21.6333 24.3833 21.65 24.35 21.65H22.2ZM12.3 27.5C11.8 27.5 11.375 27.325 11.025 26.975C10.675 26.625 10.5 26.2 10.5 25.7V14.3C10.5 13.8 10.675 13.375 11.025 13.025C11.375 12.675 11.8 12.5 12.3 12.5H27.7C28.2 12.5 28.625 12.675 28.975 13.025C29.325 13.375 29.5 13.8 29.5 14.3V25.7C29.5 26.2 29.325 26.625 28.975 26.975C28.625 27.325 28.2 27.5 27.7 27.5H12.3Z" fill="white"/>
</svg>
