<svg width="40" height="40" viewBox="0 0 40 40" fill="none" xmlns="http://www.w3.org/2000/svg">
<path fill-rule="evenodd" clip-rule="evenodd" d="M12 13C10.8954 13 10 13.8954 10 15V26C10 27.1046 10.8954 28 12 28H27C28.1046 28 29 27.1046 29 26V15C29 13.8954 28.1046 13 27 13H12ZM13.3793 18.6364V23H16.1726V22.2393H14.3018V18.6364H13.3793ZM20.353 22.0327C20.5334 21.6989 20.6236 21.294 20.6236 20.8182C20.6236 20.3423 20.5334 19.9375 20.353 19.6037C20.174 19.2699 19.9297 19.0156 19.62 18.8409C19.3118 18.6648 18.9652 18.5767 18.5803 18.5767C18.1925 18.5767 17.8445 18.6648 17.5362 18.8409C17.228 19.0156 16.9844 19.2699 16.8054 19.6037C16.6264 19.9375 16.5369 20.3423 16.5369 20.8182C16.5369 21.2926 16.6264 21.6967 16.8054 22.0305C16.9844 22.3643 17.228 22.6193 17.5362 22.7955C17.8445 22.9716 18.1925 23.0597 18.5803 23.0597C18.9652 23.0597 19.3118 22.9723 19.62 22.7976C19.9297 22.6214 20.174 22.3665 20.353 22.0327ZM19.5497 20.0384C19.642 20.25 19.6882 20.5099 19.6882 20.8182C19.6882 21.1264 19.642 21.3864 19.5497 21.598C19.4588 21.8097 19.3303 21.9702 19.1641 22.0795C18.9979 22.1889 18.8033 22.2436 18.5803 22.2436C18.3572 22.2436 18.1626 22.1889 17.9964 22.0795C17.8303 21.9702 17.701 21.8097 17.6087 21.598C17.5178 21.3864 17.4723 21.1264 17.4723 20.8182C17.4723 20.5099 17.5178 20.25 17.6087 20.0384C17.701 19.8267 17.8303 19.6662 17.9964 19.5568C18.1626 19.4474 18.3572 19.3928 18.5803 19.3928C18.8033 19.3928 18.9979 19.4474 19.1641 19.5568C19.3303 19.6662 19.4588 19.8267 19.5497 20.0384ZM21.8844 18.6364H20.8766L22.1252 23H23.0243L23.8532 20.147H23.8873L24.7182 23H25.6174L26.8659 18.6364H25.8581L25.1358 21.6747H25.0975L24.3027 18.6364H23.4398L22.6429 21.6683H22.6067L21.8844 18.6364Z" fill="white"/>
</svg>
