<svg width="24" height="24" viewBox="0 0 24 24" fill="none" xmlns="http://www.w3.org/2000/svg">
<mask id="mask0_343_2982" style="mask-type:alpha" maskUnits="userSpaceOnUse" x="0" y="0" width="24" height="24">
<rect width="24" height="24" fill="#D9D9D9"/>
</mask>
<g mask="url(#mask0_343_2982)">
<path d="M17.25 22.75V18.75H7.05C6.55 18.75 6.125 18.575 5.775 18.225C5.425 17.875 5.25 17.45 5.25 16.95V6.75H1.25V5.25H5.25V1.25H6.75V16.95C6.75 17.0167 6.78333 17.0833 6.85 17.15C6.91667 17.2167 6.98333 17.25 7.05 17.25H22.75V18.75H18.75V22.75H17.25ZM17.25 15.75V7.05C17.25 6.98333 17.2167 6.91667 17.15 6.85C17.0833 6.78333 17.0167 6.75 16.95 6.75H8.25V5.25H16.95C17.45 5.25 17.875 5.425 18.225 5.775C18.575 6.125 18.75 6.55 18.75 7.05V15.75H17.25Z" fill="white"/>
</g>
</svg>
