<svg width="24" height="24" viewBox="0 0 24 24" fill="none" xmlns="http://www.w3.org/2000/svg">
<path fill-rule="evenodd" clip-rule="evenodd" d="M12.2413 3.54098C13.9113 2.50098 15.9813 2.22098 17.8813 2.82098H17.8713C21.9413 4.13098 23.2013 8.56098 22.0713 12.081C20.3313 17.611 12.9113 21.741 12.5913 21.911C12.4813 21.971 12.3613 22.001 12.2313 22.001C12.1013 22.001 11.9813 21.971 11.8713 21.911C11.5613 21.741 4.19134 17.671 2.39134 12.081C1.27134 8.55098 2.52134 4.13098 6.58134 2.82098C8.48134 2.21098 10.5613 2.48098 12.2413 3.54098ZM12.2413 20.381C13.7113 19.501 19.2913 15.931 20.6513 11.621V11.631C21.5413 8.84098 20.7213 5.31098 17.4313 4.25098C15.8213 3.74098 14.0513 4.04098 12.6913 5.05098C12.4213 5.25098 12.0613 5.25098 11.7913 5.05098C10.4313 4.03098 8.66134 3.73098 7.04134 4.25098C3.76134 5.31098 2.94134 8.83098 3.83134 11.621C5.23134 15.991 10.7713 19.511 12.2413 20.381ZM10.9712 10.3109C10.9412 10.6709 11.0812 10.8609 12.4812 11.1209L12.4712 11.1009C13.4212 11.2709 15.4012 11.6409 15.4012 13.4509C15.4012 14.4909 14.9212 15.0809 14.5112 15.4009C14.1112 15.7109 13.6012 15.9109 12.9812 15.9909V16.5109C12.9812 16.9209 12.6412 17.2609 12.2312 17.2609C11.8212 17.2609 11.4812 16.9209 11.4812 16.5109V15.9609C10.2812 15.7409 9.45117 15.0609 9.09117 13.9709C8.96117 13.5709 9.18117 13.1509 9.57117 13.0209C9.97117 12.8909 10.3912 13.1109 10.5212 13.5009C10.5222 13.5037 10.5232 13.5066 10.5242 13.5096C10.6168 13.7776 10.877 14.5309 12.3112 14.5309C12.9012 14.5309 13.3312 14.4309 13.5912 14.2209C13.7312 14.1109 13.9012 13.9209 13.9012 13.4509C13.9012 13.2409 13.9012 12.8909 12.1912 12.5709L12.1726 12.5674C11.1584 12.3767 9.31208 12.0295 9.46117 10.1709C9.53117 9.33087 9.95117 8.34087 11.4812 8.11087V7.64087C11.4812 7.23087 11.8212 6.89087 12.2312 6.89087C12.6412 6.89087 12.9812 7.23087 12.9812 7.64087V8.16087C13.7812 8.34087 14.4712 8.79087 14.9012 9.44087C15.1312 9.79087 15.0412 10.2509 14.6912 10.4809C14.3412 10.7109 13.8812 10.6109 13.6512 10.2709C13.5412 10.1109 13.1212 9.57087 12.1912 9.57087C11.0364 9.57087 11.0015 9.96726 10.9716 10.3063L10.9712 10.3109Z" fill="white"/>
</svg>
