<svg width="24" height="24" viewBox="0 0 24 24" fill="none" xmlns="http://www.w3.org/2000/svg">
<path d="M6.9 14.85C7.06667 14.85 7.20833 14.7917 7.325 14.675C7.44167 14.5583 7.5 14.4167 7.5 14.25V12.85H9.8V14.25C9.8 14.4167 9.85833 14.5583 9.975 14.675C10.0917 14.7917 10.2333 14.85 10.4 14.85C10.5667 14.85 10.7083 14.7917 10.825 14.675C10.9417 14.5583 11 14.4167 11 14.25V9.75C11 9.58333 10.9417 9.44167 10.825 9.325C10.7083 9.20833 10.5667 9.15 10.4 9.15C10.2333 9.15 10.0917 9.20833 9.975 9.325C9.85833 9.44167 9.8 9.58333 9.8 9.75V11.65H7.5V9.75C7.5 9.58333 7.44167 9.44167 7.325 9.325C7.20833 9.20833 7.06667 9.15 6.9 9.15C6.73333 9.15 6.59167 9.20833 6.475 9.325C6.35833 9.44167 6.3 9.58333 6.3 9.75V14.25C6.3 14.4167 6.35833 14.5583 6.475 14.675C6.59167 14.7917 6.73333 14.85 6.9 14.85ZM13.45 14.85H16.65C16.95 14.85 17.2 14.75 17.4 14.55C17.6 14.35 17.7 14.1 17.7 13.8V10.2C17.7 9.9 17.6 9.65 17.4 9.45C17.2 9.25 16.95 9.15 16.65 9.15H13.45C13.3333 9.15 13.229 9.19567 13.137 9.287C13.0457 9.379 13 9.49167 13 9.625V14.375C13 14.5083 13.0457 14.6207 13.137 14.712C13.229 14.804 13.3333 14.85 13.45 14.85ZM14.2 13.65V10.35H16.35C16.3833 10.35 16.4167 10.3667 16.45 10.4C16.4833 10.4333 16.5 10.4667 16.5 10.5V13.5C16.5 13.5333 16.4833 13.5667 16.45 13.6C16.4167 13.6333 16.3833 13.65 16.35 13.65H14.2ZM4.3 19.5C3.8 19.5 3.375 19.325 3.025 18.975C2.675 18.625 2.5 18.2 2.5 17.7V6.3C2.5 5.8 2.675 5.375 3.025 5.025C3.375 4.675 3.8 4.5 4.3 4.5H19.7C20.2 4.5 20.625 4.675 20.975 5.025C21.325 5.375 21.5 5.8 21.5 6.3V17.7C21.5 18.2 21.325 18.625 20.975 18.975C20.625 19.325 20.2 19.5 19.7 19.5H4.3ZM4.3 18C4.21667 18 4.146 17.971 4.088 17.913C4.02933 17.8543 4 17.7833 4 17.7V6.3C4 6.21667 4.02933 6.146 4.088 6.088C4.146 6.02933 4.21667 6 4.3 6C4.21667 6 4.146 6.02933 4.088 6.088C4.02933 6.146 4 6.21667 4 6.3V17.7C4 17.7833 4.02933 17.8543 4.088 17.913C4.146 17.971 4.21667 18 4.3 18ZM4.3 18H19.7C19.7833 18 19.8543 17.971 19.913 17.913C19.971 17.8543 20 17.7833 20 17.7V6.3C20 6.21667 19.971 6.146 19.913 6.088C19.8543 6.02933 19.7833 6 19.7 6H4.3C4.21667 6 4.146 6.02933 4.088 6.088C4.02933 6.146 4 6.21667 4 6.3V17.7C4 17.7833 4.02933 17.8543 4.088 17.913C4.146 17.971 4.21667 18 4.3 18Z" fill="white"/>
</svg>
