<svg width="24" height="24" viewBox="0 0 24 24" fill="none" xmlns="http://www.w3.org/2000/svg">
<mask id="mask0_1057_4003" style="mask-type:alpha" maskUnits="userSpaceOnUse" x="0" y="0" width="24" height="24">
<rect width="24" height="24" fill="#D9D9D9"/>
</mask>
<g mask="url(#mask0_1057_4003)">
<path d="M21 18.2749L19.5 16.7749V15.4999H18.225L16.725 13.9999H19.5V9.9999H15.5V12.7749L14 11.2749V9.9999H12.725L11.225 8.4999H14V4.4999H10V7.2749L8.50001 5.7749V4.4999H7.22501L5.72501 2.9999H19.2C19.7 2.9999 20.125 3.1749 20.475 3.5249C20.825 3.8749 21 4.2999 21 4.7999V18.2749ZM15.5 8.4999H19.5V4.7999C19.5 4.73324 19.4667 4.66657 19.4 4.5999C19.3333 4.53324 19.2667 4.4999 19.2 4.4999H15.5V8.4999ZM20.325 22.4499L18.85 20.9999H4.80001C4.30001 20.9999 3.87501 20.8249 3.52501 20.4749C3.17501 20.1249 3.00001 19.6999 3.00001 19.1999V5.0999L1.57501 3.6749C1.44168 3.54157 1.37101 3.37057 1.36301 3.1619C1.35435 2.9539 1.42501 2.7749 1.57501 2.6249C1.72501 2.4749 1.90001 2.3999 2.10001 2.3999C2.30001 2.3999 2.47501 2.4749 2.62501 2.6249L21.375 21.3749C21.5083 21.5082 21.5793 21.6789 21.588 21.8869C21.596 22.0956 21.5167 22.2832 21.35 22.4499C21.2167 22.5832 21.05 22.6499 20.85 22.6499C20.65 22.6499 20.475 22.5832 20.325 22.4499ZM15.5 19.4999H17.35L15.5 17.5999V19.4999ZM10 13.9999H11.85L10 12.0999V13.9999ZM10 19.4999H14V16.0999L13.35 15.4999H10V19.4999ZM4.50001 8.4999H6.35001L4.50001 6.5999V8.4999ZM4.50001 13.9999H8.50001V10.5999L7.85001 9.9999H4.50001V13.9999ZM8.50001 19.4999V15.4999H4.50001V19.1999C4.50001 19.2666 4.53335 19.3332 4.60001 19.3999C4.66668 19.4666 4.73335 19.4999 4.80001 19.4999H8.50001Z" fill="white"/>
</g>
</svg>
