<?xml version="1.0" encoding="utf-8"?>
<!-- Generator: Adobe Illustrator 26.4.1, SVG Export Plug-In . SVG Version: 6.00 Build 0)  -->
<svg version="1.1" id="Layer_1" xmlns="http://www.w3.org/2000/svg" xmlns:xlink="http://www.w3.org/1999/xlink" x="0px" y="0px"
	 viewBox="0 0 1000 1000" style="enable-background:new 0 0 1000 1000;" xml:space="preserve">
<g>
	<defs>
		<path id="SVGID_1_" d="M719.4,248.6L480.8,10h-216L10,264.9v470.8h232.7c14.2,0,27.9,5.6,37.9,15.7L519.2,990h216L990,735.1V264.3
			H757.3C743.1,264.3,729.5,258.7,719.4,248.6z M680.2,733.8H319.8c-29.6,0-53.6-24-53.6-53.6V319.8c0-29.6,24-53.6,53.6-53.6h360.3
			c29.6,0,53.6,24,53.6,53.6v360.3C733.8,709.8,709.8,733.8,680.2,733.8z"/>
	</defs>
	
		<linearGradient id="SVGID_00000127040970572937951070000016817291453220198033_" gradientUnits="userSpaceOnUse" x1="281.348" y1="-12.3966" x2="728.5941" y2="1035.6953">
		<stop  offset="0" style="stop-color:#E5B5FF"/>
		<stop  offset="0.1333" style="stop-color:#D17DFF"/>
		<stop  offset="0.1884" style="stop-color:#D17DFF"/>
		<stop  offset="0.4149" style="stop-color:#54AEEF"/>
		<stop  offset="0.7315" style="stop-color:#0C7FE6"/>
		<stop  offset="0.7926" style="stop-color:#0F82E6"/>
		<stop  offset="0.8416" style="stop-color:#1989E7"/>
		<stop  offset="0.8866" style="stop-color:#2A97E9"/>
		<stop  offset="0.929" style="stop-color:#42A9EC"/>
		<stop  offset="0.9693" style="stop-color:#60C1EF"/>
		<stop  offset="1" style="stop-color:#7DD8F2"/>
	</linearGradient>
	<use xlink:href="#SVGID_1_"  style="overflow:visible;fill:url(#SVGID_00000127040970572937951070000016817291453220198033_);"/>
	<clipPath id="SVGID_00000144312018056098059640000002059240735274717365_">
		<use xlink:href="#SVGID_1_"  style="overflow:visible;"/>
	</clipPath>
</g>
</svg>
