<svg width="20" height="21" viewBox="0 0 20 21" fill="none" xmlns="http://www.w3.org/2000/svg">
<g id="Plus">
<path id="Plus_2" fill-rule="evenodd" clip-rule="evenodd" d="M14.3588 0.5H5.6412C2.25586 0.5 0 2.9199 0 6.39317V14.6068C0 18.0833 2.24992 20.5 5.6412 20.5H14.3588C17.7501 20.5 20 18.0833 20 14.6068V6.39317C20 2.91665 17.7501 0.5 14.3588 0.5ZM5.6412 1.89535H14.3588C16.9563 1.89535 18.6047 3.66587 18.6047 6.39317V14.6068C18.6047 17.3341 16.9563 19.1047 14.3588 19.1047H5.6412C3.04372 19.1047 1.39535 17.3341 1.39535 14.6068V6.39317C1.39535 3.66949 3.04923 1.89535 5.6412 1.89535ZM10 6.38587C10.3532 6.38587 10.6451 6.64834 10.6913 6.98887L10.6977 7.08354V9.79347H13.4109C13.7962 9.79347 14.1085 10.1058 14.1085 10.4911C14.1085 10.8444 13.8461 11.1363 13.5055 11.1825L13.4109 11.1888H10.6977V13.8988C10.6977 14.2841 10.3853 14.5964 10 14.5964C9.64679 14.5964 9.35489 14.334 9.30869 13.9934L9.30233 13.8988V11.1888H6.58915C6.20383 11.1888 5.89147 10.8765 5.89147 10.4911C5.89147 10.1379 6.15394 9.84604 6.49448 9.79984L6.58915 9.79347H9.30233V7.08354C9.30233 6.69823 9.61469 6.38587 10 6.38587Z" fill="white"/>
</g>
</svg>
