<svg width="24" height="24" viewBox="0 0 24 24" fill="none" xmlns="http://www.w3.org/2000/svg">
<mask id="mask0_343_2987" style="mask-type:alpha" maskUnits="userSpaceOnUse" x="0" y="0" width="24" height="24">
<rect width="24" height="24" fill="#D9D9D9"/>
</mask>
<g mask="url(#mask0_343_2987)">
<path d="M18.5 8.5998L17.45 6.2498L15.1 5.1998L17.45 4.1248L18.5 1.7998L19.55 4.1248L21.9 5.1998L19.55 6.2498L18.5 8.5998ZM18.5 22.1998L17.45 19.8748L15.1 18.7998L17.45 17.7498L18.5 15.3998L19.55 17.7498L21.9 18.7998L19.55 19.8748L18.5 22.1998ZM8.87501 18.7998L6.77501 14.1248L2.10001 11.9998L6.77501 9.8748L8.87501 5.1998L11 9.8748L15.675 11.9998L11 14.1248L8.87501 18.7998ZM8.87501 15.1498L9.87501 12.9998L12.025 11.9998L9.87501 10.9998L8.87501 8.8498L7.87501 10.9998L5.72501 11.9998L7.87501 12.9998L8.87501 15.1498Z" fill="white"/>
</g>
</svg>
