





<svg fill="none" height="24" viewBox="0 0 24 24" width="24" xmlns="http://www.w3.org/2000/svg" xmlns:xlink="http://www.w3.org/1999/xlink"><mask id="a" height="19" maskUnits="userSpaceOnUse" width="18" x="2" y="3"><path clip-rule="evenodd" d="m2.00024 3.00024h17.18056v18.93956h-17.18056z" fill="#fff" fill-rule="evenodd"/></mask><path clip-rule="evenodd" d="m20.7508 21.9398h-7.253c-.414 0-.75-.336-.75-.75s.336-.75.75-.75h7.253c.414 0 .75.336.75.75s-.336.75-.75.75z" fill="#fff" fill-rule="evenodd"/><g mask="url(#a)"><path clip-rule="evenodd" d="m13.1105 5.01689-9.41498 11.77501c-.171.214-.234.49-.171.755l.681 2.885 3.039-.038c.289-.003.556-.132.733-.352 3.21698-4.025 9.34998-11.69901 9.52398-11.92401.164-.266.228-.642.142-1.004-.088-.371-.319-.686-.652-.887-.071-.049-1.756-1.357-1.808-1.398-.634-.508-1.559-.42-2.073.188zm-9.49698 16.92301c-.347 0-.649-.238-.73-.577l-.819-3.471c-.169-.719-.001-1.461.46-2.037l9.41998-11.78201c.004-.004.007-.009.011-.013 1.033-1.235 2.901-1.417 4.161-.406.05.039 1.723 1.339 1.723 1.339.608.362 1.083 1.009 1.263 1.775.179.758.049 1.54-.368 2.201-.031.049-.058.091-9.58598 12.01101-.459.572-1.147.905-1.886.914l-3.639.046z" fill="#fff" fill-rule="evenodd"/></g><path clip-rule="evenodd" d="m16.2234 11.6849c-.16 0-.32-.051-.457-.155l-5.452-4.18803c-.32798-.252-.38998-.722-.138-1.052.253-.328.723-.389 1.052-.137l5.453 4.18703c.328.252.39.723.137 1.052-.147.192-.37.293-.595.293z" fill="#fff" fill-rule="evenodd"/></svg>