<svg width="121" height="128" viewBox="0 0 121 128" fill="none" xmlns="http://www.w3.org/2000/svg">
<path fill-rule="evenodd" clip-rule="evenodd" d="M15.03 112.92L13.39 114.96C12.18 113.66 10.45 112.85 8.77 112.85C5.45 112.85 2.84 115.41 2.84 118.68C2.84 121.95 5.45 124.54 8.77 124.54C10.43 124.54 12.14 123.78 13.39 122.57L15.05 124.42C13.37 126.08 10.97 127.15 8.63 127.15C3.77 127.15 0 123.48 0 118.71C0 113.99 3.82 110.37 8.72 110.37C11.07 110.36 13.42 111.33 15.03 112.92Z" fill="#0A1542"/>
<path fill-rule="evenodd" clip-rule="evenodd" d="M15.03 112.92L13.39 114.96C12.18 113.66 10.45 112.85 8.77 112.85C5.45 112.85 2.84 115.41 2.84 118.68C2.84 121.95 5.45 124.54 8.77 124.54C10.43 124.54 12.14 123.78 13.39 122.57L15.05 124.42C13.37 126.08 10.97 127.15 8.63 127.15C3.77 127.15 0 123.48 0 118.71C0 113.99 3.82 110.37 8.72 110.37C11.07 110.36 13.42 111.33 15.03 112.92Z" fill="#0A1542"/>
<path fill-rule="evenodd" clip-rule="evenodd" d="M19.71 127.02L21.3 123.27H29.65L31.24 127.02H34.23L26.98 110.43H24.11L16.79 127.02H19.71ZM22.34 120.78L25.47 113.41L28.6 120.78H22.34Z" fill="#0A1542"/>
<path fill-rule="evenodd" clip-rule="evenodd" d="M49.08 116.1C49.08 112.49 46.68 110.43 42.51 110.43V110.44H35.9V127.03H38.7V122.03H42.51C46.69 122.03 49.08 119.85 49.08 116.1ZM42.4 119.51H38.7V112.95H42.4C44.96 112.95 46.41 113.99 46.41 116.17C46.41 118.42 44.96 119.51 42.4 119.51Z" fill="#0A1542"/>
<path fill-rule="evenodd" clip-rule="evenodd" d="M60.18 112.94V127.02H57.38V112.94H52.14V110.43H65.44V112.94H60.18Z" fill="#0A1542"/>
<path fill-rule="evenodd" clip-rule="evenodd" d="M84.72 120.15C84.72 124.49 81.99 127.14 77.51 127.14C73.03 127.14 70.28 124.49 70.28 120.15V110.43H73.08V120.15C73.08 122.95 74.81 124.63 77.54 124.63C80.24 124.63 81.93 122.97 81.93 120.15V110.43H84.73V120.15H84.72Z" fill="#0A1542"/>
<path fill-rule="evenodd" clip-rule="evenodd" d="M96.24 122.01C96.5 122.01 96.76 122.01 97 121.99L100.01 127.02H103.19L99.47 121.47C101.68 120.62 102.91 118.74 102.91 116.09C102.91 112.48 100.47 110.42 96.23 110.42H89.5V127.01H92.3V122.01H96.24ZM100.27 116.17C100.27 118.42 98.8 119.51 96.24 119.51V119.52H92.3V112.95H96.24C98.8 112.95 100.27 113.99 100.27 116.17Z" fill="#0A1542"/>
<path fill-rule="evenodd" clip-rule="evenodd" d="M110.81 112.94V117.42H118.92V119.93H110.81V124.5H120.15V127.01H108.01V110.42H119.86V112.93H110.81V112.94Z" fill="#0A1542"/>
<ellipse cx="8.86" cy="118.72" rx="3.24" ry="3.16" fill="#0A1542"/>
<path fill-rule="evenodd" clip-rule="evenodd" d="M81.8 79.06H38.29C28.47 79.06 20.52 71.1 20.52 61.29V17.77C20.51 7.96 28.47 0 38.29 0H81.8C91.62 0 99.57 7.96 99.57 17.77V61.28C99.57 71.1 91.62 79.06 81.8 79.06Z" fill="#564DFC"/>
<path fill-rule="evenodd" clip-rule="evenodd" d="M84.32 22.1099L79.16 28.5499C75.34 24.4299 69.88 21.8899 64.57 21.8899C54.09 21.8899 45.86 29.9699 45.86 40.2999C45.86 50.6299 54.09 58.7799 64.57 58.7799C69.81 58.7799 75.2 56.3899 79.16 52.5699L84.4 58.4099C79.09 63.6499 71.53 67.0199 64.12 67.0199C48.78 67.0199 36.88 55.4199 36.88 40.3799C36.88 25.4899 48.93 14.0399 64.42 14.0399C71.82 14.0299 79.23 17.0999 84.32 22.1099Z" fill="white"/>
<ellipse cx="64.85" cy="40.44" rx="10.23" ry="9.98" fill="#6EE4D3"/>
</svg>
