<?xml version="1.0" encoding="UTF-8"?>
<svg width="46px" height="46px" viewBox="0 0 46 46" version="1.1" xmlns="http://www.w3.org/2000/svg" xmlns:xlink="http://www.w3.org/1999/xlink">
    <!-- Generator: Sketch 52.6 (67491) - http://www.bohemiancoding.com/sketch -->
    <title>Add Task</title>
    <desc>Created with Sketch.</desc>
    <g id="Styles" stroke="none" stroke-width="1" fill="none" fill-rule="evenodd">
        <g id="Buttons" transform="translate(-413.000000, -1855.000000)">
            <g id="Add-Task" transform="translate(413.000000, 1855.000000)">
                <g id="plus" transform="translate(0.528846, 0.528846)">
                    <g id="Group">
                        <circle id="Oval" fill="#FFFFFF" cx="22.5" cy="22.5" r="22.5"></circle>
                        <path d="M19.5620629,18.4256993 C19.5620629,19.052972 19.052972,19.5620629 18.4256993,19.5620629 L13.8802448,19.5620629 C13.252972,19.5620629 12.7438811,19.052972 12.7438811,18.4256993 L12.7438811,13.8802448 C12.7438811,13.252972 13.252972,12.7438811 13.8802448,12.7438811 L18.4256993,12.7438811 C19.052972,12.7438811 19.5620629,13.252972 19.5620629,13.8802448 L19.5620629,18.4256993 Z M18.4256993,10.4711538 L13.8802448,10.4711538 C11.9972902,10.4711538 10.4711538,11.9972902 10.4711538,13.8802448 L10.4711538,18.4256993 C10.4711538,20.3086538 11.9972902,21.8347902 13.8802448,21.8347902 L18.4256993,21.8347902 C20.3086538,21.8347902 21.8347902,20.3086538 21.8347902,18.4256993 L21.8347902,13.8802448 C21.8347902,11.9972902 20.3086538,10.4711538 18.4256993,10.4711538 L18.4256993,10.4711538 Z M33.1984266,18.4256993 C33.1984266,19.052972 32.6893357,19.5620629 32.0620629,19.5620629 L27.5166084,19.5620629 C26.8893357,19.5620629 26.3802448,19.052972 26.3802448,18.4256993 L26.3802448,13.8802448 C26.3802448,13.252972 26.8893357,12.7438811 27.5166084,12.7438811 L32.0620629,12.7438811 C32.6893357,12.7438811 33.1984266,13.252972 33.1984266,13.8802448 L33.1984266,18.4256993 Z M32.0620629,10.4711538 L27.5166084,10.4711538 C25.6336538,10.4711538 24.1075175,11.9972902 24.1075175,13.8802448 L24.1075175,18.4256993 C24.1075175,20.3086538 25.6336538,21.8347902 27.5166084,21.8347902 L32.0620629,21.8347902 C33.9450175,21.8347902 35.4711538,20.3086538 35.4711538,18.4256993 L35.4711538,13.8802448 C35.4711538,11.9972902 33.9450175,10.4711538 32.0620629,10.4711538 L32.0620629,10.4711538 Z M33.1984266,32.0620629 C33.1984266,32.6893357 32.6893357,33.1984266 32.0620629,33.1984266 L27.5166084,33.1984266 C26.8893357,33.1984266 26.3802448,32.6893357 26.3802448,32.0620629 L26.3802448,27.5166084 C26.3802448,26.8893357 26.8893357,26.3802448 27.5166084,26.3802448 L32.0620629,26.3802448 C32.6893357,26.3802448 33.1984266,26.8893357 33.1984266,27.5166084 L33.1984266,32.0620629 Z M32.0620629,24.1075175 L27.5166084,24.1075175 C25.6336538,24.1075175 24.1075175,25.6336538 24.1075175,27.5166084 L24.1075175,32.0620629 C24.1075175,33.9450175 25.6336538,35.4711538 27.5166084,35.4711538 L32.0620629,35.4711538 C33.9450175,35.4711538 35.4711538,33.9450175 35.4711538,32.0620629 L35.4711538,27.5166084 C35.4711538,25.6336538 33.9450175,24.1075175 32.0620629,24.1075175 L32.0620629,24.1075175 Z M19.5620629,32.0620629 C19.5620629,32.6893357 19.052972,33.1984266 18.4256993,33.1984266 L13.8802448,33.1984266 C13.252972,33.1984266 12.7438811,32.6893357 12.7438811,32.0620629 L12.7438811,27.5166084 C12.7438811,26.8893357 13.252972,26.3802448 13.8802448,26.3802448 L18.4256993,26.3802448 C19.052972,26.3802448 19.5620629,26.8893357 19.5620629,27.5166084 L19.5620629,32.0620629 Z M18.4256993,24.1075175 L13.8802448,24.1075175 C11.9972902,24.1075175 10.4711538,25.6336538 10.4711538,27.5166084 L10.4711538,32.0620629 C10.4711538,33.9450175 11.9972902,35.4711538 13.8802448,35.4711538 L18.4256993,35.4711538 C20.3086538,35.4711538 21.8347902,33.9450175 21.8347902,32.0620629 L21.8347902,27.5166084 C21.8347902,25.6336538 20.3086538,24.1075175 18.4256993,24.1075175 L18.4256993,24.1075175 Z" id="Page-1" fill="#000000"></path>
                    </g>
                </g>
            </g>
        </g>
    </g>
</svg>