<?xml version="1.0" encoding="UTF-8"?>
<svg width="27px" height="33px" viewBox="0 0 27 33" version="1.1" xmlns="http://www.w3.org/2000/svg" xmlns:xlink="http://www.w3.org/1999/xlink">
    <!-- Generator: Sketch 52.6 (67491) - http://www.bohemiancoding.com/sketch -->
    <title>android</title>
    <desc>Created with Sketch.</desc>
    <g id="Styles" stroke="none" stroke-width="1" fill="none" fill-rule="evenodd">
        <g id="Buttons" transform="translate(-496.000000, -1649.000000)" fill="#000000" stroke="#000000">
            <g id="android" transform="translate(497.000000, 1650.000000)">
                <path d="M1,20.5625 L1,10.5625 C1,10.2875 0.775,10.0625 0.5,10.0625 C0.225,10.0625 0,10.2875 0,10.5625 L0,20.5625 C0,20.8375 0.225,21.0625 0.5,21.0625 C0.775,21.0625 1,20.8375 1,20.5625 Z" id="Path" stroke-width="0.5"></path>
                <path d="M24.5,10.0625 C24.225,10.0625 24,10.2875 24,10.5625 L24,20.5625 C24,20.8375 24.225,21.0625 24.5,21.0625 C24.775,21.0625 25,20.8375 25,20.5625 L25,10.5625 C25,10.2875 24.775,10.0625 24.5,10.0625 Z" id="Path" stroke-width="0.5"></path>
                <path d="M16.5,31.0625 C17.88125,31.0625 19,29.94375 19,28.5625 L19,25.0625 L20.5,25.0625 C20.775,25.0625 21,24.8375 21,24.5625 L21,10.5625 C21,8.5125 20.25,6.525 18.89375,4.95625 L18.65625,4.6875 L20.93125,0.81875 C21.06875,0.58125 20.99375,0.275 20.75625,0.13125 C20.64375,0.0625 20.50625,0.04375 20.38125,0.08125 C20.25,0.1125 20.14375,0.19375 20.075,0.3125 L17.9125,3.9875 L17.46875,3.66875 C16.00625,2.61875 14.2875,2.0625 12.5,2.0625 C10.7625,2.0625 9.0875,2.5875 7.6625,3.58125 L7.2375,3.875 L4.91875,0.29375 C4.84375,0.18125 4.73125,0.1 4.60625,0.075 C4.475,0.05 4.34375,0.06875 4.23125,0.14375 C4.11875,0.21875 4.0375,0.33125 4.0125,0.4625 C3.9875,0.59375 4.00625,0.725 4.08125,0.8375 L6.4875,4.55625 L6.225,4.84375 C4.7875,6.4125 4,8.45 4,10.56875 L4,24.56875 C4,24.84375 4.225,25.06875 4.5,25.06875 L6,25.06875 L6,28.56875 C6,29.95 7.11875,31.06875 8.5,31.06875 C9.88125,31.06875 11,29.95 11,28.56875 L11,25.06875 L14,25.06875 L14,28.56875 C14,29.94375 15.125,31.0625 16.5,31.0625 Z M5.075,9.49375 C5.3125,7.825 6.13125,6.2625 7.36875,5.1 L7.39375,5.075 L7.425,5.05625 C7.4625,5.03125 7.49375,5 7.51875,4.96875 L7.54375,4.9375 L7.575,4.9125 C8.94375,3.71875 10.69375,3.0625 12.5,3.0625 C14.38125,3.0625 16.1875,3.76875 17.58125,5.04375 L17.60625,5.06875 L17.63125,5.1 C17.6625,5.1375 17.69375,5.1625 17.725,5.1875 L17.75625,5.2125 L17.8,5.25625 C18.95625,6.43125 19.6875,7.89375 19.91875,9.49375 L20,10.0625 L4.99375,10.0625 L5.075,9.49375 Z M10.5,24.0625 C10.225,24.0625 10,24.2875 10,24.5625 L10,28.5625 C10,29.3875 9.325,30.0625 8.5,30.0625 C7.675,30.0625 7,29.3875 7,28.5625 L7,24.5625 C7,24.2875 6.775,24.0625 6.5,24.0625 L5,24.0625 L5,11.0625 L20,11.0625 L20,24.0625 L18.5,24.0625 C18.225,24.0625 18,24.2875 18,24.5625 L18,28.5625 C18,29.3875 17.325,30.0625 16.5,30.0625 C15.675,30.0625 15,29.3875 15,28.5625 L15,24.5625 C15,24.2875 14.775,24.0625 14.5,24.0625 L10.5,24.0625 Z" id="Shape" stroke-width="0.5" fill-rule="nonzero"></path>
                <path d="M15.04375,6.5625 C15.04375,6.2875 14.81875,6.0625 14.54375,6.0625 L14.525,6.0625 C14.25,6.0625 14.0375,6.28125 14.0375,6.5625 C14.0375,6.83125 14.26875,7.0625 14.55,7.0625 C14.81875,7.0625 15.04375,6.8375 15.04375,6.5625 Z" id="Path"></path>
                <path d="M10.54375,7.0625 C10.81875,7.0625 11.04375,6.8375 11.04375,6.5625 C11.04375,6.2875 10.81875,6.0625 10.54375,6.0625 L10.525,6.0625 C10.25,6.0625 10.0375,6.28125 10.0375,6.5625 C10.03125,6.8375 10.2625,7.0625 10.54375,7.0625 Z" id="Path"></path>
            </g>
        </g>
    </g>
</svg>