<?xml version="1.0" encoding="UTF-8"?>
<svg width="24px" height="22px" viewBox="0 0 24 22" version="1.1" xmlns="http://www.w3.org/2000/svg" xmlns:xlink="http://www.w3.org/1999/xlink">
    <!-- Generator: Sketch 52.6 (67491) - http://www.bohemiancoding.com/sketch -->
    <title>around</title>
    <desc>Created with Sketch.</desc>
    <g id="Styles" stroke="none" stroke-width="1" fill="none" fill-rule="evenodd">
        <g id="Buttons" transform="translate(-367.000000, -1547.000000)" fill="#000000" stroke="#FFFFFF">
            <g id="around" transform="translate(368.000000, 1548.000000)">
                <g id="Group">
                    <path d="M10.9785575,14.0276803 C8.63703704,14.0276803 6.73723197,12.1278752 6.73723197,9.78635478 C6.73723197,7.44483431 8.63703704,5.54502924 10.9785575,5.54502924 C13.320078,5.54502924 15.219883,7.44483431 15.219883,9.78635478 C15.2155945,12.1278752 13.320078,14.0233918 10.9785575,14.0276803 Z M10.9785575,8.04093567 C10.0136452,8.04093567 9.2331384,8.8214425 9.2331384,9.78635478 C9.2331384,10.7512671 10.0136452,11.5317739 10.9785575,11.5317739 C11.9434698,11.5317739 12.7239766,10.7512671 12.7239766,9.78635478 C12.7239766,8.8214425 11.9434698,8.04093567 10.9785575,8.04093567 Z" id="Shape" stroke-width="0.8" fill-rule="nonzero"></path>
                    <path d="M9.48187135,15.7730994 L3.24210526,15.7730994 C2.83040936,15.7730994 2.49161793,15.4385965 2.49161793,15.0226121 L2.49161793,5.04327485 C2.49161793,4.63157895 2.82612086,4.29278752 3.24210526,4.29278752 L4.8502924,4.29278752 C4.57153996,4.91890838 4.8502924,5.65224172 5.47641326,5.93528265 C5.91384016,6.13255361 6.42417154,6.05964912 6.78869396,5.74658869 L8.86861598,4.00116959 C9.39610136,3.55945419 9.46471735,2.77037037 9.02300195,2.24288499 C8.97582846,2.1871345 8.92436647,2.13567251 8.86861598,2.08849903 L6.79298246,0.343079922 C6.27407407,-0.102923977 5.48927875,-0.0471734893 5.03898635,0.476023392 C4.72163743,0.844834308 4.64873294,1.35945419 4.8502924,1.80116959 L3.24210526,1.80116959 C1.45380117,1.80545809 0.00428849903,3.25497076 0,5.04327485 L0,15.0226121 C0.00428849903,16.8152047 1.45380117,18.2647173 3.24210526,18.2647173 L9.48187135,18.2647173 C10.1723197,18.2647173 10.7298246,17.7072125 10.7298246,17.0167641 C10.7298246,16.3263158 10.1723197,15.7730994 9.48187135,15.7730994 Z" id="Path" stroke-width="0.8"></path>
                    <path d="M18.7150097,1.80116959 L12.4752437,1.80116959 C11.7847953,1.80116959 11.2272904,2.35867446 11.2272904,3.04912281 C11.2272904,3.73957115 11.7847953,4.29707602 12.4752437,4.29707602 L18.7150097,4.29707602 C19.1267057,4.29707602 19.4654971,4.63157895 19.4654971,5.04756335 L19.4654971,15.0269006 C19.4654971,15.4385965 19.1309942,15.7773879 18.7150097,15.7773879 L17.1068226,15.7773879 C17.385575,15.1512671 17.1068226,14.4179337 16.4807018,14.1348928 C16.0432749,13.9376218 15.5329435,14.0105263 15.1684211,14.3235867 L13.088499,16.0690058 C12.5610136,16.5107212 12.4923977,17.2998051 12.9341131,17.8272904 C12.9812865,17.8830409 13.0327485,17.9345029 13.088499,17.9816764 L15.1684211,19.7270955 C15.6873294,20.1730994 16.4721248,20.1173489 16.9224172,19.594152 C17.2397661,19.2253411 17.3126706,18.7107212 17.1111111,18.2690058 L18.7192982,18.2690058 C20.5118908,18.2647173 21.9614035,16.8152047 21.9614035,15.0269006 L21.9614035,5.04327485 C21.9528265,3.25497076 20.5033138,1.80545809 18.7150097,1.80116959 Z" id="Path" stroke-width="0.58"></path>
                </g>
            </g>
        </g>
    </g>
</svg>