<?xml version="1.0" encoding="UTF-8"?>
<svg width="40px" height="40px" viewBox="0 0 40 40" version="1.1" xmlns="http://www.w3.org/2000/svg" xmlns:xlink="http://www.w3.org/1999/xlink">
    <!-- Generator: Sketch 52.6 (67491) - http://www.bohemiancoding.com/sketch -->
    <title>Avatar</title>
    <desc>Created with Sketch.</desc>
    <g id="Page-1" stroke="none" stroke-width="1" fill="none" fill-rule="evenodd">
        <g id="09-More" transform="translate(-321.000000, -81.000000)">
            <g id="Avatar" transform="translate(321.000000, 81.000000)">
                <rect id="Rectangle" fill="#6EE4D3" x="0" y="0" width="40" height="40" rx="8"></rect>
                <path d="M32.1849032,36.3717419 L32.1849032,39.3267957 C32.1849032,39.6594839 31.9154409,39.9289462 31.5827527,39.9289462 L9.60425806,39.9289462 C9.27156989,39.9289462 9.00210753,39.6594839 9.00210753,39.3267957 L9.00210753,36.3717419 C9.00210753,33.2714194 11.5153333,30.7596989 14.6164086,30.7589462 C15.7123226,30.7581935 16.6772688,30.1944301 17.2327527,29.3393763 C17.7907957,28.4817634 17.7332903,27.736 17.7332903,27.1332473 L17.7445806,27.1053978 C15.0424301,25.9869032 13.1418925,23.3246452 13.1418925,20.2183011 L13.1418925,19.9827097 C12.0689355,19.9827097 11.260172,19.1348065 11.260172,18.1356129 L11.260172,15.0074409 C11.236086,13.9183011 11.2857634,10.0773333 14.060172,7.40303226 C17.2861935,4.29367742 22.3984516,4.54808602 26.1016774,6.21152688 C26.2221075,6.26572043 26.2183441,6.43808602 26.0964086,6.48851613 L25.1307097,6.88593548 C24.9861935,6.94539785 25.0170538,7.1584086 25.1721075,7.17496774 L25.6410323,7.22539785 C27.8863011,7.46550538 29.972,8.68486022 31.2651183,10.7141075 C31.2997419,10.7690538 31.289957,10.8526022 31.2455484,10.9000215 C30.4476989,11.7437849 30.0021075,12.8637849 30.0021075,14.0281935 L30.0021075,18.1356129 C30.0021075,19.1555054 29.1749032,19.9827097 28.1550108,19.9827097 L28.0451183,19.9827097 L28.0451183,20.2183011 C28.0451183,23.3246452 26.1445806,25.9869032 23.4424301,27.1053978 L23.4537204,27.1332473 C23.4537204,27.7186129 23.3914731,28.4745376 23.9542581,29.3393763 C24.5097419,30.1944301 25.4746882,30.7581935 26.5706022,30.7589462 C29.6716774,30.7596989 32.1849032,33.2714194 32.1849032,36.3717419 Z" id="Path" fill="#F1D5B2" fill-rule="nonzero"></path>
                <path d="M32.1849032,36.3717419 L32.1849032,39.3267957 C32.1849032,39.6593333 31.9152903,39.9289462 31.5827527,39.9289462 L9.60425806,39.9289462 C9.27172043,39.9289462 9.00210753,39.6593333 9.00210753,39.3267957 L9.00210753,36.3717419 C9.00210753,33.2714194 11.5157097,30.7600753 14.6160323,30.7589462 C15.7122473,30.7585699 16.6774194,30.194129 17.2327527,29.3393763 C19.1712258,30.9954409 22.0146559,30.9964194 23.9542581,29.3393763 C24.5095161,30.194129 25.4747634,30.7585699 26.5709785,30.7589462 C29.6713011,30.7600753 32.1849032,33.2714194 32.1849032,36.3717419 Z" id="Path" fill="#FF1200" fill-rule="nonzero"></path>
                <path d="M31.2648172,10.7144839 C31.2997419,10.7693548 31.289957,10.8524516 31.2453226,10.8997204 C30.4476989,11.744086 30.0021075,12.8637097 30.0021075,14.0281935 L30.0021075,18.1356129 C30.0021075,19.068043 29.2996237,19.9827097 28.0451183,19.9827097 L28.0451183,15.3333548 C28.0451183,13.3379785 26.4275914,11.7204516 24.4322151,11.7204516 L16.7547957,11.7204516 C14.7594194,11.7204516 13.1418925,13.3379785 13.1418925,15.3333548 L13.1418925,19.9827097 C12.0689355,19.9827097 11.260172,19.1348065 11.260172,18.1356129 L11.260172,15.0074409 C11.236086,13.9183011 11.2857634,10.0773333 14.060172,7.40303226 C17.2859677,4.29360215 22.3987527,4.54816129 26.1013763,6.21175269 C26.2218065,6.26587097 26.2186452,6.43831183 26.0964839,6.4885914 L25.1307097,6.88616129 C24.9863441,6.94562366 25.0167527,7.1584086 25.171957,7.17504301 L25.6410323,7.22539785 C27.8866774,7.46527957 29.9718495,8.68463441 31.2648172,10.7144839 Z" id="Path" fill="#373E49" fill-rule="nonzero"></path>
                <path d="M28.0451183,20.2183011 C28.0451183,24.3352043 24.7070968,27.669914 20.5935054,27.669914 C16.7177634,27.669914 13.1418925,24.656828 13.1418925,19.9827097 L13.1418925,15.3333548 C13.1418925,13.3379785 14.7594194,11.7204516 16.7547957,11.7204516 L24.4322151,11.7204516 C26.4275914,11.7204516 28.0451183,13.3379785 28.0451183,15.3333548 L28.0451183,20.2183011 Z" id="Path" fill="#F8E4CB" fill-rule="nonzero"></path>
                <path d="M26.6902796,38.6493763 L24.883828,38.6493763 C24.5512903,38.6493763 24.2816774,38.3797634 24.2816774,38.0472258 C24.2816774,37.7146882 24.5512903,37.4450753 24.883828,37.4450753 L26.6902796,37.4450753 C27.0228172,37.4450753 27.2924301,37.7146882 27.2924301,38.0472258 C27.2924301,38.3797634 27.0228925,38.6493763 26.6902796,38.6493763 Z" id="Path" fill="#D3DCE4" fill-rule="nonzero"></path>
            </g>
        </g>
    </g>
</svg>