<?xml version="1.0" encoding="UTF-8"?>
<svg width="21px" height="26px" viewBox="0 0 21 26" version="1.1" xmlns="http://www.w3.org/2000/svg" xmlns:xlink="http://www.w3.org/1999/xlink">
    <!-- Generator: Sketch 52.6 (67491) - http://www.bohemiancoding.com/sketch -->
    <title>bin</title>
    <desc>Created with Sketch.</desc>
    <g id="Styles" stroke="none" stroke-width="1" fill="none" fill-rule="evenodd">
        <g id="Buttons" transform="translate(-346.000000, -1866.000000)" fill="#000000" stroke="#000000" stroke-width="0.5">
            <g id="bin" transform="translate(347.000000, 1867.000000)">
                <path d="M13.1221011,8.75392382 C12.811563,8.75392382 12.5598822,9.00560465 12.5598822,9.31614271 L12.5598822,19.9420797 C12.5598822,20.2523982 12.811563,20.5042986 13.1221011,20.5042986 C13.4326391,20.5042986 13.68432,20.2523982 13.68432,19.9420797 L13.68432,9.31614271 C13.68432,9.00560465 13.4326391,8.75392382 13.1221011,8.75392382 Z" id="Path"></path>
                <path d="M6.48791818,8.75392382 C6.17738006,8.75392382 5.92569929,9.00560465 5.92569929,9.31614271 L5.92569929,19.9420797 C5.92569929,20.2523982 6.17738006,20.5042986 6.48791818,20.5042986 C6.79845624,20.5042986 7.05013707,20.2523982 7.05013707,19.9420797 L7.05013707,9.31614271 C7.05013707,9.00560465 6.79845624,8.75392382 6.48791818,8.75392382 Z" id="Path"></path>
                <path d="M1.65283572,7.20320993 L1.65283572,21.0550975 C1.65283572,21.8738287 1.95305178,22.642707 2.47749659,23.1943842 C2.9995256,23.7475989 3.72601788,24.0616508 4.48633105,24.0629685 L15.1236882,24.0629685 C15.884221,24.0616508 16.6107132,23.7475989 17.1325226,23.1943842 C17.6569674,22.642707 17.9571835,21.8738287 17.9571835,21.0550975 L17.9571835,7.20320993 C18.9997042,6.92649282 19.6752454,5.91933036 19.5357887,4.84957714 C19.3961125,3.78004357 18.4849226,2.97997972 17.4061651,2.97976012 L14.5276483,2.97976012 L14.5276483,2.27698651 C14.5309425,1.68599781 14.2972703,1.11850811 13.8789004,0.701016679 C13.4605305,0.283744846 12.8921623,0.0513903205 12.3011736,0.0562218891 L7.30884558,0.0562218891 C6.71785688,0.0513903205 6.14948872,0.283744846 5.73111882,0.701016679 C5.31274891,1.11850811 5.07907669,1.68599781 5.08237095,2.27698651 L5.08237095,2.97976012 L2.20385414,2.97976012 C1.12509665,2.97997972 0.213906747,3.78004357 0.0742304348,4.84957714 C-0.0652261619,5.91933036 0.610314974,6.92649282 1.65283572,7.20320993 Z M15.1236882,22.9385307 L4.48633105,22.9385307 C3.52506853,22.9385307 2.7772735,22.1127717 2.7772735,21.0550975 L2.7772735,7.25262369 L16.8327458,7.25262369 L16.8327458,21.0550975 C16.8327458,22.1127717 16.0849507,22.9385307 15.1236882,22.9385307 Z M6.20680873,2.27698651 C6.20307521,1.98423739 6.31815439,1.70246908 6.52591186,1.49580973 C6.73344968,1.28915037 7.0158768,1.17560847 7.30884558,1.18065967 L12.3011736,1.18065967 C12.5941424,1.17560847 12.8765695,1.28915037 13.0841073,1.49580973 C13.2918648,1.70224948 13.406944,1.98423739 13.4032105,2.27698651 L13.4032105,2.97976012 L6.20680873,2.97976012 L6.20680873,2.27698651 Z M2.20385414,4.1041979 L17.4061651,4.1041979 C17.9650897,4.1041979 18.4181591,4.55726728 18.4181591,5.1161919 C18.4181591,5.67511653 17.9650897,6.12818591 17.4061651,6.12818591 L2.20385414,6.12818591 C1.64492946,6.12818591 1.19186014,5.67511653 1.19186014,5.1161919 C1.19186014,4.55726728 1.64492946,4.1041979 2.20385414,4.1041979 Z" id="Shape" fill-rule="nonzero"></path>
                <path d="M9.80500963,8.75392382 C9.49447151,8.75392382 9.24279074,9.00560465 9.24279074,9.31614271 L9.24279074,19.9420797 C9.24279074,20.2523982 9.49447151,20.5042986 9.80500963,20.5042986 C10.1155477,20.5042986 10.3672285,20.2523982 10.3672285,19.9420797 L10.3672285,9.31614271 C10.3672285,9.00560465 10.1155477,8.75392382 9.80500963,8.75392382 Z" id="Path"></path>
            </g>
        </g>
    </g>
</svg>