<?xml version="1.0" encoding="UTF-8"?>
<svg width="30px" height="24px" viewBox="0 0 30 24" version="1.1" xmlns="http://www.w3.org/2000/svg" xmlns:xlink="http://www.w3.org/1999/xlink">
    <!-- Generator: Sketch 52.6 (67491) - http://www.bohemiancoding.com/sketch -->
    <title>camera</title>
    <desc>Created with Sketch.</desc>
    <g id="Styles" stroke="none" stroke-width="1" fill="none" fill-rule="evenodd">
        <g id="Buttons" transform="translate(-259.000000, -1650.000000)" fill="#000000">
            <g id="camera" transform="translate(259.000000, 1650.000000)">
                <path d="M28.1732754,3.93616287 C27.5915263,3.33390844 26.7881586,2.97803083 25.8739815,2.97803083 L21.2753938,2.97803083 L21.2753938,2.92328042 C21.2753938,2.23890039 20.9983705,1.58189556 20.5274307,1.14389234 C20.056491,0.678513918 19.4193373,0.404761905 18.7267789,0.404761905 L10.4160782,0.404761905 C9.69581749,0.404761905 9.05866377,0.678513918 8.58772406,1.14389234 C8.11678436,1.60927076 7.839761,2.23890039 7.839761,2.92328042 L7.839761,2.97803083 L3.26887561,2.97803083 C2.35469853,2.97803083 1.5513308,3.33390844 0.969581749,3.93616287 C0.3878327,4.5110421 0,5.33229814 0,6.20830458 L0,19.8411548 C-1.96836934e-15,20.7445365 0.360130364,21.5384173 0.969581749,22.1132965 C1.5513308,22.6881758 2.38240087,23.0714286 3.26887561,23.0714286 L25.8739815,23.0714286 C26.7881586,23.0714286 27.5915263,22.715551 28.1732754,22.1132965 C28.7550244,21.5384173 29.1428571,20.7171613 29.1428571,19.8411548 L29.1428571,6.20830458 C29.1428571,5.30492294 28.7827268,4.5110421 28.1732754,3.93616287 Z M27.7023357,19.8411548 L27.6746334,19.8411548 C27.6746334,20.3339084 27.480717,20.7719117 27.148289,21.1004141 C26.8158609,21.4289165 26.3726236,21.6205429 25.8739815,21.6205429 L3.26887561,21.6205429 C2.77023357,21.6205429 2.3269962,21.4289165 1.99456817,21.1004141 C1.66214014,20.7719117 1.46822379,20.3339084 1.46822379,19.8411548 L1.46822379,6.20830458 C1.46822379,5.71555095 1.66214014,5.27754773 1.99456817,4.94904532 C2.3269962,4.6205429 2.77023357,4.42891649 3.26887561,4.42891649 L8.6154264,4.42891649 C9.03096143,4.42891649 9.36338946,4.10041408 9.36338946,3.68978606 L9.36338946,2.89590522 C9.36338946,2.59477801 9.4741988,2.32102599 9.66811515,2.12939959 C9.8620315,1.93777318 10.1390549,1.82827237 10.4437806,1.82827237 L18.7267789,1.82827237 C19.0315046,1.82827237 19.308528,1.93777318 19.5024443,2.12939959 C19.6963607,2.32102599 19.80717,2.59477801 19.80717,2.89590522 L19.80717,3.68978606 C19.80717,4.10041408 20.139598,4.42891649 20.5551331,4.42891649 L25.9016839,4.42891649 C26.4003259,4.42891649 26.8435633,4.6205429 27.1759913,4.94904532 C27.5084193,5.27754773 27.7023357,5.71555095 27.7023357,6.20830458 L27.7023357,19.8411548 Z" id="Shape" fill-rule="nonzero"></path>
                <path d="M14.1666667,6.07142857 C12.2646148,6.07142857 10.530391,6.80855594 9.29965157,7.96689895 C8.04094077,9.15156794 7.28571429,10.7574526 7.28571429,12.547619 C7.28571429,14.3377855 8.06891212,15.9699961 9.29965157,17.1283391 C10.5583624,18.3130081 12.2646148,19.0238095 14.1666667,19.0238095 C16.0687185,19.0238095 17.8029423,18.2866822 19.0336818,17.1283391 C20.2923926,15.9436702 21.047619,14.3377855 21.047619,12.547619 C21.047619,10.7574526 20.2644212,9.12524197 19.0336818,7.96689895 C17.8029423,6.80855594 16.0687185,6.07142857 14.1666667,6.07142857 Z M17.9707704,16.154278 C16.9917731,17.0493612 15.6491483,17.6285327 14.1666667,17.6285327 C12.6841851,17.6285327 11.3415602,17.0493612 10.3625629,16.154278 C9.38356562,15.2328688 8.79616725,13.9692218 8.79616725,12.573945 C8.79616725,11.1786682 9.41153697,9.91502129 10.3625629,8.99361208 C11.3415602,8.07220286 12.6841851,7.51935734 14.1666667,7.51935734 C15.6491483,7.51935734 16.9917731,8.09852884 17.9707704,8.99361208 C18.9497677,9.91502129 19.5371661,11.1786682 19.5371661,12.573945 C19.5651374,13.9692218 18.9497677,15.2328688 17.9707704,16.154278 Z" id="Shape" fill-rule="nonzero"></path>
                <circle id="Oval" cx="23.8809524" cy="7.28571429" r="1.21428571"></circle>
            </g>
        </g>
    </g>
</svg>