<?xml version="1.0" encoding="UTF-8"?>
<svg width="17px" height="17px" viewBox="0 0 17 17" version="1.1" xmlns="http://www.w3.org/2000/svg" xmlns:xlink="http://www.w3.org/1999/xlink">
    <!-- Generator: Sketch 52.6 (67491) - http://www.bohemiancoding.com/sketch -->
    <title>Close</title>
    <desc>Created with Sketch.</desc>
    <g id="Styles" stroke="none" stroke-width="1" fill="none" fill-rule="evenodd">
        <g id="Buttons" transform="translate(-304.000000, -1550.000000)" fill="#000000" stroke="#000000">
            <g id="Close" transform="translate(305.000000, 1551.000000)">
                <path d="M8.77013847,7.38272162 L14.7654096,1.26943339 C15.023342,0.988062317 15.0118359,0.552884457 14.7393955,0.285536364 C14.466955,0.0181882701 14.0316376,0.0148944539 13.7551828,0.278089349 L7.76935306,6.38193621 L1.53804768,0.268647977 C1.35965137,0.0812639737 1.09325908,0.00609244549 0.843224312,0.0725802353 C0.593189547,0.139068025 0.399320827,0.336629482 0.337562088,0.58787412 C0.27580335,0.839118758 0.355987321,1.10404543 0.546703642,1.27887476 L6.76856765,7.38272162 L0.546703642,13.4865685 C0.283508747,13.7630233 0.286802563,14.1983407 0.554150656,14.4707812 C0.82149875,14.7432216 1.25667661,14.7547277 1.53804768,14.4967953 L7.76935306,8.38350703 L13.7551828,14.4873539 C14.0316376,14.7505488 14.466955,14.747255 14.7393955,14.4799069 C15.0118359,14.2125588 15.023342,13.7773809 14.7654096,13.4960099 L8.77013847,7.38272162 Z" id="Icon"></path>
            </g>
        </g>
    </g>
</svg>