<?xml version="1.0" encoding="UTF-8"?>
<svg width="25px" height="29px" viewBox="0 0 25 29" version="1.1" xmlns="http://www.w3.org/2000/svg" xmlns:xlink="http://www.w3.org/1999/xlink">
    <!-- Generator: Sketch 52.6 (67491) - http://www.bohemiancoding.com/sketch -->
    <title>document</title>
    <desc>Created with Sketch.</desc>
    <g id="Styles" stroke="none" stroke-width="1" fill="none" fill-rule="evenodd">
        <g id="Buttons" transform="translate(-343.000000, -1646.000000)" fill="#000000" stroke="#000000" stroke-width="0.5">
            <g id="document" transform="translate(344.000000, 1647.000000)">
                <path d="M21.6811736,3.61265046 L19.3821852,3.61265046 L19.3821852,1.31371528 C19.3822384,0.591131944 18.791,0 18.0687894,0 L1.31882639,0 C0.596296296,0 0.00516435185,0.591131944 0.00516435185,1.31371528 L0.00516435185,22.3328935 C0.00516435185,23.0554236 0.596296296,23.6466088 1.31887963,23.6466088 L3.61786806,23.6466088 L3.61786806,25.9455972 C3.61786806,26.6681273 4.2087338,27.2593125 4.93158333,27.2593125 L16.0977106,27.2593125 C16.8199213,27.2593125 17.8419838,26.854044 18.3677894,26.3591181 L22.0376204,22.9047523 C22.5640648,22.4098264 22.9943032,21.4133727 22.9943032,20.6908426 L22.9949421,4.92647222 C22.9948889,4.20383565 22.4037037,3.61265046 21.6811736,3.61265046 Z M3.61776157,4.92641898 L3.61776157,22.6613356 L1.31882639,22.6613356 C1.14084259,22.6613356 0.9904375,22.5109306 0.9904375,22.3329468 L0.9904375,1.31371528 C0.9904375,1.13573148 1.14084259,0.985326389 1.31882639,0.985326389 L18.0688426,0.985326389 C18.2465069,0.985326389 18.3972315,1.13573148 18.3972315,1.31371528 L18.3972315,3.6127037 L4.93147685,3.6127037 C4.20862731,3.6127037 3.61776157,4.20383565 3.61776157,4.92641898 Z M21.3623148,22.1873866 L17.6924838,25.6414861 C17.6173079,25.7121366 17.5193981,25.7814028 17.4113194,25.8473681 L17.4113194,22.8255301 C17.4113194,22.5998958 17.5023079,22.3968889 17.6523935,22.2458449 C17.8038102,22.0957593 18.0067639,22.0045046 18.2323981,22.0045046 L21.5183102,22.0045046 C21.4673588,22.0737176 21.4151829,22.1374468 21.3623148,22.1873866 Z M22.0089236,20.6907361 C22.0089236,20.7882731 21.9911412,20.90125 21.9642546,21.019125 L18.2323449,21.019125 C17.235625,21.0210949 16.4280162,21.8287037 16.4259931,22.8254769 L16.4259931,26.234162 C16.3087569,26.2578542 16.1957801,26.2738796 16.0976042,26.2738796 L4.93147685,26.2738796 L4.93147685,26.2739329 C4.75312037,26.2739329 4.60308796,26.1235278 4.60308796,25.945544 L4.60308796,4.92636574 C4.60308796,4.74838194 4.75317361,4.59797685 4.93147685,4.59797685 L21.6811204,4.59797685 C21.8591042,4.59797685 22.0095093,4.74838194 22.0095093,4.92636574 L22.0089236,20.6907361 Z" id="Shape" fill-rule="nonzero"></path>
                <path d="M18.0687894,8.21057407 L8.5445,8.21057407 C8.27222685,8.21057407 8.05186343,8.4309375 8.05186343,8.70321065 C8.05186343,8.9754838 8.27228009,9.19584722 8.5445,9.19584722 L18.0687894,9.19584722 C18.3407431,9.19584722 18.5614259,8.9754838 18.5614259,8.70321065 C18.5614259,8.4309375 18.3407431,8.21057407 18.0687894,8.21057407 Z" id="Path"></path>
                <path d="M18.0687894,14.7790972 L8.5445,14.7790972 C8.27222685,14.7790972 8.05186343,14.9994606 8.05186343,15.2717338 C8.05186343,15.5440069 8.27228009,15.7643704 8.5445,15.7643704 L18.0687894,15.7643704 C18.3407431,15.7643704 18.5614259,15.5440069 18.5614259,15.2717338 C18.5614259,14.9994074 18.3407431,14.7790972 18.0687894,14.7790972 Z" id="Path"></path>
                <path d="M13.7993079,18.0633588 L8.54455324,18.0633588 C8.27228009,18.0633588 8.05191667,18.2837222 8.05191667,18.5559954 C8.05191667,18.8282685 8.27228009,19.0486319 8.54455324,19.0486319 L13.7993079,19.0486319 C14.0712616,19.0486319 14.291625,18.8282685 14.291625,18.5559954 C14.291625,18.2837222 14.0712616,18.0633588 13.7993079,18.0633588 Z" id="Path"></path>
                <path d="M18.0687894,11.4948356 L8.5445,11.4948356 C8.27222685,11.4948356 8.05186343,11.7151991 8.05186343,11.9874722 C8.05186343,12.2597454 8.27228009,12.4801088 8.5445,12.4801088 L18.0687894,12.4801088 C18.3407431,12.4801088 18.5614259,12.2597454 18.5614259,11.9874722 C18.5614259,11.7151991 18.3407431,11.4948356 18.0687894,11.4948356 Z" id="Path"></path>
            </g>
        </g>
    </g>
</svg>