<?xml version="1.0" encoding="UTF-8"?>
<svg width="27px" height="27px" viewBox="0 0 27 27" version="1.1" xmlns="http://www.w3.org/2000/svg" xmlns:xlink="http://www.w3.org/1999/xlink">
    <!-- Generator: Sketch 52.6 (67491) - http://www.bohemiancoding.com/sketch -->
    <title>info</title>
    <desc>Created with Sketch.</desc>
    <g id="Styles" stroke="none" stroke-width="1" fill="none" fill-rule="evenodd">
        <g id="Buttons" transform="translate(-341.000000, -1744.000000)" fill="#000000" stroke-width="0.5">
            <g id="info" transform="translate(342.000000, 1745.000000)">
                <path d="M12.5,0 C5.60756972,0 0,5.60756972 0,12.5 C0,19.3924303 5.60756972,25 12.5,25 C19.3924303,25 25,19.3924303 25,12.5 C25,5.60756972 19.3924303,0 12.5,0 Z M12.5,23.9043825 C6.21015936,23.9043825 1.09561753,18.7898406 1.09561753,12.5 C1.09561753,6.21015936 6.21015936,1.09561753 12.5,1.09561753 C18.7898406,1.09561753 23.9043825,6.21015936 23.9043825,12.5 C23.9043825,18.7898406 18.7898406,23.9043825 12.5,23.9043825 Z" id="Shape" stroke="#000000" fill-rule="nonzero"></path>
                <g id="Group" transform="translate(9.561753, 5.278884)">
                    <circle id="Oval" stroke="#000000" cx="2.93824701" cy="0.846613546" r="1"></circle>
                    <path d="M5.32868526,13.311753 L3.48605578,13.311753 L3.48605578,4.83067729 C3.48605578,4.52689243 3.24203187,4.28286853 2.93824701,4.28286853 L1.08067729,4.28286853 C0.77689243,4.28286853 0.532868526,4.52689243 0.532868526,4.83067729 C0.532868526,5.13446215 0.77689243,5.37848606 1.08067729,5.37848606 L2.39043825,5.37848606 L2.39043825,13.311753 L0.547808765,13.311753 C0.244023904,13.311753 0,13.5557769 0,13.8595618 C0,14.1633466 0.244023904,14.4073705 0.547808765,14.4073705 L5.32868526,14.4073705 C5.63247012,14.4073705 5.87649402,14.1633466 5.87649402,13.8595618 C5.87649402,13.5557769 5.63247012,13.311753 5.32868526,13.311753 Z" id="Path" stroke="#040404"></path>
                </g>
            </g>
        </g>
    </g>
</svg>