<?xml version="1.0" encoding="UTF-8"?>
<svg width="19px" height="16px" viewBox="0 0 19 16" version="1.1" xmlns="http://www.w3.org/2000/svg" xmlns:xlink="http://www.w3.org/1999/xlink">
    <!-- Generator: Sketch 52.6 (67491) - http://www.bohemiancoding.com/sketch -->
    <title>More</title>
    <desc>Created with Sketch.</desc>
    <g id="Styles" stroke="none" stroke-width="1" fill="none" fill-rule="evenodd">
        <g id="Buttons" transform="translate(-176.000000, -1548.000000)" fill="#1E2022">
            <g id="More" transform="translate(176.000000, 1548.000000)">
                <path d="M0.954074074,2.26666667 L17.5949009,2.26666667 C18.0544247,2.26666667 18.4269423,1.81895142 18.4269423,1.26666667 C18.4269423,0.714381917 18.0544247,0.266666667 17.5949009,0.266666667 L0.954074074,0.266666667 C0.494550329,0.266666667 0.12203273,0.714381917 0.12203273,1.26666667 C0.12203273,1.81895142 0.494550329,2.26666667 0.954074074,2.26666667 L0.954074074,2.26666667 Z" id="Shape"></path>
                <path d="M17.5949009,6.93333333 L0.954074074,6.93333333 C0.494550329,6.93333333 0.12203273,7.38104858 0.12203273,7.93333333 C0.12203273,8.48561808 0.494550329,8.93333333 0.954074074,8.93333333 L17.5949009,8.93333333 C18.0544247,8.93333333 18.4269423,8.48561808 18.4269423,7.93333333 C18.4269423,7.38104858 18.0544247,6.93333333 17.5949009,6.93333333 L17.5949009,6.93333333 Z" id="Shape"></path>
                <path d="M17.5949009,13.6 L0.954074074,13.6 C0.494550329,13.6 0.12203273,14.0477153 0.12203273,14.6 C0.12203273,15.1522847 0.494550329,15.6 0.954074074,15.6 L17.5949009,15.6 C18.0544247,15.6 18.4269423,15.1522847 18.4269423,14.6 C18.4269423,14.0477153 18.0544247,13.6 17.5949009,13.6 L17.5949009,13.6 Z" id="Shape"></path>
            </g>
        </g>
    </g>
</svg>