<?xml version="1.0" encoding="UTF-8"?>
<svg width="32px" height="28px" viewBox="0 0 32 28" version="1.1" xmlns="http://www.w3.org/2000/svg" xmlns:xlink="http://www.w3.org/1999/xlink">
    <!-- Generator: Sketch 52.6 (67491) - http://www.bohemiancoding.com/sketch -->
    <title>pen</title>
    <desc>Created with Sketch.</desc>
    <g id="Styles" stroke="none" stroke-width="1" fill="none" fill-rule="evenodd">
        <g id="Buttons" transform="translate(-258.000000, -1741.000000)" fill="#000000" stroke="#FFFFFF">
            <g id="pen" transform="translate(259.000000, 1742.000000)">
                <path d="M26.3912865,23.6714035 L5.02690058,23.6714035 C3.64070175,23.6714035 2.51345029,22.5440936 2.51345029,21.1579532 C2.51345029,19.7718129 3.64076023,18.6445029 5.02690058,18.6445029 L7.54035088,18.6445029 C8.23403509,18.6445029 8.79707602,18.081462 8.79707602,17.3877778 C8.79707602,16.6940936 8.23403509,16.1310526 7.54035088,16.1310526 L5.02690058,16.1310526 C2.2545614,16.1310526 0,18.385614 0,21.1579532 C0,23.9302924 2.2545614,26.1848538 5.02690058,26.1848538 L26.3912865,26.1848538 C27.0849708,26.1848538 27.6480117,25.6218129 27.6480117,24.9281287 C27.6480117,24.2344444 27.0849708,23.6714035 26.3912865,23.6714035 Z" id="Path"></path>
                <path d="M28.5377778,1.41976608 C26.6627485,-0.452748538 23.6114035,-0.455263158 21.7325731,1.41976608 L19.8097661,3.3425731 C19.7859064,3.36269006 19.7569591,3.37023392 19.734386,3.3928655 C19.7118129,3.41549708 19.7042105,3.44438596 19.6840936,3.46824561 L13.235848,9.91649123 C11.9942105,11.1606433 11.3105263,12.8145029 11.3105263,14.5726901 L11.3105263,17.3877778 C11.3105263,18.081462 11.8735673,18.6445029 12.5672515,18.6445029 L15.3823392,18.6445029 C17.1405263,18.6445029 18.7943275,17.9608187 20.0410526,16.7179532 L28.5365497,8.22245614 C30.4102924,6.3474269 30.4102924,3.29479532 28.5377778,1.41976608 Z M18.2652632,14.9396491 C17.4949123,15.7074854 16.4706433,16.1310526 15.3823392,16.1310526 L13.8239766,16.1310526 L13.8239766,14.5726901 C13.8239766,13.484386 14.2474854,12.460117 15.0140936,11.6909942 L20.6354386,6.06964912 L23.8853216,9.31953216 L18.2652632,14.9396491 Z M26.7594737,6.4454386 L25.6623392,7.5425731 L22.4124561,4.29269006 L23.5083041,3.19684211 C24.4043275,2.30204678 25.8633918,2.30333333 26.7581871,3.19684211 C27.6530409,4.0928655 27.6530409,5.55064327 26.7594737,6.4454386 Z" id="Shape" fill-rule="nonzero"></path>
            </g>
        </g>
    </g>
</svg>