<?xml version="1.0" encoding="UTF-8"?>
<svg width="22px" height="33px" viewBox="0 0 22 33" version="1.1" xmlns="http://www.w3.org/2000/svg" xmlns:xlink="http://www.w3.org/1999/xlink">
    <!-- Generator: Sketch 52.6 (67491) - http://www.bohemiancoding.com/sketch -->
    <title>phone</title>
    <desc>Created with Sketch.</desc>
    <g id="Styles" stroke="none" stroke-width="1" fill="none" fill-rule="evenodd">
        <g id="Buttons" transform="translate(-570.000000, -1648.000000)" fill="#000000" fill-rule="nonzero" stroke="#000000" stroke-width="0.5">
            <g id="phone" transform="translate(571.000000, 1649.000000)">
                <path d="M20,3.31210191 C20,1.48407643 18.5159236,0 16.6878981,0 L3.31210191,0 C1.48407643,0 0,1.48407643 0,3.31210191 L0,28.2802548 C0,30.1082803 1.48407643,31.5923567 3.31210191,31.5923567 L16.6878981,31.5923567 C18.5159236,31.5923567 20,30.1082803 20,28.2802548 L20,3.31210191 Z M19.1082803,28.2802548 C19.1082803,29.6178344 18.0254777,30.7006369 16.6878981,30.7006369 L3.31210191,30.7006369 C1.97452229,30.7006369 0.891719745,29.6178344 0.891719745,28.2802548 L0.891719745,27.7707006 L19.1082803,27.7707006 L19.1082803,28.2802548 Z M19.1082803,26.8789809 L0.891719745,26.8789809 L0.891719745,4.7133758 L19.1082803,4.7133758 L19.1082803,26.8789809 Z M19.1082803,3.82165605 L0.891719745,3.82165605 L0.891719745,3.31210191 C0.891719745,1.97452229 1.97452229,0.891719745 3.31210191,0.891719745 L16.6878981,0.891719745 C18.0254777,0.891719745 19.1082803,1.97452229 19.1082803,3.31210191 L19.1082803,3.82165605 Z" id="Shape"></path>
            </g>
        </g>
    </g>
</svg>