<?xml version="1.0" encoding="UTF-8"?>
<svg width="30px" height="26px" viewBox="0 0 30 26" version="1.1" xmlns="http://www.w3.org/2000/svg" xmlns:xlink="http://www.w3.org/1999/xlink">
    <!-- Generator: Sketch 52.6 (67491) - http://www.bohemiancoding.com/sketch -->
    <title>photo</title>
    <desc>Created with Sketch.</desc>
    <g id="Styles" stroke="none" stroke-width="1" fill="none" fill-rule="evenodd">
        <g id="Buttons" transform="translate(-173.000000, -1650.000000)" fill="#000000" fill-rule="nonzero">
            <g id="photo" transform="translate(173.000000, 1650.000000)">
                <path d="M13.5877991,11.6377259 C15.2403259,11.6377259 16.5850067,10.2932739 16.5850067,8.64074707 C16.5850067,6.98799135 15.2403259,5.64353941 13.5877991,5.64353941 C11.9352722,5.64353941 10.5908203,6.98799135 10.5908203,8.64074707 C10.5908203,10.2932739 11.9352722,11.6377259 13.5877991,11.6377259 Z M13.5877991,7.40135191 C14.2712402,7.40135191 14.8271942,7.95730594 14.8271942,8.64074707 C14.8271942,9.32395934 14.2712402,9.87991336 13.5877991,9.87991336 C12.9045868,9.87991336 12.3486328,9.32395934 12.3486328,8.64074707 C12.3486328,7.95730594 12.9045868,7.40135191 13.5877991,7.40135191 Z" id="Shape"></path>
                <path d="M28.9045716,0.029296875 L1.09542844,0.029296875 C0.491409316,0.029296875 0,0.520706191 0,1.12472531 L0,24.6633911 C0,25.2674103 0.491409316,25.7588196 1.09542844,25.7588196 L28.9045716,25.7588196 C29.5085907,25.7588196 30,25.2674103 30,24.6633911 L30,1.12472531 C30,0.520706191 29.5085907,0.029296875 28.9045716,0.029296875 Z M28.2421875,1.78710938 L28.2421875,15.6976318 L22.7137757,10.1689911 C22.3532868,9.80918883 21.7671204,9.8094177 21.4068604,10.1696777 L13.588028,17.9885101 L8.59359738,12.9943085 C8.41896059,12.8194427 8.18664551,12.7230835 7.93945312,12.7230835 C7.69248961,12.7230835 7.46040346,12.8192139 7.2857666,12.9938507 L1.7578125,18.5218048 L1.7578125,1.78710938 L28.2421875,1.78710938 Z M1.7578125,24.0010071 L1.7578125,21.0076904 L7.93945312,14.8260498 L12.9336548,19.8202515 C13.1085205,19.9951172 13.3408356,20.0917054 13.588028,20.0917054 C13.8347626,20.0917054 14.0670776,19.9953461 14.2414856,19.8207093 L22.0605469,12.0016479 L28.2424164,18.1835174 L28.2424164,24.0010071 L1.7578125,24.0010071 Z" id="Shape"></path>
            </g>
        </g>
    </g>
</svg>