<?xml version="1.0" encoding="UTF-8"?>
<svg width="27px" height="19px" viewBox="0 0 27 19" version="1.1" xmlns="http://www.w3.org/2000/svg" xmlns:xlink="http://www.w3.org/1999/xlink">
    <!-- Generator: Sketch 52.6 (67491) - http://www.bohemiancoding.com/sketch -->
    <title>picture</title>
    <desc>Created with Sketch.</desc>
    <g id="Styles" stroke="none" stroke-width="1" fill="none" fill-rule="evenodd">
        <g id="Buttons" transform="translate(-422.000000, -1650.000000)" fill="#000000" fill-rule="nonzero" stroke="#000000" stroke-width="0.5">
            <g id="picture" transform="translate(423.000000, 1651.000000)">
                <path d="M22.9166667,0 L2.08333333,0 C0.933333333,0.00135416667 0.00135416667,0.933333333 0,2.08333333 L0,15.4166667 C0.00135416667,16.5666667 0.933333333,17.4986458 2.08333333,17.5 L22.9166667,17.5 C23.0335938,17.5004688 23.1503125,17.4902604 23.2654167,17.4695833 C24.2679688,17.3017708 25.0019271,16.4331771 25,15.4166667 L25,2.08333333 C24.9986458,0.93328125 24.0666667,0.00135416667 22.9166667,0 Z M2.08333333,16.6666667 C1.43567708,16.6665625 0.8953125,16.1718229 0.838333333,15.5266667 L9.14583333,10.095 L17.5941667,16.6666667 L2.08333333,16.6666667 Z M24.1666667,15.4166667 C24.1673437,16.0282292 23.724375,16.5500521 23.1208333,16.64875 C23.0534375,16.6608854 22.9851042,16.666875 22.9166667,16.6666667 L18.95125,16.6666667 L13.4308333,12.3704167 L18.3675,8.42291667 L24.1666667,11.9025 L24.1666667,15.4166667 Z M24.1666667,10.9308333 L18.5479167,7.55958333 C18.3985417,7.46973958 18.2090625,7.48239583 18.0729167,7.59125 L12.7533333,11.8454167 L9.42208333,9.25458333 C9.28171875,9.14552083 9.08765625,9.13744792 8.93875,9.23458333 L0.833333333,14.5341667 L0.833333333,2.08333333 C0.833333333,1.39296875 1.39296875,0.833333333 2.08333333,0.833333333 L22.9166667,0.833333333 C23.6070313,0.833333333 24.1666667,1.39296875 24.1666667,2.08333333 L24.1666667,10.9308333 Z" id="Shape"></path>
                <path d="M12.5,2.5 C11.1192708,2.5 10,3.61927083 10,5 C10.0013542,6.38015625 11.1198438,7.49864583 12.5,7.5 C13.8807292,7.5 15,6.38072917 15,5 C15,3.61927083 13.8807292,2.5 12.5,2.5 Z M12.5,6.66666667 C11.5795313,6.66666667 10.8333333,5.92046875 10.8333333,5 C10.8333333,4.07953125 11.5795313,3.33333333 12.5,3.33333333 C13.4204687,3.33333333 14.1666667,4.07953125 14.1666667,5 C14.1666667,5.92046875 13.4204687,6.66666667 12.5,6.66666667 Z" id="Shape"></path>
            </g>
        </g>
    </g>
</svg>