<?xml version="1.0" encoding="UTF-8"?>
<svg width="22px" height="29px" viewBox="0 0 22 29" version="1.1" xmlns="http://www.w3.org/2000/svg" xmlns:xlink="http://www.w3.org/1999/xlink">
    <!-- Generator: Sketch 52.6 (67491) - http://www.bohemiancoding.com/sketch -->
    <title>pin</title>
    <desc>Created with Sketch.</desc>
    <g id="Styles" stroke="none" stroke-width="1" fill="none" fill-rule="evenodd">
        <g id="Buttons" transform="translate(-424.000000, -1743.000000)" fill="#000000" fill-rule="nonzero" stroke="#000000" stroke-width="0.5">
            <g id="pin" transform="translate(425.000000, 1744.000000)">
                <path d="M10.2941176,0 C4.61556905,0 0,4.61556905 0,10.2941176 C0,17.5167839 9.57241049,27.2122762 9.97522379,27.6206841 C10.0591432,27.7046036 10.1710358,27.7493606 10.2941176,27.7493606 C10.4171995,27.7493606 10.5290921,27.7046036 10.6130115,27.6150895 C11.0158248,27.2122762 20.5882353,17.5167839 20.5882353,10.2941176 C20.5882353,4.61556905 15.9726662,0 10.2941176,0 Z M10.6186061,26.3115409 L10.2941176,26.6640026 L9.96962916,26.3115409 C8.82273018,25.0863171 6.61285166,22.5967072 4.64913683,19.6763107 C2.15952685,15.9726662 0.895140665,12.8172954 0.895140665,10.2941176 C0.895140665,5.11349105 5.11349105,0.895140665 10.2941176,0.895140665 C15.4747442,0.895140665 19.6930946,5.11349105 19.6930946,10.2941176 C19.6930946,12.8172954 18.4287084,15.9726662 15.9446931,19.6707161 C13.9753836,22.5967072 11.7655051,25.0863171 10.6186061,26.3115409 Z" id="Shape"></path>
                <path d="M10.2941176,5.37084399 C7.58072251,5.37084399 5.37084399,7.58072251 5.37084399,10.2941176 C5.37084399,13.0075128 7.58072251,15.2173913 10.2941176,15.2173913 C13.0075128,15.2173913 15.2173913,13.0075128 15.2173913,10.2941176 C15.2173913,7.58072251 13.0075128,5.37084399 10.2941176,5.37084399 Z M10.2941176,14.3222506 C8.07304987,14.3222506 6.26598465,12.5151854 6.26598465,10.2941176 C6.26598465,8.07304987 8.07304987,6.26598465 10.2941176,6.26598465 C12.5151854,6.26598465 14.3222506,8.07304987 14.3222506,10.2941176 C14.3222506,12.5151854 12.5151854,14.3222506 10.2941176,14.3222506 Z" id="Shape"></path>
            </g>
        </g>
    </g>
</svg>