<?xml version="1.0" encoding="UTF-8"?>
<svg width="21px" height="22px" viewBox="0 0 21 22" version="1.1" xmlns="http://www.w3.org/2000/svg" xmlns:xlink="http://www.w3.org/1999/xlink">
    <!-- Generator: Sketch 52.6 (67491) - http://www.bohemiancoding.com/sketch -->
    <title>Search</title>
    <desc>Created with Sketch.</desc>
    <g id="Styles" stroke="none" stroke-width="1" fill="none" fill-rule="evenodd">
        <g id="Buttons" transform="translate(-237.000000, -1546.000000)" fill="#0D0D0D" stroke="#000000" stroke-width="0.5">
            <g id="Search" transform="translate(238.000000, 1547.000000)">
                <path d="M18.8066885,18.7456698 L14.3014878,14.264848 C17.4581947,11.0886185 17.5543844,5.99000431 14.5197257,2.69696949 C11.4850669,-0.596065342 6.39558397,-0.915881962 2.97256445,1.97136059 C-0.450455073,4.85860315 -0.99328259,9.92915117 1.7409822,13.4755618 C4.47524698,17.0219724 9.51709297,17.7867652 13.1800634,15.2107451 L17.7730277,19.8037094 C18.0611946,20.0722261 18.5102519,20.064303 18.788767,19.7857879 C19.0672821,19.5072728 19.0752052,19.0582155 18.8066885,18.7700486 L18.8066885,18.7456698 Z M1.59038592,8.41393799 C1.59038592,4.64400825 4.64651781,1.58787636 8.41644755,1.58787636 C12.1863773,1.58787636 15.2425092,4.64400825 15.2425092,8.41393799 C15.2425092,12.1838677 12.1863773,15.2399996 8.41644755,15.2399996 C4.64651781,15.2399996 1.59038592,12.1838677 1.59038592,8.41393799 Z" id="Icon"></path>
            </g>
        </g>
    </g>
</svg>