<?xml version="1.0" encoding="UTF-8"?>
<svg width="22px" height="22px" viewBox="0 0 22 22" version="1.1" xmlns="http://www.w3.org/2000/svg" xmlns:xlink="http://www.w3.org/1999/xlink">
    <!-- Generator: Sketch 52.6 (67491) - http://www.bohemiancoding.com/sketch -->
    <title>Settings</title>
    <desc>Created with Sketch.</desc>
    <g id="Styles" stroke="none" stroke-width="1" fill="none" fill-rule="evenodd">
        <g id="Buttons" transform="translate(-429.000000, -1548.000000)" fill="#000000" fill-rule="nonzero" stroke="#000000" stroke-width="0.2">
            <g id="Settings" transform="translate(430.000000, 1549.000000)">
                <path d="M11.8855143,0 L11.8991149,0.000115098274 C12.496385,0.0102248774 13.0065509,0.424375546 13.1269012,0.996827276 L13.1315246,1.02072747 L13.1353733,1.04475873 L13.4255037,3.06485577 L13.4562831,3.07957894 C13.7574973,3.22527222 14.0484704,3.39021847 14.326536,3.57280537 L14.3859229,3.61220056 L14.4088943,3.62774038 L16.3542473,2.861674 L16.3611585,2.85906262 C16.9286813,2.64762415 17.5686208,2.86149741 17.8859115,3.36595994 L17.8961431,3.38251262 L19.7853983,6.58044774 C20.0957881,7.10257488 19.9746466,7.76774156 19.4990299,8.15284661 L19.4832777,8.16527048 L17.8328747,9.43302885 L17.8345066,9.45372738 C17.8464621,9.61068586 17.8538022,9.75711039 17.8561727,9.90133251 L17.8568279,9.95532884 L17.8570159,10.0038297 C17.8561544,10.1472796 17.8510448,10.2906347 17.8417006,10.4337152 L17.8366757,10.5052316 L17.8326781,10.5548077 L19.4858173,11.8233958 L19.498182,11.8332184 C19.967861,12.2141231 20.0913869,12.8682279 19.7951785,13.3862061 L19.7851494,13.403421 L17.8951727,16.6025873 C17.5819371,17.1193318 16.9341619,17.340714 16.3601881,17.1271803 L16.3459556,17.1217299 L14.4067813,16.3577885 L14.3781073,16.3769397 C14.1007121,16.560278 13.811929,16.7264548 13.5138627,16.8743101 L13.44985,16.9057126 L13.4255528,16.9173077 L13.1339911,18.9472819 L13.1308434,18.9663055 C13.0270749,19.54721 12.5219767,19.9767091 11.9213599,19.9979097 L11.8938372,19.9985767 L8.10768514,19.998591 L8.10088506,19.9985047 C7.50361497,19.9883949 6.99344913,19.5742443 6.87309879,19.0017925 L6.86847542,18.9778923 L6.86462675,18.9538611 L6.57444717,16.93375 L6.54371691,16.9190409 C6.24250265,16.7733476 5.95152956,16.6084013 5.67346402,16.4258144 L5.61407709,16.3864192 L5.59105651,16.3708173 L3.64575266,17.1369458 L3.63884152,17.1395572 C3.07131865,17.3509957 2.43137922,17.1371224 2.11408851,16.6326599 L2.10385694,16.6161072 L0.214601706,13.4181721 C-0.0957880893,12.8960449 0.0253533683,12.2308782 0.500970067,11.8457732 L0.508805312,11.8395117 L2.16481572,10.5673077 L2.16304372,10.5457797 C2.15081224,10.3955694 2.14320964,10.2517525 2.14053087,10.1111731 L2.13968514,10.0511138 L2.13944371,9.99801596 C2.13944371,9.82483665 2.14692961,9.6506843 2.16125684,9.47557649 L2.16407862,9.44298077 L0.508806853,8.17076163 L0.503292986,8.16640471 L0.492386691,8.15754577 C0.0302069425,7.77518971 -0.089026042,7.12660064 0.20479019,6.61247726 L0.214850646,6.59519876 L2.10482728,3.39603245 C2.41806292,2.87928803 3.06583809,2.65790583 3.63981186,2.87143954 L3.6540444,2.87688993 L5.59312039,3.64081731 L5.6218927,3.6216801 C5.89928787,3.43834176 6.18807101,3.27216502 6.48613734,3.12430965 L6.55015001,3.09290721 L6.57439803,3.08125 L6.86600885,1.05133788 L6.86915661,1.03231432 C6.9729251,0.451409814 7.4780233,0.0219106974 8.07864007,0.000710078086 L8.10616278,4.31005661e-05 L11.8855143,0 Z M11.6183292,1.53846154 L8.3839312,1.53846154 L8.12570767,3.33628927 C8.05944059,3.80232765 7.76740764,4.20736563 7.34261336,4.42557423 L7.32195558,4.43598637 L7.30109291,4.44610373 C7.02644243,4.5763585 6.76158974,4.72546733 6.5114446,4.89031697 L6.45806898,4.92588169 C6.05215904,5.20262748 5.53317065,5.26492706 5.0688844,5.0924793 L5.04609549,5.08380891 L3.32457002,4.40557692 L1.71041769,7.13793269 L3.16881762,8.25877779 C3.55200092,8.55275207 3.7636113,9.01049181 3.7375478,9.48850162 L3.73610089,9.51164634 L3.73428135,9.53481909 C3.71943582,9.69497947 3.71192528,9.84798642 3.71192528,9.99801596 C3.71192528,10.1319152 3.71822651,10.272472 3.7306653,10.424903 L3.73605006,10.4878907 C3.77430555,10.9644431 3.57177935,11.4293476 3.19084988,11.7348183 L3.17227883,11.7494741 L1.70899263,12.8734135 L3.32304668,15.605625 L5.04455503,14.9276625 C5.49578908,14.7500507 6.0061278,14.799154 6.41380278,15.0577765 L6.43444275,15.0711072 L6.45456715,15.0845713 C6.70243919,15.2540754 6.96290725,15.4051719 7.23060815,15.5351178 L7.28808138,15.5626386 C7.73265127,15.7696446 8.04404,16.1773011 8.12202047,16.6544609 L8.125557,16.6772348 L8.38162162,18.4601442 L11.6160197,18.4601442 L11.8742923,16.6623305 C11.9405594,16.1962922 12.2325924,15.7912542 12.6573866,15.5730456 L12.6780444,15.5626334 L12.6989071,15.5525161 C12.9735576,15.4222613 13.2384103,15.2731525 13.4885554,15.1083028 L13.541931,15.0727381 C13.947841,14.7959923 14.4668294,14.7336927 14.9311156,14.9061405 L14.9539045,14.9148109 L16.6753808,15.5929808 L18.2895332,12.860625 L16.5181081,11.501272 C16.3065919,11.3389606 16.1951451,11.0827884 16.2206853,10.8225809 L16.2225913,10.8052288 L16.2249056,10.7878706 C16.263037,10.5251279 16.2829677,10.2601635 16.2845479,9.9993099 C16.2845479,9.87678424 16.2793068,9.74718899 16.2689457,9.60283425 L16.262801,9.52254808 L16.2616291,9.50892604 C16.2250522,9.03929302 16.4221718,8.58157118 16.7909014,8.27845662 L16.8091738,8.26367462 L16.8277212,8.2491457 L18.2909582,7.12514423 L16.6769042,4.39293269 L14.955445,5.07095734 C14.5042109,5.24856913 13.9938722,5.19946581 13.5861972,4.94084333 L13.5655573,4.92751255 L13.5454329,4.9140485 C13.2975608,4.7445444 13.0370927,4.5934479 12.7693919,4.46350201 L12.7119186,4.43598119 C12.2673487,4.22897519 11.95596,3.82131868 11.8779795,3.3441589 L11.874443,3.32138499 L11.6183292,1.53846154 Z M10.3558689,6.48690325 C12.0658897,6.65494137 13.4183226,7.97811496 13.5902061,9.65241192 C13.7399953,11.1362741 12.9205526,12.5521605 11.5429117,13.1898602 C10.1652707,13.82756 8.5266481,13.5494938 7.44897947,12.4951401 C6.37131084,11.4407864 6.08709577,9.83761473 6.73889698,8.48977853 C7.3906982,7.14194234 8.83789412,6.34022794 10.3558689,6.48690325 Z M8.16031352,9.14774168 C7.79261335,9.90809557 7.9529474,10.8124917 8.56089185,11.4072835 C9.1688363,12.0020753 10.0932314,12.1589406 10.870399,11.7991955 C11.6475666,11.4394504 12.1098382,10.6407074 12.0254672,9.8048891 C11.928457,8.85993002 11.164575,8.1125743 10.20002,8.01778959 C9.3444193,7.93511721 8.52801368,8.38738779 8.16031352,9.14774168 Z" id="Shape"></path>
            </g>
        </g>
    </g>
</svg>