<?xml version="1.0" encoding="UTF-8"?>
<svg width="27px" height="27px" viewBox="0 0 27 27" version="1.1" xmlns="http://www.w3.org/2000/svg" xmlns:xlink="http://www.w3.org/1999/xlink">
    <!-- Generator: Sketch 52.6 (67491) - http://www.bohemiancoding.com/sketch -->
    <title>Share</title>
    <desc>Created with Sketch.</desc>
    <g id="Styles" stroke="none" stroke-width="1" fill="none" fill-rule="evenodd">
        <g id="Buttons" transform="translate(-179.000000, -1865.000000)" fill="#000000" stroke="#FFFFFF" stroke-width="0.5">
            <g id="Share" transform="translate(180.000000, 1866.000000)">
                <path d="M20,22.5 C18.62,22.5 17.5,21.38 17.5,20 C17.5,18.62 18.62,17.5 20,17.5 C21.38,17.5 22.5,18.62 22.5,20 C22.5,21.38 21.38,22.5 20,22.5 M5,15 C3.62,15 2.5,13.88 2.5,12.5 C2.5,11.12 3.62,10 5,10 C6.38,10 7.5,11.12 7.5,12.5 C7.5,13.88 6.38,15 5,15 M20,2.5 C21.38,2.5 22.5,3.62 22.5,5 C22.5,6.38 21.38,7.5 20,7.5 C18.62,7.5 17.5,6.38 17.5,5 C17.5,3.62 18.62,2.5 20,2.5 M20,15 C18.49625,15 17.15,15.6675 16.2325,16.71875 L9.88875,13.54625 C9.96,13.20875 10,12.85875 10,12.5 C10,12.14125 9.96,11.79125 9.88875,11.45375 L16.2325,8.28125 C17.15,9.3325 18.49625,10 20,10 C22.76125,10 25,7.76125 25,5 C25,2.23875 22.76125,0 20,0 C17.23875,0 15,2.23875 15,5 C15,5.35875 15.04,5.70875 15.11125,6.04625 L8.7675,9.21875 C7.85,8.1675 6.505,7.5 5,7.5 C2.23875,7.5 0,9.73875 0,12.5 C0,15.26125 2.23875,17.5 5,17.5 C6.505,17.5 7.85,16.8325 8.7675,15.78125 L15.11125,18.95375 C15.04,19.29125 15,19.64125 15,20 C15,22.76125 17.23875,25 20,25 C22.76125,25 25,22.76125 25,20 C25,17.23875 22.76125,15 20,15" id="Page-1"></path>
            </g>
        </g>
    </g>
</svg>