<?xml version="1.0" encoding="UTF-8"?>
<svg width="27px" height="27px" viewBox="0 0 27 27" version="1.1" xmlns="http://www.w3.org/2000/svg" xmlns:xlink="http://www.w3.org/1999/xlink">
    <!-- Generator: Sketch 52.6 (67491) - http://www.bohemiancoding.com/sketch -->
    <title>time</title>
    <desc>Created with Sketch.</desc>
    <g id="Styles" stroke="none" stroke-width="1" fill="none" fill-rule="evenodd">
        <g id="Buttons" transform="translate(-497.000000, -1742.000000)" fill="#000000" stroke="#000000" stroke-width="0.6">
            <g id="time" transform="translate(498.000000, 1743.000000)">
                <path d="M12.5,0 C5.6075,0 0,5.6075 0,12.5 C0,19.3925 5.6075,25 12.5,25 C19.3925,25 25,19.3925 25,12.5 C25,5.6075 19.3925,0 12.5,0 Z M12.5,24.1666667 C6.06708333,24.1666667 0.833333333,18.9329167 0.833333333,12.5 C0.833333333,6.06708333 6.06708333,0.833333333 12.5,0.833333333 C18.9329167,0.833333333 24.1666667,6.06708333 24.1666667,12.5 C24.1666667,18.9329167 18.9329167,24.1666667 12.5,24.1666667 Z" id="Shape" fill-rule="nonzero"></path>
                <path d="M12.5,2.5 C12.27,2.5 12.0833333,2.68625 12.0833333,2.91666667 L12.0833333,12.5 L5.83333333,12.5 C5.60333333,12.5 5.41666667,12.68625 5.41666667,12.9166667 C5.41666667,13.1470833 5.60333333,13.3333333 5.83333333,13.3333333 L12.5,13.3333333 C12.73,13.3333333 12.9166667,13.1470833 12.9166667,12.9166667 L12.9166667,2.91666667 C12.9166667,2.68625 12.73,2.5 12.5,2.5 Z" id="Path"></path>
            </g>
        </g>
    </g>
</svg>