<?xml version="1.0" encoding="UTF-8"?>
<svg width="28px" height="26px" viewBox="0 0 28 26" version="1.1" xmlns="http://www.w3.org/2000/svg" xmlns:xlink="http://www.w3.org/1999/xlink">
    <!-- Generator: Sketch 52.6 (67491) - http://www.bohemiancoding.com/sketch -->
    <title>upload (1)</title>
    <desc>Created with Sketch.</desc>
    <g id="Styles" stroke="none" stroke-width="1" fill="none" fill-rule="evenodd">
        <g id="Buttons" transform="translate(-262.000000, -1866.000000)" fill="#000000" stroke="#000000" stroke-width="0.5">
            <g id="upload-(1)" transform="translate(263.000000, 1867.000000)">
                <path d="M21.2696783,6.33519116 C20.9900264,4.67341351 20.1672045,3.15683974 18.9087709,2.0059646 C17.5105114,0.726019361 15.692774,0.0215116848 13.7997458,0.0215116848 C12.3369512,0.0215116848 10.9118021,0.440989537 9.69101398,1.23154395 C8.67458688,1.88765034 7.83025325,2.77500733 7.233304,3.81832404 C6.97516378,3.76992275 6.70626772,3.74303315 6.43737166,3.74303315 C4.15175516,3.74303315 2.29099443,5.60379388 2.29099443,7.88941038 C2.29099443,8.18519605 2.32326195,8.47022587 2.37704117,8.74987777 C0.898112839,9.82546201 0,11.5571526 0,13.4017796 C0,14.8914638 0.553925882,16.3381246 1.56497507,17.4836218 C2.60291386,18.6560086 3.97428376,19.3497604 5.43707832,19.4304293 C5.45321209,19.4304293 5.46396793,19.4304293 5.48010169,19.4304293 L10.1051139,19.4304293 C10.508458,19.4304293 10.8311333,19.107754 10.8311333,18.7044099 C10.8311333,18.3010658 10.508458,17.9783905 10.1051139,17.9783905 L5.50161338,17.9783905 C3.30204361,17.8439425 1.45203872,15.7519312 1.45203872,13.3964017 C1.45203872,11.87445 2.26948274,10.4546788 3.58707343,9.68563606 C3.89361494,9.50816466 4.02268505,9.1370881 3.90437078,8.80365699 C3.79681236,8.51324924 3.74303315,8.20670773 3.74303315,7.87865454 C3.74303315,6.39434829 4.95306542,5.18431603 6.43737166,5.18431603 C6.75466901,5.18431603 7.06658844,5.23809524 7.35699619,5.34565366 C7.71193899,5.47472377 8.10452723,5.31338613 8.26586487,4.9745771 C9.27153613,2.83954239 11.4442163,1.46279456 13.8051237,1.46279456 C16.9780972,1.46279456 19.5971448,3.83983573 19.8983084,6.99129755 C19.9305759,7.31935074 20.1779603,7.58286888 20.5006356,7.63664809 C22.8938105,8.0453701 24.700792,10.2556957 24.700792,12.7779407 C24.700792,15.4507676 22.5980248,17.7740295 20.0058668,17.9730126 L16.0423389,17.9730126 C15.6389948,17.9730126 15.3163195,18.2956879 15.3163195,18.699032 C15.3163195,19.1023761 15.6389948,19.4250513 16.0423389,19.4250513 L20.0327564,19.4250513 C20.0488902,19.4250513 20.065024,19.4250513 20.0865356,19.4250513 C21.7268016,19.3067371 23.2595091,18.5538281 24.3996284,17.2953945 C25.5343698,16.0477168 26.1528307,14.4450963 26.1528307,12.7779407 C26.1474528,9.76092696 24.087709,7.07734428 21.2696783,6.33519116 Z" id="Path"></path>
                <path d="M17.4352205,14.0901535 C17.7202503,13.8051237 17.7202503,13.3480004 17.4352205,13.0629706 L13.5900068,9.21775692 C13.4555588,9.08330889 13.2673316,9.00264007 13.0791043,9.00264007 C12.8908771,9.00264007 12.7026498,9.07793097 12.5682018,9.21775692 L8.72298817,13.0629706 C8.43795835,13.3480004 8.43795835,13.8051237 8.72298817,14.0901535 C8.86281412,14.2299795 9.05104136,14.3052704 9.23389068,14.3052704 C9.41674,14.3052704 9.60496724,14.2353574 9.74479319,14.0901535 L12.353085,11.4818617 L12.353085,23.4692481 C12.353085,23.8725922 12.6757602,24.1952674 13.0791043,24.1952674 C13.4824484,24.1952674 13.8051237,23.8725922 13.8051237,23.4692481 L13.8051237,11.4818617 L16.4134155,14.0901535 C16.6930674,14.3751833 17.1501907,14.3751833 17.4352205,14.0901535 Z" id="Path"></path>
            </g>
        </g>
    </g>
</svg>