<?xml version="1.0" encoding="UTF-8"?>
<svg width="32px" height="21px" viewBox="0 0 32 21" version="1.1" xmlns="http://www.w3.org/2000/svg" xmlns:xlink="http://www.w3.org/1999/xlink">
    <!-- Generator: Sketch 52.6 (67491) - http://www.bohemiancoding.com/sketch -->
    <title>video-camera</title>
    <desc>Created with Sketch.</desc>
    <g id="Styles" stroke="none" stroke-width="1" fill="none" fill-rule="evenodd">
        <g id="Buttons" transform="translate(-175.000000, -1745.000000)" fill="#000000" fill-rule="nonzero" stroke="#000000" stroke-width="0.5">
            <g id="video-camera" transform="translate(176.000000, 1746.000000)">
                <path d="M29.6886586,1.68606 C29.4954979,1.57160352 29.2566539,1.56713453 29.0595207,1.67463915 L22.1762447,5.43308066 L22.1762447,3.1779661 C22.1742585,1.42362953 20.7526152,0.00198622881 18.9982786,0 L3.1779661,0 C1.42362953,0.00198622881 0.00198622881,1.42362953 0,3.1779661 L0,15.7259666 C0.00198622881,17.4803033 1.42362953,18.9019465 3.1779661,18.9039327 L18.9982786,18.9039327 C20.7526152,18.9019465 22.1742585,17.4803033 22.1762447,15.7259666 L22.1762447,13.5118181 L29.0597689,17.2702595 C29.2566539,17.3777642 29.4957461,17.3735434 29.6886586,17.259087 C29.8818194,17.1443823 30,16.9365731 30,16.7123775 L30,2.23252119 C30,2.00807733 29.8815711,1.80051642 29.6886586,1.68606 Z M20.9045617,15.7262149 C20.9035686,16.7789162 20.0504833,17.6317532 18.9977821,17.6329946 L3.1779661,17.6329946 C2.12526483,17.6317532 1.27242782,16.7789162 1.27118644,15.7262149 L1.27118644,3.1779661 C1.27242782,2.12551309 2.12526483,1.27242782 3.1779661,1.27118644 L18.9982786,1.27118644 C20.0507316,1.27242782 20.9038169,2.12551309 20.9050583,3.1779661 L20.9045617,15.7262149 Z M28.7288136,15.6413036 L22.1762447,12.063609 L22.1762447,6.88128972 L28.7288136,3.30384337 L28.7288136,15.6413036 Z" id="Shape"></path>
            </g>
        </g>
    </g>
</svg>